<?xml version="1.0" encoding="UTF-8"?>
<svg id="_Слой_1" data-name="Слой 1" xmlns="http://www.w3.org/2000/svg" viewBox="0 0 510 157.32">
  <defs>
    <style>
      .cls-1 {
        fill: #f4f4f4;
        stroke-width: 0px;
      }
    </style>
  </defs>
  <path class="cls-1" d="M95.96,156.14l-2.16-19.83h-45.72l-9.42,19.83H0L69.47,18.77h42.78l21.19,137.37h-37.47ZM62.6,106.1h27.87l-5.1-47.5-22.77,47.5Z"/>
  <g>
    <path class="cls-1" d="M215,103.54c1.62-9.26,4.8-17.65,9.22-25.27-2.4-1.74-4.98-3.3-7.9-4.52l27.67-29.25,4.9-27.67h-89.28l-5.88,33.55h44.94l-25.51,26.89,10,20.03h7.26c4.84,0,8.4,1.14,10.7,3.44s3.1,5.4,2.46,9.32c-1.58,8.64-7.46,12.95-17.67,12.95-9.02,0-14.93-4.52-17.67-13.55l-32.19,16.69c3.14,10.34,8.72,18.09,16.79,23.25,8.04,5.16,17.83,7.74,29.33,7.74,14.27,0,26.53-3.66,36.79-10.98.66-.48,1.18-1.08,1.8-1.58-6.5-11.94-8.52-25.91-5.78-41.04Z"/>
    <path class="cls-1" d="M452.36,34.55c-8.12-13.67-21.13-20.51-39.06-20.51s-32.75,6.18-44.46,18.55c-9.62,10.16-16.53,23.55-20.81,40.06,4.36,7.66,6.78,15.99,7.38,24.95.04.38.04.78.06,1.18.04.88.12,1.72.14,2.6.02,1.72-.04,3.48-.2,5.28-.18,2.4-.44,4.82-.86,7.3-1.14,6.2-2.92,11.98-5.22,17.39.82,1.88,1.7,3.72,2.72,5.46,8.1,13.67,21.13,20.51,39.06,20.51s32.71-6.18,44.36-18.55c11.64-12.36,19.43-29.39,23.35-51.12,3.8-21.73,1.64-39.42-6.46-53.1ZM423.89,85.69c-4.58,24.99-14.01,37.47-28.25,37.47s-19.51-12.48-14.93-37.47c4.32-24.99,13.67-37.49,28.07-37.49,14.39,0,19.43,12.5,15.11,37.49Z"/>
    <path class="cls-1" d="M302.06,61.16c12.04,2.22,21.29,7.94,27.77,17.17,6.48,9.22,8.66,19.99,6.56,32.27-2.62,14.27-9.08,25.59-19.43,33.95-10.32,8.38-23.23,12.56-38.66,12.56s-28.13-4.8-36.49-14.43c-8.38-9.62-11.24-21.61-8.64-36.01,1.96-11.24,6.54-20.81,13.75-28.65l50.84-61.24h41.02l-36.71,44.38ZM301.48,108.66c.92-5.22.08-9.28-2.54-12.16s-6.36-4.32-11.18-4.32-9.24,1.44-12.85,4.32-5.86,6.94-6.78,12.16c-.92,5.24-.1,9.26,2.46,12.06,2.56,2.82,6.3,4.22,11.28,4.22s9.08-1.44,12.74-4.32c3.66-2.86,5.94-6.86,6.86-11.96Z"/>
    <circle class="cls-1" cx="492.23" cy="17.77" r="17.77"/>
  </g>
</svg>