<?xml version="1.0" encoding="UTF-8"?>
<svg width="674px" height="93px" viewBox="0 0 674 93" version="1.1" xmlns="http://www.w3.org/2000/svg" xmlns:xlink="http://www.w3.org/1999/xlink">
    <!-- Generator: Sketch 51.1 (57501) - http://www.bohemiancoding.com/sketch -->
    <title>Group 4</title>
    <desc>Created with Sketch.</desc>
    <defs></defs>
    <g id="Banners" stroke="none" stroke-width="1" fill="none" fill-rule="evenodd">
        <g id="Artboard" transform="translate(-164.000000, -244.000000)">
            <g id="Group-4" transform="translate(164.000000, 242.000000)">
                <g id="Group-2" fill="#FFFFFF">
                    <g id="Group" transform="translate(0.000000, 3.000000)">
                        <path d="M66.4989376,52.670417 C72.0301703,54.119383 77.0863978,56.0589408 81.6676202,58.4890905 L33.0913771,91.5738662 L9.46024238,91.5738662 L66.4989376,52.670417 Z M81.4110191,42.4995777 L143.440373,0.192231775 L126.814678,91.5738662 L103.72647,91.5738662 L113.630665,36.7193916 L98.6614264,46.9147852 C93.1104367,44.957062 87.3602999,43.485326 81.411016,42.4995772 Z" id="Combined-Shape"></path>
                        <path d="M100.244262,82.6146096 C83.9831289,56.3720516 50.5683748,47.8459899 0,57.0364244 C40.8731975,41.8118441 75.8280058,41.0301646 104.864425,54.691386 L100.244262,82.6146096 Z" id="Path-5"></path>
                    </g>
                </g>
                <g id="Group-3" transform="translate(139.000000, 3.000000)">
                    <path d="M46.7003403,65.7708503 C47.5954119,61.1918954 45.1136598,57.6462978 39.2550095,55.1339508 L29.2465319,51.0007556 C15.2101822,44.7198884 8.53793053,36.1699328 9.22957675,25.3506324 C9.51437225,20.4069821 11.2231196,16.0003106 14.3558701,12.130486 C17.4886207,8.2606613 21.8215158,5.25196841 27.3546855,3.10431702 C32.8878553,0.956665633 38.9294978,-0.0766228368 45.4797943,0.00442061174 C54.2677698,0.166507509 61.3366949,2.71933785 66.6867818,7.66298821 C72.0368688,12.6066386 74.6711876,19.2318411 74.5898175,27.5387946 L53.8405347,27.5387946 C53.9625899,24.1349697 53.2404407,21.4099247 51.6740655,19.3635776 C50.1076902,17.3172305 47.534398,16.2535512 43.9541117,16.1725078 C40.4551956,16.0914643 37.3631765,16.9018866 34.6779618,18.6037991 C31.9927471,20.3057115 30.4060531,22.5951546 29.9178322,25.472197 C29.1448159,29.5243694 32.1656371,32.847101 38.9803866,35.4404913 C45.7951361,38.0338817 50.7484693,40.2625431 53.8405347,42.1265424 C63.5642668,47.921149 68.1209265,55.7417244 67.5106504,65.5885034 C67.1851698,70.6942407 65.5374492,75.1718241 62.5674389,79.0213879 C59.5974287,82.8709517 55.478127,85.8492537 50.2094102,87.9563834 C44.9406935,90.0635131 39.0312754,91.076541 32.4809789,90.9954975 C27.6801405,90.9144541 23.2251919,90.1648134 19.1159997,88.7465531 C15.0068075,87.3282927 11.4876016,85.2617158 8.55827642,82.5467603 C2.61825597,77.0763275 -0.229656328,69.8838293 0.0144541015,60.96905 L20.9468188,61.0298322 C20.7027084,65.5682654 21.5774243,69.00243 23.5709928,71.3324291 C25.5645613,73.6624283 28.9210293,74.8274104 33.6404977,74.8274104 C37.1394138,74.8274104 40.0585239,74.0271183 42.3979155,72.4265102 C44.7373072,70.8259021 46.1714344,68.607371 46.7003403,65.7708503 Z M155.996943,17.6920648 L126.381285,17.6920648 L113.870688,89.7190696 L92.9383234,89.7190696 L105.509948,17.6920648 L75.9368277,17.6920648 L78.8661382,1.22006626 L158.865226,1.22006626 L155.996943,17.6920648 Z M206.611475,52.2164013 L173.961869,52.2164013 L170.239203,73.3078533 L208.869486,73.3078533 L206.001202,89.7190696 L146.499583,89.7190696 L161.878463,1.22006626 L221.502137,1.22006626 L218.633854,17.6920648 L179.942544,17.6920648 L176.64707,36.3522256 L209.357704,36.3522256 L206.611475,52.2164013 Z M248.211384,57.0182016 L237.348524,67.1688428 L233.381749,89.7190696 L212.510412,89.7190696 L227.889292,1.22006626 L248.821657,1.22006626 L242.169681,39.0874283 L250.835558,28.5720934 L273.903878,1.22006626 L301,1.22006626 L264.139509,41.2755904 L284.583656,89.7190696 L260.72198,89.7190696 L248.211384,57.0182016 Z" id="STEK" stroke="#FFFFFF" fill="#FFFFFF"></path>
                    <path d="M293,90 L308.356715,1 L336.571633,1.06112637 C347.703276,1.10187749 356.011257,3.22090392 361.495826,7.41826923 C366.980395,11.6156345 369.478883,17.504083 368.991366,25.0837912 C368.381969,34.4565487 363.263115,41.0988815 353.63465,45.010989 C357.087897,46.2335226 359.779358,48.4442377 361.709114,51.6432005 C363.63887,54.8421634 364.461542,58.6828988 364.177157,63.165522 C363.608387,71.7640082 360.226287,78.3859658 354.030756,83.0315934 C347.835225,87.677221 339.354584,90 328.588579,90 L293,90 Z M320.422706,52.1627747 L316.705406,73.4958791 L329.197972,73.5570055 C333.09811,73.5570055 336.348176,72.5891809 338.948268,70.6535027 C341.54836,68.7178246 343.092141,66.1403549 343.579658,62.9210165 C344.717198,56.1155795 342.117145,52.5499101 335.779422,52.2239011 L320.422706,52.1627747 Z M322.799341,38.1037088 L332.610576,38.1648352 C341.670271,37.9610796 346.748499,34.4769111 347.845412,27.7122253 C348.820447,21.0290417 345.367252,17.6671247 337.485723,17.6263736 L326.394762,17.5652473 L322.799341,38.1037088 Z M431.644467,52.2850275 L399.041916,52.2850275 L395.324616,73.4958791 L433.899223,73.4958791 L431.035073,90 L371.61921,90 L386.975925,1 L446.513667,1 L443.649518,17.5652473 L405.013972,17.5652473 L401.723247,36.331044 L434.386737,36.331044 L431.644467,52.2850275 Z M531.114585,17.5652473 L498.297568,17.5652473 L485.805001,90 L464.902805,90 L477.456311,17.5652473 L447.01297,17.5652473 L449.938059,1 L533.978734,1 L531.114585,17.5652473 Z" id="BET" stroke="#F3E93B" fill="#F3E93B"></path>
                </g>
            </g>
        </g>
    </g>
</svg>