<svg xmlns="http://www.w3.org/2000/svg" fill="none" viewBox="0 0 232 54">
  <path fill="#fff" d="M223.23 53.46V35.61h-2.67v-4.98h2.67V23h5.48v7.63H232v4.98h-3.3v17.85h-5.47ZM212.34 46.7h5.96a9.77 9.77 0 0 1-1.6 2.97 11.02 11.02 0 0 1-5.64 3.8 12.93 12.93 0 0 1-8.48-.37c-1.5-.61-2.82-1.45-3.95-2.52a11.7 11.7 0 0 1-3.54-8.45 12.01 12.01 0 0 1 3.46-8.53 11.7 11.7 0 0 1 3.83-2.56c1.48-.63 3.06-.95 4.73-.95 1.7 0 3.26.32 4.7.95a11.2 11.2 0 0 1 6.17 6.43 13.12 13.12 0 0 1 .7 7h-17.66c.16.7.42 1.33.78 1.9.38.55.85 1.02 1.4 1.4.55.39 1.17.7 1.85.91a8.66 8.66 0 0 0 5.06-.2c.77-.36 1.51-.95 2.23-1.78Zm-11.49-7.05h12.64a5.6 5.6 0 0 0-2.14-3.38 6.95 6.95 0 0 0-4.16-1.15c-.82 0-1.58.1-2.26.29-.66.2-1.26.48-1.81.86a6.66 6.66 0 0 0-2.26 3.38ZM168.75 53.46V23h5.48v9.73a10.64 10.64 0 0 1 3.2-2.27c1.08-.44 2.36-.66 3.87-.66 1.65 0 3.17.3 4.57.9 1.4.61 2.6 1.47 3.62 2.56a11.29 11.29 0 0 1 2.43 3.84c.58 1.45.87 3.05.87 4.78 0 1.76-.28 3.38-.83 4.86a11.44 11.44 0 0 1-2.3 3.84 10.72 10.72 0 0 1-7.98 3.42c-1.7 0-3.16-.26-4.37-.78a11.16 11.16 0 0 1-3.54-2.68v2.92h-5.02Zm11.9-4.49a6.35 6.35 0 0 0 4.77-1.94 7.03 7.03 0 0 0 1.36-2.22c.33-.85.5-1.8.5-2.85 0-1.04-.17-2-.5-2.88a6.58 6.58 0 0 0-1.4-2.27 5.95 5.95 0 0 0-2.18-1.44 6.86 6.86 0 0 0-2.76-.54 6.19 6.19 0 0 0-4.7 2.02 6.94 6.94 0 0 0-1.35 2.27c-.33.85-.5 1.8-.5 2.84 0 1.02.17 1.97.5 2.85.33.85.8 1.6 1.4 2.22.6.6 1.32 1.09 2.14 1.45.82.33 1.73.5 2.72.5ZM160.64 53.46a2.64 2.64 0 0 1 0-5.27h.2a2.64 2.64 0 1 1 0 5.27h-.2Z"/>
  <path stroke="#fff" stroke-linecap="round" stroke-width="2.5" d="M64 1.25h32A2.75 2.75 0 0 1 98.75 4v46A2.75 2.75 0 0 1 96 52.75H64A2.75 2.75 0 0 1 61.25 50V4A2.75 2.75 0 0 1 64 1.25Z"/>
  <path fill="#fff" d="M64.43 10V4.09h1.07v1.89c.2-.21.42-.36.62-.44.2-.09.46-.13.75-.13a2.06 2.06 0 0 1 1.6.67c.2.2.35.46.47.74.1.29.16.6.16.93 0 .34-.05.66-.16.95a2.05 2.05 0 0 1-2 1.4c-.33 0-.6-.05-.84-.15-.23-.1-.46-.27-.7-.52V10h-.97Zm2.31-.87a1.24 1.24 0 0 0 .93-.38c.11-.12.2-.26.27-.43a1.58 1.58 0 0 0 0-1.11 1.28 1.28 0 0 0-.28-.44 1.33 1.33 0 0 0-1.47-.28 1.2 1.2 0 0 0-.4.29 1.52 1.52 0 0 0-.36 1c0 .19.03.37.1.54.06.17.15.3.27.43.12.12.26.21.42.28.16.07.33.1.52.1ZM93.32 44.09h1.27l-1.41 2.1.23-.06a1.65 1.65 0 0 1 .9.13c.2.09.37.21.51.38.15.17.27.36.35.6a2.35 2.35 0 0 1-.03 1.6 1.96 1.96 0 0 1-1.87 1.26 2.01 2.01 0 0 1-1.49-.58 2.03 2.03 0 0 1-.59-1.46 2.49 2.49 0 0 1 .31-1.2c.08-.14.17-.3.28-.45l1.54-2.32Zm-.05 5.04a1 1 0 0 0 .39-.07.88.88 0 0 0 .5-.54c.04-.14.06-.28.06-.43 0-.16-.02-.3-.07-.43a.9.9 0 0 0-.2-.32 1.01 1.01 0 0 0-1.11-.22.95.95 0 0 0-.51.54 1.2 1.2 0 0 0-.07.43c0 .15.02.3.07.42s.12.23.2.33c.1.1.2.16.33.22.12.04.26.07.41.07Z"/>
  <circle cx="133" cy="27" r="25.75" stroke="#fff" stroke-width="2.5"/>
  <path fill="#fff" d="M148.37 10.31a22.61 22.61 0 0 0-14.44-5.99v5.65a17 17 0 0 1 10.45 4.33l3.99-3.99ZM132.07 9.97V4.32a22.62 22.62 0 0 0-14.44 5.99l4 4a16.99 16.99 0 0 1 10.44-4.34ZM120.3 15.62l-3.99-3.99a22.61 22.61 0 0 0-5.99 14.44h5.65a17 17 0 0 1 4.33-10.45ZM144.38 39.7a16.99 16.99 0 0 1-10.45 4.33v5.65a22.62 22.62 0 0 0 14.44-5.99l-4-4ZM150.03 26.07h5.65a22.62 22.62 0 0 0-5.99-14.44l-4 4a17 17 0 0 1 4.34 10.44ZM115.97 27.93h-5.65a22.62 22.62 0 0 0 5.99 14.44l4-4a17 17 0 0 1-4.34-10.44ZM150.03 27.93a17 17 0 0 1-4.33 10.45l3.99 3.99a22.62 22.62 0 0 0 5.99-14.44h-5.65ZM117.63 43.69a22.62 22.62 0 0 0 14.44 5.99v-5.65a17 17 0 0 1-10.45-4.33l-3.99 3.99ZM3.16 28.97l8.1-5.89c.68-.5.96-1.36.7-2.16l-3.1-9.53c-.25-.8-1-1.34-1.83-1.34H5.98a26.88 26.88 0 0 0-5.95 18.3l.85.62c.68.5 1.6.5 2.28 0ZM17.76 4.93l8.1 5.89c.68.5 1.6.5 2.28 0l8.1-5.89c.68-.5.96-1.37.7-2.16l-.32-1a26.93 26.93 0 0 0-19.24 0l-.32 1c-.26.8.02 1.67.7 2.16ZM21.5 50.29l-3.09-9.53c-.26-.8-1-1.34-1.84-1.34H6.55c-.84 0-1.58.54-1.84 1.34l-.32 1a27.05 27.05 0 0 0 15.56 11.3l.85-.61c.68-.5.96-1.37.7-2.16ZM47.45 39.42H37.43c-.84 0-1.58.54-1.84 1.34l-3.1 9.53c-.25.8.03 1.67.7 2.16l.86.62A27.05 27.05 0 0 0 49.6 41.76l-.32-1c-.26-.8-1-1.34-1.84-1.34ZM48.02 10.05h-1.05c-.83 0-1.58.54-1.84 1.34l-3.1 9.53c-.25.8.03 1.67.71 2.16l8.1 5.89c.68.5 1.6.5 2.28 0l.85-.62a26.89 26.89 0 0 0-5.95-18.3Z"/>
  <path stroke="#fff" stroke-linecap="round" stroke-linejoin="round" stroke-miterlimit="10" stroke-width="2.34" d="M27 1.17a25.83 25.83 0 1 1 0 51.66 25.83 25.83 0 0 1 0-51.66Z"/>
  <path fill="#fff" d="M72.02 31.07c0-1.24.26-2.3.78-3.18a6.18 6.18 0 0 1 2.4-2.22 7.58 7.58 0 0 1-1.44-1.98 5.41 5.41 0 0 1-.39-2.16 6.12 6.12 0 0 1 8.49-5.64 5.72 5.72 0 0 1 3.18 3.18c.32.74.48 1.54.48 2.4 0 .94-.15 1.75-.45 2.43-.3.68-.77 1.27-1.41 1.77a6.74 6.74 0 0 1 2.4 2.25c.48.82.72 1.86.72 3.12a7.4 7.4 0 0 1-2.1 5.25 7.27 7.27 0 0 1-5.25 2.1 7.27 7.27 0 0 1-7.41-7.32Zm7.44-7.14a2.05 2.05 0 0 0 1.59-.72 2.56 2.56 0 0 0 .66-1.74c0-.68-.22-1.24-.66-1.68a2.1 2.1 0 0 0-1.62-.69c-.64 0-1.18.24-1.62.72a2.44 2.44 0 0 0-.63 1.71c0 .34.06.66.18.96.12.28.28.53.48.75.2.22.44.39.72.51.28.12.58.18.9.18Zm-3.45 7.32a3.61 3.61 0 0 0 .99 2.49c.32.3.69.54 1.11.72a3.4 3.4 0 0 0 3.72-.72 3.69 3.69 0 0 0 .69-3.87 3.4 3.4 0 0 0-4.47-1.83c-.4.18-.75.43-1.05.75-.3.32-.54.69-.72 1.11a3.4 3.4 0 0 0-.27 1.35ZM132.7 15.33h4.77l-5.31 7.89c.34-.12.63-.2.87-.24a6.22 6.22 0 0 1 3.36.48c.76.34 1.41.82 1.95 1.44.56.62.99 1.36 1.29 2.22.3.86.45 1.8.45 2.82a8.8 8.8 0 0 1-.57 3.21c-.36.96-.88 1.8-1.56 2.52a7.37 7.37 0 0 1-5.46 2.22 8.4 8.4 0 0 1-3.12-.57 7.55 7.55 0 0 1-2.46-1.59 7.6 7.6 0 0 1-2.19-5.49 9.3 9.3 0 0 1 1.17-4.53c.28-.52.62-1.08 1.02-1.68l5.79-8.7Zm-.18 18.9c.52 0 1-.09 1.44-.27a3.28 3.28 0 0 0 1.86-2.04 4.5 4.5 0 0 0 .27-1.59 4.5 4.5 0 0 0-.27-1.59 3.4 3.4 0 0 0-.78-1.23 3.8 3.8 0 0 0-4.17-.81 3.58 3.58 0 0 0-1.89 2.04 4.5 4.5 0 0 0-.27 1.59c0 .58.09 1.11.27 1.59.2.46.46.87.78 1.23.34.34.74.61 1.2.81.48.18 1 .27 1.56.27ZM19.12 37V14.83h3.99v7.08a7.76 7.76 0 0 1 2.34-1.65 7.42 7.42 0 0 1 2.82-.48c1.2 0 2.31.22 3.33.66a7.72 7.72 0 0 1 2.64 1.86 8.2 8.2 0 0 1 1.77 2.79c.42 1.06.63 2.22.63 3.48 0 1.28-.2 2.46-.6 3.54a8.32 8.32 0 0 1-1.68 2.79 7.82 7.82 0 0 1-5.82 2.49 8 8 0 0 1-3.18-.57 8.13 8.13 0 0 1-2.58-1.95V37h-3.66Zm8.67-3.27a4.63 4.63 0 0 0 3.48-1.41c.42-.46.75-1 .99-1.62a5.7 5.7 0 0 0 .36-2.07c0-.76-.12-1.46-.36-2.1a4.79 4.79 0 0 0-1.02-1.65 5 5 0 0 0-5.52-1.05 4.5 4.5 0 0 0-1.5 1.08 5.7 5.7 0 0 0-1.35 3.72c0 .74.12 1.43.36 2.07.24.62.58 1.16 1.02 1.62.44.44.96.79 1.56 1.05.6.24 1.26.36 1.98.36Z"/>
</svg>
