<svg width="841" height="96" viewBox="0 0 841 96" fill="none" xmlns="http://www.w3.org/2000/svg">
<path fill-rule="evenodd" clip-rule="evenodd" d="M304.698 0.730469C278.218 0.730469 253.22 21.9041 248.863 48.023C244.506 74.142 262.441 95.3156 288.92 95.3156H349.591C376.071 95.3156 401.069 74.142 405.426 48.023C409.783 21.9041 391.848 0.730469 365.369 0.730469H304.698ZM358.956 12.8999C339.29 12.8999 320.724 28.625 317.489 48.0229C314.253 67.4207 327.572 83.1458 347.238 83.1458H348.137C367.803 83.1458 386.368 67.4207 389.604 48.0229C392.84 28.625 379.52 12.8999 359.855 12.8999H358.956Z" fill="#3EF2D1"/>
<path d="M0.0605469 82.5535L13.2991 14.4424H53.2064C59.346 14.4424 64.3984 15.8174 68.3636 18.5674C72.3927 21.2535 74.4072 25.5064 74.4072 31.3263C74.4072 35.0996 73.256 38.4572 70.9537 41.399C68.7153 44.3409 65.7734 46.2915 62.128 47.2509C67.4362 50.2567 70.0903 55.0213 70.0903 61.5446C70.0903 65.126 69.3868 68.3237 67.9798 71.1377C66.5728 73.8877 64.6542 76.0942 62.224 77.757C59.7937 79.3558 57.1076 80.571 54.1657 81.4024C51.2238 82.1698 48.0581 82.5535 44.6686 82.5535H0.0605469ZM47.8343 29.6954H29.4155L27.4009 39.9601H46.875C51.5436 39.9601 53.8779 38.0415 53.8779 34.2042C53.8779 31.1984 51.8634 29.6954 47.8343 29.6954ZM43.0377 55.2131H24.4271L22.1247 67.3005H41.8865C47.6424 67.3005 50.5204 65.0301 50.5204 60.4894C50.5204 56.9719 48.0261 55.2131 43.0377 55.2131Z" fill="#FAFBFF"/>
<path d="M76.3873 82.5535L89.6258 14.4424H147.76L144.69 30.1751H106.03L104.303 39.1926H127.327L124.161 55.3091H101.138L99.123 65.9574H141.525L138.263 82.5535H76.3873Z" fill="#FAFBFF"/>
<path d="M151.247 31.2303L154.509 14.4424H222.716L219.359 31.2303H194.992L185.015 82.5535H165.637L175.614 31.2303H151.247Z" fill="#FAFBFF"/>
<path d="M488.357 14.4424L475.023 83.0332H458.714L434.444 40.5357L426.29 82.5535H407.199L420.438 14.4424H442.214L462.552 51.5678L469.746 14.4424H488.357Z" fill="#FAFBFF"/>
<path d="M593.331 41.3033L586.712 75.3589C583.067 78.1089 578.782 80.2194 573.857 81.6904C568.997 83.1613 564.136 83.8968 559.276 83.8968C548.212 83.8968 539.386 81.0508 532.799 75.3589C526.212 69.667 522.918 61.5448 522.918 50.9924C522.918 39.7365 526.627 30.591 534.046 23.5561C541.529 16.4572 550.866 12.9077 562.058 12.9077C568.389 12.9077 574.145 14.0589 579.326 16.3612C584.57 18.6636 588.503 22.309 591.125 27.2974C592.34 29.7916 593.076 31.966 593.331 33.8207H572.706C572.195 33.3091 571.747 32.8934 571.363 32.5736C571.107 32.3817 570.34 31.9341 569.061 31.2306C566.567 30.2073 563.913 29.6957 561.099 29.6957C555.407 29.6957 550.866 31.7102 547.476 35.7393C544.151 39.7045 542.488 44.533 542.488 50.2249C542.488 55.5971 543.959 59.8181 546.901 62.8879C549.907 65.8937 554.032 67.3966 559.276 67.3966C561.514 67.3966 563.369 67.2687 564.84 67.0129C566.311 66.821 567.942 66.4693 569.732 65.9577L571.459 56.9401H552.848L555.918 41.3033H593.331Z" fill="#FAFBFF"/>
<path d="M647.574 82.5538L645.271 72.7688H615.629L609.969 82.5538H589.248L630.21 14.0589H651.219L667.623 82.5538H647.574ZM624.838 56.8442H641.626L636.734 36.1231L624.838 56.8442Z" fill="#FAFBFF"/>
<path d="M712.964 14.4426L719.584 52.5273L740.88 14.4426H769.66L756.421 82.5538H737.427L746.444 36.0271L720.447 82.9375H707.592L700.014 36.5068L691.092 82.5538H673.249L686.487 14.4426H712.964Z" fill="#FAFBFF"/>
<path d="M769.626 82.5538L782.865 14.4426H840.999L837.929 30.1753H799.269L797.542 39.1929H820.565L817.4 55.3093H794.376L792.362 65.9577H834.763L831.502 82.5538H769.626Z" fill="#FAFBFF"/>
</svg>
