<svg xmlns="http://www.w3.org/2000/svg" fill="none" viewBox="0 0 149 66"><path fill="#fff" d="M7.7 10.4s8-7.5 12-7.8c3.9-.3 9.4-1.5 14.4 2L40 1.9c1.8-.7 3.9-.7 5.8 0 3 1.2 11.9 1 11.9 1l7.4-1.5h1c1 .1 1.2-.1 3 .4 2.7.8 20.8 0 20.8 0s10 0 17.2-1.5a7 7 0 0 1 4.2 0c1.8.7 4.5 1.4 6.4 1.3 3.2-.3 31-1 31-1l-.2 17.2-6.7 5.1-1 29.9s-5.6 2.1-11 14.2l-2-7.2-7.8-1.1-.4-.9-.8.7-18.2.3-.8-1-3.4 6-1.8-5.3-3.6 8.1-1.8-7a2.6 2.6 0 0 0-2.2-1.3l-9.6.5s-1.4 0-1.4-.7c0-.5-4.7 7.6-4.7 7.6l-3.2-7-14.8.1c-3.7-.3-7.5-.2-11.2.3l-1.1-.4-3.7 1.6s-.6.8-3.3-1.4c0 0-3-.2-4-2 0 0-5.8 3.6-8 4l-1.2-.2L18 67l-2.7-6.4-1.8-1-3.6 6.6L8 55.3S.5 48.1.7 46.5c.3-1.7.5-4.3.5-4.3s0-2.2 1.6-5.1c1.7-3 2-8 2-8s-2.8-2.3 1-6.3l1.8-12.3.1-.1Z"/><path fill="url(#a)" d="M8.3 10.6s7.8-7.2 12-7.2c4.3 0 9-1.6 13.7 2.3l8-2.6s1.1.8 11.5.4C63.9 3.2 76 3.1 76 3.1s17-.9 23.6-.4c6.6.5 13-1.1 17.2-.6 4.2.5 13.8-.1 13.8-.1s14.6-1.4 16.8 0c0 0 .9 10.5-.2 13.5s-4.3 5-4.3 5l-1.6.4-1.2 11.9s.4 1.8.3 5.5l-.4 13.4-1.9 1c-1.6 1-4.6 5-4.6 5l-3.4 5.9-1.4-5.5s-1.1.7-3.8.3c-2.7-.4-4.6-.5-4.7-1.2 0-.7-1.5.2-1.5.2l-16.6.3-2.5-1-2.9 4.7c-.1.1-1.5-3.8-1.5-3.8s-.7-.7-1.3-.3c-.7.5-2.9 6.7-2.9 6.7s-1-5.9-2.4-6.3c-1.4-.4-10 .7-11 0l-1.8-.9-4.4 6-3.3-5.9a6 6 0 0 1-1.8 1c-1 .2-17.8-.3-17.8-.3s-3.9.1-5.7.6l-1.2-.7-4.9 2-2.6-1.6s-2 .5-4-2c0 0-5 2.7-6.7 2.8-1.6 0-2.1.5-2.1.5l-1.7-.5-1.5 6.1-2.3-5.9s-2.1-.1-3.1-.9L10 63.4 9 54l-.6-1.7-.3 1.9s-6.3-6.4-6-7.6l3.6-16.8S5 27.9 5 27c0-1 0-2.5 1.8-3.6l1.5-12.8Z"/><path fill="url(#b)" d="M11 11.2 19.3 5l10-.1 5.2 4.6 5.8-4.4h10.6l1.5.8V5l31.7-.6 1.1.9.1-.8 17.4-.3 2 1v-.8L146 3l-.5 12.5-3.4 2.9h-3l-1.5 32.8-4.3 3.8-10.3.5-.6-1.4-1 1.3-18.7-.3-.1-1.5-2 1.3-16.3.3-.9-1.2-1 1-33.5.5-.4-.8-2 1.1H33l-3.2-3.3-7.2 4-9-.2-9.2-11L11 11.1v.1Z"/><path fill="#fff" d="m9.8 29.4 8.3-3 2.3-12.2 5-.1-1.3 9.6s5-1.2 7.7-1l1.6-11-4.8-4.9-8-.2-6.9 4.8-4 18h.1ZM9.5 32l8.2-4.2-3 14.8.5.6 4.7-.1 1.8-9.2s6.3.3 7.6-.1L27.6 45l-7 5.6-8.8-.2-4.7-5.6 2.4-12.7V32ZM54.4 6.9h9L58.8 42l6.5-.2-.7 7.6H50.3l.5-1.5 5.4-37.1.5-1.3-2.2-2.7-.1.1ZM107 5.8l16.8-.1-.7 7-6.7.4-.8 9 7.1.1v8.3l-1.5-.9-6 .2-.9 11.8h6.8l1.4-.6v8.5l-16.7.3 1.4-4 1.5-21.2 3.4-3.8-3.5 1.9 1-13.6-2.5-3.3h-.1Zm18.3-.5 18-.6-.3 8.3h-5.8l-1.9 36.7H128l1.2-22.1 6-5.8-6 3.3.6-12.4-5.2.1.7-7.5Zm-37.3 6-4.6-4.8-14.7.1 2.2 2.8L66 49.6l13.4-.1 5.7-4.8 3-33.4H88ZM78.4 42l-4.6.1 3.4-28.4h3l.9.8L78.4 42ZM49.2 6.9l-8 .1-6.2 4.6-2.3 15-2.3 2.4 6.7-2.4c-3.8 2.5-5.6 4.9-5.6 4.9l-2.2 13.1 5 5.6h9l6-5 4.6-33.6-4.7-4.7Zm-3.9 13.8-3.3 22-5-.2 4.7-28.3 4.5-.1-.9 6.6Z"/><path fill="#fff" d="m106 30.7-3.5-4.5 4.3-3.5.8-12-5.3-4.6H87.5l2.6 3.3-1.4 10.8 7.3-1.7-7 4.7-2.7 26.3 13.8-.3 5.4-4.8.6-13.7h-.1Zm-9.3-17.2h3.8l-.7 8.7-1.4.8-2.6-.2 1-9.3h-.1Zm-2.4 28.4 1-11.4 2.6.2 1.3 1.2-.7 10.2-4.2-.2Z"/><path fill="url(#c)" d="m32.8 31.2 1-.6 4.1-.2-2.2 12.8.6.7 6 .2.9-1L45 30.2l5.1-.1-2 14.3-5.6 4.4h-7.4l-4.3-4.4 2-13.2Z"/><path fill="url(#d)" d="m10.6 32.8 5.4-2.5L13.4 43l1.2 1.4h5.7l.7-.3 1.6-8.9 5.3-.1-1.3 9.2-6.7 5.1-7.3-.3-4.3-5 2.3-11.4v.1Z"/><path fill="url(#e)" d="M54.5 30h4.8l-1.9 13.5h6.4l-.5 5-11.6-.1 2.8-18.3V30Z"/><path fill="url(#f)" d="m69.5 30 4.4-.2-1.5 13.6H78l1.3-1.3 1.3-12.6h4.8L84 43.8l-5.3 4.5H67.4l2-18.4.1.1Z"/><path fill="url(#g)" d="M89.5 29.8h4.8l-1.3 13 5.8.2.8-.5.8-10.7-1.6-2.3 4.3.2 1.7 1.8-.5 12-4.8 4.1-11.8.4 1.8-18.2Z"/><path fill="url(#h)" d="m109.8 29.5 4.2-.1-1 13.7h8.2l-.3 4.9-12.9.2.8-3.8 1-15v.1Z"/><path fill="url(#i)" d="M131 29h3.9l-.9 19h-4l1-19Z"/><path fill="url(#j)" d="m12.7 52.3 8.4.3 7-5.2.3 2.9-6 4.4-7.7-.3-2-2.1Z"/><path fill="url(#k)" d="m29.2 47 5 5.1 9.3.2 5.4-4.4-.2 2.1-3.8 3.3-11.4-.2-4.3-6V47Z"/><path fill="url(#l)" d="M50.2 50.9h14l-.2 1.9-13-.2-.8-1.7Z"/><path fill="url(#m)" d="M66.3 51h13.5l5-4.2-4 5.7H67.1l-.8-1.4V51Z"/><path fill="url(#n)" d="m86.3 51.1 14-.3 4.6-4-4.5 5.7-14 .1-.1-1.5Z"/><path fill="url(#o)" d="m105.7 51.2-.7 2.2 15.5-.2 1.8-2.3-16.6.3Z"/><path fill="url(#p)" d="m127 51.3 8 .1-1.9 1.9h-7.6l1.6-2h-.1Z"/><path fill="url(#q)" d="m64.5 7.9 1.1 1.5-4.3 31.5h-1.2l4.4-33Z"/><path fill="url(#r)" d="m21 14.8 1.6 1L17.7 42h-1.9l5.3-27.2H21Z"/><path fill="url(#s)" d="m42.5 15 1.2 1.4-4 24.6-1.7.9 4.5-26.8V15Z"/><path fill="url(#t)" d="m77.8 14.8 1 1.4-3 24.8-1 .5 3-26.7Z"/><path fill="url(#u)" d="m97.6 14.4-.8 7.4 1.1-.3.5-6.7-.8-.4Z"/><path fill="url(#v)" d="m96 31.3-.8 9.6 1.1-.8.6-8-1-.8h.1Z"/><path fill="url(#w)" d="M116.6 31.3V33l4.9.1-.2-1.8-4.7-.1v.1Z"/><path fill="url(#x)" d="M118.3 14.7h10l-.5 10.7-1.3 1 .3-9.4-8.7-.1.2-2.2Z"/><path fill="url(#y)" d="m126.1 28.9 1.4-.7-1.3 22.2-1.3 1.8 1.2-23.3Z"/><defs><linearGradient id="b" x1="80.6" x2="70" y1="-5.9" y2="65.6" gradientUnits="userSpaceOnUse"><stop stop-color="#00507C"/><stop offset="1" stop-color="#03091F"/></linearGradient><linearGradient id="c" x1="41.4" x2="38.8" y1="31.6" y2="49.5" gradientUnits="userSpaceOnUse"><stop stop-color="#50E0EF"/><stop offset="1" stop-color="#208AC2"/></linearGradient><linearGradient id="d" x1="19.3" x2="16.5" y1="31.5" y2="50.6" gradientUnits="userSpaceOnUse"><stop stop-color="#50E0EF"/><stop offset="1" stop-color="#208AC2"/></linearGradient><linearGradient id="e" x1="60.3" x2="57.4" y1="30.9" y2="50.1" gradientUnits="userSpaceOnUse"><stop stop-color="#50E0EF"/><stop offset="1" stop-color="#208AC2"/></linearGradient><linearGradient id="f" x1="78.1" x2="75" y1="29.2" y2="50.4" gradientUnits="userSpaceOnUse"><stop stop-color="#50E0EF"/><stop offset="1" stop-color="#208AC2"/></linearGradient><linearGradient id="g" x1="98" x2="95.3" y1="31.7" y2="49.4" gradientUnits="userSpaceOnUse"><stop stop-color="#50E0EF"/><stop offset="1" stop-color="#208AC2"/></linearGradient><linearGradient id="h" x1="116.7" x2="114.2" y1="32.5" y2="49.4" gradientUnits="userSpaceOnUse"><stop stop-color="#50E0EF"/><stop offset="1" stop-color="#208AC2"/></linearGradient><linearGradient id="i" x1="134.1" x2="131.6" y1="31.5" y2="48.6" gradientUnits="userSpaceOnUse"><stop stop-color="#50E0EF"/><stop offset="1" stop-color="#208AC2"/></linearGradient><linearGradient id="j" x1="19.6" x2="24.5" y1="49.1" y2="60.9" gradientUnits="userSpaceOnUse"><stop stop-color="#003954"/><stop offset=".8" stop-color="#0077D4"/></linearGradient><linearGradient id="k" x1="36.7" x2="46.3" y1="42.8" y2="65.9" gradientUnits="userSpaceOnUse"><stop stop-color="#003954"/><stop offset=".8" stop-color="#0077D4"/></linearGradient><linearGradient id="l" x1="55.7" x2="61.5" y1="48.3" y2="62.2" gradientUnits="userSpaceOnUse"><stop stop-color="#003954"/><stop offset=".8" stop-color="#0077D4"/></linearGradient><linearGradient id="m" x1="74.6" x2="80.3" y1="47.4" y2="61" gradientUnits="userSpaceOnUse"><stop stop-color="#003954"/><stop offset=".8" stop-color="#0077D4"/></linearGradient><linearGradient id="n" x1="94.6" x2="100" y1="47.6" y2="60.8" gradientUnits="userSpaceOnUse"><stop stop-color="#003954"/><stop offset=".8" stop-color="#0077D4"/></linearGradient><linearGradient id="o" x1="112" x2="118.2" y1="48.4" y2="63.3" gradientUnits="userSpaceOnUse"><stop stop-color="#003954"/><stop offset=".8" stop-color="#0077D4"/></linearGradient><linearGradient id="p" x1="129.5" x2="132.9" y1="50.8" y2="58.9" gradientUnits="userSpaceOnUse"><stop stop-color="#003954"/><stop offset=".8" stop-color="#0077D4"/></linearGradient><linearGradient id="q" x1="53.2" x2="77.1" y1="2.4" y2="59.7" gradientUnits="userSpaceOnUse"><stop stop-color="#003954"/><stop offset=".8" stop-color="#0077D4"/></linearGradient><linearGradient id="r" x1="12.9" x2="32.3" y1="14.9" y2="61.6" gradientUnits="userSpaceOnUse"><stop stop-color="#003954"/><stop offset=".8" stop-color="#0077D4"/></linearGradient><linearGradient id="s" x1="34.7" x2="53.5" y1="15.2" y2="60.4" gradientUnits="userSpaceOnUse"><stop stop-color="#003954"/><stop offset=".8" stop-color="#0077D4"/></linearGradient><linearGradient id="t" x1="70.8" x2="89.8" y1="14.8" y2="60.7" gradientUnits="userSpaceOnUse"><stop stop-color="#003954"/><stop offset=".8" stop-color="#0077D4"/></linearGradient><linearGradient id="u" x1="96.1" x2="101.5" y1="14.8" y2="27.9" gradientUnits="userSpaceOnUse"><stop stop-color="#003954"/><stop offset=".8" stop-color="#0077D4"/></linearGradient><linearGradient id="v" x1="93.9" x2="100.9" y1="31.7" y2="48.5" gradientUnits="userSpaceOnUse"><stop stop-color="#003954"/><stop offset=".8" stop-color="#0077D4"/></linearGradient><linearGradient id="w" x1="118.4" x2="121.4" y1="31" y2="38.2" gradientUnits="userSpaceOnUse"><stop stop-color="#003954"/><stop offset=".8" stop-color="#0077D4"/></linearGradient><linearGradient id="x" x1="119.6" x2="130.9" y1="7" y2="34.1" gradientUnits="userSpaceOnUse"><stop stop-color="#003954"/><stop offset=".8" stop-color="#0077D4"/></linearGradient><linearGradient id="y" x1="118.3" x2="135.5" y1="21.2" y2="62.6" gradientUnits="userSpaceOnUse"><stop stop-color="#003954"/><stop offset=".8" stop-color="#0077D4"/></linearGradient><radialGradient id="a" cx="0" cy="0" r="1" gradientTransform="translate(74.9 33.1) scale(56.1833)" gradientUnits="userSpaceOnUse"><stop stop-color="#fff"/><stop offset=".8" stop-color="#45E6FF"/></radialGradient></defs></svg>