<svg width="330" height="144" viewBox="0 0 330 144" fill="none" xmlns="http://www.w3.org/2000/svg">
<path d="M322.35 75.51L304.5 124.52H284.33L302.17 75.51H322.35Z" fill="#02F56A"/>
<path d="M329.23 56.6299L325.17 67.8799H305L309.06 56.6299H329.23Z" fill="#02F56A"/>
<path d="M314.85 18.88L310.71 30.26H262.48L252.91 56.64H276.96L272.82 67.89H237.95C233.47 67.89 230.34 63.43 231.87 59.21L253.43 0H273.47L266.62 18.88H314.85Z" fill="#02F56A"/>
<path d="M294.16 75.51L290.15 86.76H249.93C245.12 86.76 240.83 89.77 239.19 94.28L228.22 124.51H208.18L222.41 85.43C224.58 79.47 230.24 75.51 236.58 75.51H294.16Z" fill="#02F56A"/>
<path d="M140.72 18.8899H94L89.9899 30.2699H130.12C133.33 30.2699 135.72 32.8999 135.72 35.8699C135.72 36.4899 135.61 37.1199 135.38 37.7699H91.6699C88.9499 37.7699 86.5299 39.4699 85.5999 42.0199L79.33 59.2099C77.8 63.4299 80.9 67.8899 85.41 67.8899H133.87C140.21 67.8899 145.88 63.9199 148.04 57.9699L154.9 39.1399C158.48 29.2899 151.19 18.8899 140.72 18.8899ZM125.48 56.6399H103.52C102.03 56.6399 100.99 55.1699 101.49 53.7599L102.67 50.4399C102.98 49.5799 103.79 49.0099 104.7 49.0099H131.24L129.54 53.7699C128.93 55.4999 127.3 56.6399 125.48 56.6399Z" fill="#02F56A"/>
<path d="M196.47 75.48H149.75L145.74 86.86H185.87C189.08 86.86 191.47 89.49 191.47 92.46C191.47 93.08 191.36 93.71 191.13 94.36H147.42C144.7 94.36 142.28 96.06 141.35 98.61L135.08 115.8C133.55 120.02 136.65 124.48 141.16 124.48H189.62C195.96 124.48 201.63 120.51 203.79 114.56L210.65 95.73C214.23 85.88 206.94 75.48 196.47 75.48ZM181.23 113.23H159.27C157.78 113.23 156.74 111.76 157.24 110.35L158.42 107.03C158.73 106.17 159.54 105.6 160.45 105.6H186.99L185.29 110.36C184.68 112.09 183.06 113.23 181.23 113.23Z" fill="#02F56A"/>
<path d="M104.94 113.15H85.95C82.95 113.15 80.87 110.17 81.9 107.35L88.43 89.59C89.05 87.89 90.67 86.77 92.48 86.77H111.38C114.37 86.77 116.45 89.74 115.43 92.55L108.99 110.31C108.37 112.01 106.75 113.15 104.94 113.15ZM69.83 85.45L48.74 143.4H68.78L75.63 124.52H113.3C119.64 124.52 125.31 120.55 127.47 114.6L134.33 95.77C137.91 85.93 130.63 75.52 120.16 75.52H84C77.66 75.52 71.99 79.49 69.83 85.45Z" fill="#02F56A"/>
<path d="M85.98 18.8801L81.97 30.2601H41.31C36.76 30.2601 32.71 33.1001 31.18 37.3701L31.03 37.7601H63.1L58.96 49.0001H26.89L20.04 67.8801H0L14.22 28.8001C16.39 22.8401 22.05 18.8701 28.4 18.8701H85.98V18.8801Z" fill="#02F56A"/>
<path d="M152.44 67.8799L156.58 56.6299H196.71C201.56 56.6299 205.89 53.5799 207.52 48.9999H168.53C164.04 48.9999 160.92 44.5399 162.46 40.3199L166.15 30.2099C168.63 23.4099 175.1 18.8799 182.35 18.8799H238.56L234.42 30.2599H194.34C189.51 30.2599 185.19 33.2499 183.47 37.7599H222.46C226.95 37.7599 230.07 42.2199 228.53 46.4399L224.32 57.9699C222.15 63.9199 216.49 67.8899 210.15 67.8899H152.44V67.8799Z" fill="#02F56A"/>
</svg>
