<svg width="735" height="303" viewBox="0 0 735 303" fill="none" xmlns="http://www.w3.org/2000/svg">
<path d="M336.799 68.601V71.7057H350.945V90.4633H336.799V151.178H318.211V90.4633H312.949V71.7057H318.254V68.1698C318.254 48.9809 329.338 38.8906 350.384 38.8906H350.988V55.2335C341.586 55.5784 336.842 60.0199 336.842 68.601H336.799Z" fill="black"/>
<path d="M438.409 65.3252V108.36C438.409 132.033 420.252 151.308 397.912 151.308C375.572 151.308 357.415 132.033 357.415 108.36V65.4977H376.132V108.403C376.132 121.771 385.879 132.637 397.912 132.637C409.945 132.637 419.692 121.771 419.692 108.403V65.3252H438.409Z" fill="black"/>
<path d="M529.194 108.145V151.05H510.476V108.145C510.476 94.7773 500.729 83.9108 488.696 83.9108C476.664 83.9108 466.917 94.7773 466.917 108.145V151.18H448.199V108.145C448.199 84.4714 466.356 65.1963 488.696 65.1963C511.037 65.1963 529.194 84.4714 529.194 108.102V108.145Z" fill="black"/>
<path d="M616.138 38.7617V149.669H597.593V146.607C591.685 150.143 584.913 152.17 577.711 152.17C555.371 152.17 537.214 132.895 537.214 109.221C537.214 85.548 555.371 66.316 577.711 66.316C584.913 66.316 591.728 68.2996 597.593 71.8355V38.7617H616.138ZM597.593 109.135C597.593 109.135 597.593 109.092 597.593 109.049C597.593 108.445 597.593 107.798 597.507 107.108C597.507 106.764 597.464 106.462 597.421 106.117C597.421 105.901 597.377 105.685 597.334 105.47C597.032 103.271 596.515 101.115 595.695 99.1311C593.625 93.5685 589.528 88.049 582.455 85.893C580.989 85.4186 579.436 85.1168 577.797 85.0305C577.797 85.0305 577.711 85.0305 577.668 85.0305C577.625 85.0305 577.539 85.0305 577.495 85.0305C577.237 85.0305 576.978 85.0305 576.719 85.0305C576.547 85.0305 576.331 85.0305 576.158 85.0305C575.641 85.0305 575.167 85.0305 574.649 85.1168C574.606 85.1168 574.563 85.1168 574.52 85.1168C571.759 85.4186 569.129 86.4104 566.8 87.8765C566.8 87.8765 566.713 87.9196 566.713 87.9628C566.196 88.3077 565.721 88.6096 565.247 88.9977C564.859 89.2995 564.514 89.6014 564.169 89.9032C564.039 90.0326 563.91 90.1188 563.781 90.2482C558.994 94.6896 555.888 101.546 555.888 109.221C555.888 109.221 555.888 109.265 555.888 109.308C555.888 122.158 564.557 132.636 575.425 133.412C575.857 133.412 576.288 133.499 576.719 133.499C576.849 133.499 576.978 133.499 577.107 133.499C577.28 133.499 577.452 133.499 577.625 133.499C578.013 133.499 578.358 133.412 578.746 133.369C578.746 133.369 578.789 133.369 578.832 133.369C582.843 132.981 586.121 131.342 588.752 128.971C594.013 124.572 597.464 117.414 597.464 109.265C597.464 109.265 597.464 109.221 597.464 109.178L597.593 109.135Z" fill="black"/>
<path d="M628.301 49.5851C628.301 43.5913 633.175 38.7617 639.126 38.7617C645.078 38.7617 649.952 43.6344 649.952 49.5851C649.952 55.5358 645.078 60.4085 639.126 60.4085C633.175 60.4085 628.301 55.5358 628.301 49.5851ZM629.811 151.178V65.1949H648.356V151.221H629.811V151.178Z" fill="black"/>
<path d="M706.536 108.186L735 151.178H712.531L695.279 125.133L678.028 151.178H655.559L684.023 108.186L655.559 65.1514H677.985L695.279 91.2396L712.574 65.1514H735L706.536 108.186Z" fill="black"/>
<path d="M246.189 0.00292969H239.607V72.3373H246.189L270.124 36.1701L246.189 0.00292969Z" fill="url(#paint0_linear_3837_674)"/>
<path d="M93.3211 61.0361H81.3762V188.752H93.3211L136.757 124.894L93.3211 61.0361Z" fill="url(#paint1_linear_3837_674)"/>
<path d="M154.552 2.00195H137V188.489H154.552L218.376 95.2455L154.552 2.00195Z" fill="url(#paint2_linear_3837_674)"/>
<defs>
<linearGradient id="paint0_linear_3837_674" x1="254.865" y1="0.00292969" x2="254.865" y2="71.7346" gradientUnits="userSpaceOnUse">
<stop stop-color="#2B79FF"/>
<stop offset="1" stop-color="#1A4899"/>
</linearGradient>
<linearGradient id="paint1_linear_3837_674" x1="109.067" y1="61.0361" x2="109.067" y2="187.687" gradientUnits="userSpaceOnUse">
<stop stop-color="#2B79FF"/>
<stop offset="1" stop-color="#1A4899"/>
</linearGradient>
<linearGradient id="paint2_linear_3837_674" x1="177.688" y1="2.00195" x2="177.688" y2="186.935" gradientUnits="userSpaceOnUse">
<stop stop-color="#2B79FF"/>
<stop offset="1" stop-color="#1A4899"/>
</linearGradient>
</defs>
</svg>
