<svg xmlns="http://www.w3.org/2000/svg" xml:space="preserve" id="Слой_1" x="0" y="0" style="enable-background:new 0 0 337.1 65.87" version="1.1" viewBox="0 0 337.1 65.87"><style>.st1{fill:#fff}.st4{fill:#33ff0c}</style><path d="M0 7.83h40.54v15.95h-18.6V29h18.6v15.38h-18.6v19.8H0V7.83zM67.44 40.76c0 7.72 1.87 11.57 5.61 11.57 1.88 0 2.98-.92 3.28-2.75.09-.56.14-1.19.14-1.87V20.32h20.96v43.86H85.85l-5.04-6.88c-2.99 4.07-7.31 6.72-12.95 7.94-6.92 1.48-12.49.31-16.73-3.53-3.2-2.89-4.8-6.72-4.8-11.47V20.32h21.1v20.44z" class="st4"/><path d="M207.5 11.61c-2.26-1.84-5.13-3.19-8.63-4.06-3.49-.87-8.23-1.31-14.2-1.31s-14.8.58-26.47 1.73v9.62c1.27.62 2.46 1.34 3.49 2.27 3.12 2.82 4.68 6.61 4.68 11.36v32.97h14.88v-10.2l6.28.14c3.67 0 7.12-.61 10.34-1.83s6.03-2.93 8.43-5.12c2.4-2.19 4.29-4.81 5.68-7.87 1.39-3.06 2.08-6.42 2.08-10.09 0-8.17-2.19-14.03-6.56-17.61zm-11.85 20.92c-1.08 1.22-2.99 2.51-5.72 3.85l-4.13 2.01v-13.3c3.91-2.8 6.87-4.2 8.89-4.2.63 0 1.2.12 1.69.35 1.53.73 2.29 2.22 2.29 4.48s-1 4.53-3.02 6.81z" class="st1"/><path d="M129.65 32.25c-1.88 0-2.82 1.52-2.82 4.55v27.38h-20.96V20.32h11.57l5.05 6.85c1.88-2.61 4.49-4.68 7.82-6.21 3.33-1.53 6.44-2.29 9.33-2.29 5.32 0 9.53 1.41 12.65 4.23 3.12 2.82 4.68 6.61 4.68 11.36v29.92h-21.1V43.01c-.01-7.17-2.08-10.76-6.22-10.76z" class="st4"/><path d="M222.44 60.29c-1.88-1.75-3.38-3.96-4.5-6.63s-1.68-5.55-1.68-8.63c0-3.08.31-5.75.92-8.01 1.22-4.49 3.36-8.27 6.42-11.33 1.46-1.51 3.08-2.77 4.87-3.81 3.67-2.14 7.54-3.21 11.63-3.21 4.08 0 7.66 1.35 10.74 4.06.99.87 1.85 1.87 2.58 3l5.04-5.4h11.57v43.86h-11.57l-5.04-7.31c-3.86 5.69-9.7 8.55-17.54 8.57-2.17.02-4.48-.39-6.93-1.25-2.46-.85-4.63-2.16-6.51-3.91zm28.58-26.66c-.85-.5-1.86-.74-3.03-.74-1.18 0-2.42.42-3.72 1.25a14.76 14.76 0 0 0-3.51 3.16c-2.3 2.85-3.46 5.74-3.46 8.68 0 2.07.63 3.53 1.91 4.37 1.18.78 2.97.67 5.38-.34 2.41-1 4.56-2.3 6.44-3.9V33.63zM309.84 36.87c-2.16 0-4.39.79-6.67 2.36-2.28 1.58-3.43 3.07-3.46 4.48v20.47h-21.24V20.32h21.24v4.69c1.2-1.81 2.69-3.26 4.46-4.34s3.66-1.73 5.66-1.94v18.14zM326.94 0c3.45 0 6 .72 7.68 2.17 1.67 1.45 2.5 3.29 2.49 5.52-.01 2.24-1.08 4.29-3.21 6.18-2.13 1.88-4.97 2.82-8.52 2.82-4.99 0-8.09-1.51-9.32-4.52-.35-.85-.53-1.79-.53-2.82s.25-2.12.74-3.25 1.23-2.14 2.22-3.04C320.68 1.02 323.5 0 326.94 0zm9.55 64.19h-20.43V20.32h20.43v43.87z" class="st1"/></svg>