<svg xmlns="http://www.w3.org/2000/svg" fill="none" viewBox="0 0 328 50"><path fill="#FF0144" d="m63.6 0-4.87 7.5L53.87 0 49 7.5 44.1 0v9.97s8.86-3.74 19.5-.02V0ZM88.64 22.36c1.33 0 2.33.32 3.03.96.7.65 1.04 1.5 1.04 2.57 0 1.06-.34 1.92-1.04 2.56-.7.65-1.7.97-3.03.97h-4.01v-7.07h4.01Zm4.9 27.49h10.98L94.44 35.5c.67-.2 1.3-.43 1.9-.7a10.53 10.53 0 0 0 4.38-3.63 9.45 9.45 0 0 0 1.58-5.43c0-2.06-.52-3.87-1.55-5.42a10.44 10.44 0 0 0-4.26-3.63c-1.8-.87-3.9-1.3-6.29-1.3H74.96v34.46h9.68V36.1h.13l8.77 13.75ZM122.1 36.49l3.6-10.7 3.52 10.7h-7.13Zm11.52 13.36h10.06l-12.97-34.46h-9.87l-13.12 34.46h9.88l1.95-5.8h12.16l1.9 5.8ZM167.74 15.39v18.24L153.2 15.4h-6.77v34.46h9.68V32.2l14.04 17.64h7.25V15.39h-9.67ZM205.4 37.6a6.83 6.83 0 0 1-3.06 3.03c-1.32.66-2.88.99-4.69.99h-4.84v-18h4.84c1.8 0 3.36.33 4.67.99a7.06 7.06 0 0 1 3.05 2.97 10.27 10.27 0 0 1 1.09 4.98c0 2-.35 3.68-1.06 5.04m9.55-12.07a15.7 15.7 0 0 0-3.9-5.45 17.45 17.45 0 0 0-5.92-3.48 22.25 22.25 0 0 0-7.48-1.21h-14.52v34.46h14.62c2.68 0 5.15-.4 7.4-1.21 2.26-.8 4.23-1.97 5.9-3.49a15.7 15.7 0 0 0 3.9-5.44 17.59 17.59 0 0 0 1.38-7.1c0-2.6-.46-4.97-1.38-7.08"/><path fill="#fff" d="M237.97 28.91c-.4.63-.9 1.1-1.53 1.4-.63.32-1.31.47-2.06.47h-4.4v-8.42h4.4c.75 0 1.43.15 2.06.46.63.3 1.14.77 1.53 1.4.38.63.58 1.41.58 2.35 0 .93-.2 1.71-.59 2.34Zm8.59-8.37a10.39 10.39 0 0 0-4.26-3.82 13.4 13.4 0 0 0-6.03-1.33H220.3v34.46h9.68v-12.1h6.3c2.22 0 4.23-.44 6.02-1.33a10.3 10.3 0 0 0 4.26-3.85 11.1 11.1 0 0 0 1.57-6c0-2.32-.52-4.36-1.57-6.02M261.44 36.49l3.6-10.7 3.52 10.7h-7.12Zm11.52 13.36h10.07l-12.97-34.46h-9.88l-13.11 34.46h9.87l1.96-5.8h12.15l1.91 5.8ZM299.48 22.36c1.32 0 2.33.32 3.03.96.69.65 1.04 1.5 1.04 2.57 0 1.06-.35 1.92-1.04 2.56-.7.65-1.7.97-3.03.97h-4.02v-7.07h4.02Zm4.9 27.49h10.98L305.28 35.5c.67-.2 1.3-.43 1.9-.7a10.54 10.54 0 0 0 4.38-3.63 9.46 9.46 0 0 0 1.58-5.43c0-2.06-.52-3.87-1.55-5.42a10.44 10.44 0 0 0-4.26-3.63c-1.8-.87-3.9-1.3-6.3-1.3H285.8v34.46h9.68V36.1h.14l8.77 13.75ZM327.45 15.39h-9.67v9.67l9.67-9.67ZM327.46 26.9h-9.68v22.95h9.68V26.9Z"/><path fill="#FF0144" d="m49.98 37.51 10.69-.1-.2.45a6.57 6.57 0 0 1-2.68 2.84c-1.16.66-2.6.99-4.3.99-1.69 0-3.3-.38-4.62-1.14a7.94 7.94 0 0 1-3.1-3.18 9.94 9.94 0 0 1-1.1-4.8c0-1.82.4-3.42 1.2-4.77a8.35 8.35 0 0 1 3.24-3.14 9.31 9.31 0 0 1 4.53-1.1 9.6 9.6 0 0 1 4.53.99c.9.46 1.85 1.11 2.7 1.92l6.28-6.37a16.75 16.75 0 0 0-4.99-3.25 20.88 20.88 0 0 0-8.38-1.6c-2.59 0-5 .43-7.28 1.3a18.7 18.7 0 0 0-5.97 3.63 16.53 16.53 0 0 0-5.45 12.44 16.67 16.67 0 0 0 5.22 12.42 17.6 17.6 0 0 0 5.8 3.66 19.8 19.8 0 0 0 7.25 1.3c3.5 0 6.56-.74 9.2-2.22a15.27 15.27 0 0 0 6.13-6.47c1.46-2.83 2.2-6.26 2.2-10.3V29.6h-13.1l-7.8 7.91ZM35.24 15.39s-3.12 2.78-5.04 6.8H12.1l-3.38-3.4H3.38L0 15.36l35.23.02M27.8 33.87H11.83l3.38 3.4h5.35l3.38 3.42h5.25c-.29-.82-1.2-3.3-1.38-6.83M30.2 43.04H17.86l3.38 3.41h5.36l3.37 3.4h5.27s-2.98-2.62-5.02-6.8ZM27.79 31.47H17.8l-3.38-3.4H9.08L5.7 24.64h23.45s-1.22 3.17-1.37 6.82"/></svg>