<svg width="300" height="66" viewBox="0 0 300 66" fill="none" xmlns="http://www.w3.org/2000/svg">
<g clip-path="url(#clip0_98_6295)">
<path d="M74.364 62L101.42 4H127.064L121.822 15.2437H109.219L103.943 26.5684H116.036L110.955 37.4535H98.8624L92.6944 50.6753H106.13L100.853 62H74.3755H74.364Z" fill="white"/>
<path d="M105.759 62L132.815 4H158.459L153.217 15.2437H140.615L135.338 26.5684H147.431L142.351 37.4535H130.258L124.09 50.6753H137.525L132.248 62H105.771H105.759Z" fill="white"/>
<path d="M195.676 4L168.62 62H156.087L163.216 32.9769L149.676 62H137.143L164.211 4H177.392L170.356 31.7391L183.293 4H195.676Z" fill="white"/>
<path d="M174.961 62L202.017 4H219.387C223.923 4 226.828 4.99481 228.078 7.00758C229.328 9.00878 228.83 12.4212 226.573 17.2565L226.284 17.8811L225.405 19.7782C225.208 20.1947 224.872 20.8309 224.375 21.71C223.877 22.5892 223.437 23.2716 223.055 23.769C222.662 24.2665 222.141 24.8795 221.493 25.6083C220.834 26.3371 220.174 26.927 219.491 27.3897C218.808 27.8524 218.022 28.3035 217.107 28.7431C216.205 29.1827 215.233 29.5066 214.214 29.7264C215.406 30.0387 216.286 30.5824 216.876 31.369C217.455 32.144 217.79 32.9653 217.883 33.8329C217.964 34.6889 217.848 35.7531 217.547 37.014C217.235 38.2748 216.911 39.3275 216.563 40.1835C216.216 41.0279 215.765 42.0459 215.21 43.2373C213.786 46.2912 212.351 48.917 210.905 51.1033C209.458 53.2896 207.815 55.2329 205.975 56.945C204.135 58.657 202.087 59.9294 199.842 60.7738C197.597 61.6067 195.097 62.0347 192.354 62.0347H174.984L174.961 62ZM204.355 25.8396H206.97C207.607 25.8396 208.174 25.7124 208.706 25.4348C209.227 25.1687 209.69 24.787 210.095 24.2896C210.5 23.7922 210.812 23.341 211.055 22.9362C211.287 22.5313 211.541 22.057 211.796 21.5018L214.48 15.7527C215.337 13.9134 214.862 12.988 213.046 12.988H210.349L204.355 25.8396ZM200.142 34.874L192.297 51.6933C192.852 51.7395 193.269 51.7627 193.535 51.7627C196.856 51.7627 199.194 50.3283 200.524 47.4711L203.903 40.2298C204.76 38.3905 205.084 37.0371 204.864 36.1695C204.644 35.302 203.857 34.874 202.503 34.874H200.131H200.142Z" fill="white"/>
<path d="M210.951 62L237.995 4H263.639L258.397 15.2437H245.795L240.518 26.5684H252.611L247.531 37.4535H235.438L229.27 50.6753H242.705L237.428 62H210.951Z" fill="white"/>
<path d="M266.96 4H295L289.781 15.1743H282.166L260.33 61.9884H247.508L269.344 15.1743H261.73L266.949 4L266.96 4Z" fill="white"/>
<path d="M62.4677 37.4535L51.0228 61.9884H38.0619L65.1062 4H84.7674C86.781 4 88.3779 4.27762 89.5583 4.8213C90.7387 5.36498 91.5256 6.08217 91.9422 6.97288C92.3588 7.86358 92.4514 9.03191 92.2431 10.501C92.0348 11.9701 91.6529 13.4392 91.1205 14.9083C90.5882 16.3773 89.8245 18.1588 88.8524 20.2409C88.3432 21.3398 87.915 22.2306 87.5447 22.913C87.186 23.6071 86.6421 24.4747 85.9246 25.5273C85.1956 26.58 84.4665 27.4591 83.7259 28.1647C82.9853 28.8704 82.0363 29.5644 80.8791 30.2353C79.7219 30.9063 78.4721 31.4384 77.1066 31.797C78.1944 32.0168 78.9929 32.4216 79.4905 33.0116C79.9881 33.6015 80.2079 34.3418 80.1385 35.221C80.0691 36.0886 79.9302 36.8983 79.6988 37.6386C79.4673 38.3789 79.1433 39.2118 78.7151 40.1372C74.2482 49.7268 70.7997 57.0028 68.3811 61.9769H55.8484L65.5228 41.2246C65.9394 40.3223 66.1824 39.6051 66.2518 39.073C66.3213 38.5409 66.1593 38.1592 65.7658 37.9278C65.3723 37.6965 64.9673 37.5576 64.5276 37.5114C64.0878 37.4651 63.3935 37.442 62.4446 37.442L62.4677 37.4535ZM73.1142 14.862L67.6636 26.4643H70.8691C72.9753 25.6777 74.6417 23.9079 76.2965 20.3566C77.3959 17.9968 77.7662 16.493 77.3959 15.8452C77.0371 15.1859 75.8336 14.862 73.7969 14.862H73.1026H73.1142Z" fill="white"/>
<path d="M38.2007 23.5146L40.33 18.9454C40.7582 18.0199 41.0244 17.2449 41.1169 16.6318C41.2095 16.0187 41.1285 15.6139 40.8855 15.3478C40.654 15.1049 40.3995 14.9314 40.1564 14.8389C39.9018 14.7694 39.601 14.7116 39.2422 14.7116C38.5132 14.7116 37.8883 14.8041 37.3328 15.0008C36.8005 15.1974 36.326 15.4404 35.9441 15.7296C35.5391 16.0187 35.1225 16.5509 34.6481 17.3143C34.162 18.0894 33.757 18.795 33.4214 19.4775C33.0742 20.16 32.5535 21.2242 31.8707 22.6817L21.4094 45.1113C21.016 45.9673 20.7035 46.6613 20.5068 47.2513C20.2869 47.8297 20.1365 48.4659 20.0323 49.1484C19.9282 49.8309 20.0555 50.3398 20.3795 50.6984C20.7267 51.0339 21.2706 51.2306 22.0459 51.2306C23.3304 51.2306 24.4182 50.7216 25.3324 49.7036C26.2119 48.7088 27.184 47.0778 28.2486 44.8221L31.3731 38.1129H27.9477L32.6229 28.0953H48.0603L32.2526 61.9769H12.5914C11.3532 61.9769 10.2538 61.8843 9.3396 61.6645C8.76099 61.5373 8.26338 61.3753 7.78892 61.1787C6.62013 60.6235 5.82164 59.9178 5.41662 59.0156C5.00001 58.1364 4.89586 56.945 5.09259 55.4874C5.11574 55.2214 5.18517 54.9322 5.23146 54.6661C5.45133 53.4747 5.78693 52.2832 6.2151 51.0917C6.43497 50.5134 6.68956 49.8771 6.95572 49.1947C7.15245 48.7319 7.34918 48.2461 7.59219 47.7371L21.1317 18.7371C21.2706 18.4479 21.3979 18.1819 21.5367 17.9158C22.0806 16.7938 22.5898 15.8221 23.099 14.9314C23.099 14.9314 23.0874 14.9083 23.099 14.9083C23.7817 13.7168 24.5455 12.5253 25.4481 11.3339C25.6449 11.0678 25.8532 10.7786 26.073 10.5126C27.2418 9.05505 28.4569 7.86358 29.6836 6.98444C30.9334 6.08217 32.3799 5.37655 34.0694 4.8213C35.2151 4.45114 36.4418 4.20822 37.7494 4.11568C38.3627 4.04627 38.9876 4.02314 39.6125 4.02314H47.6089C48.4653 4.02314 49.2406 4.06941 49.9465 4.17352C50.907 4.30076 51.7287 4.50898 52.4114 4.83287C53.5802 5.38811 54.3787 6.09374 54.7837 6.99601C55.2003 7.87515 55.3045 9.06661 55.1078 10.5241C55.0846 10.7902 55.0152 11.0794 54.9689 11.3454C54.749 12.5369 54.4134 13.7284 53.9852 14.9198C53.7654 15.556 53.4992 16.227 53.1636 16.9904C52.747 17.9852 52.261 19.0842 51.7055 20.2756L50.178 23.5608H38.166L38.2007 23.5146Z" fill="white"/>
</g>
<defs>
<clipPath id="clip0_98_6295">
<rect width="290" height="58" fill="white" transform="translate(5 4)"/>
</clipPath>
</defs>
</svg>
