<?xml version="1.0" encoding="UTF-8"?>
<svg xmlns="http://www.w3.org/2000/svg" fill="none" viewBox="0 0 187 72">
  <path fill="url(#a)" d="m61.366 18.02.01-.033 2.477-8.591a3.397 3.397 0 0 0-.567-3.024A3.459 3.459 0 0 0 60.511 5h-4.456a3.475 3.475 0 0 0-3.327 2.454l-1.797 5.922a26.031 26.031 0 0 0-12.04-2.93c-14.349 0-25.98 11.536-25.98 25.765 0 7.146 2.934 13.613 7.673 18.28-.027.06-.056.12-.086.178l-.005.009-.004.009c-.049.096-.1.194-.159.297l-.004.006-.003.006a8.38 8.38 0 0 1-3.122 3.153 3.43 3.43 0 0 0-.42 5.679 35.745 35.745 0 0 0 3.646 2.522 4.52 4.52 0 0 0 2.335.65 4.49 4.49 0 0 0 2.858-1.027 19.591 19.591 0 0 0 4.585-5.473 26.126 26.126 0 0 0 8.686 1.475c6.07 0 11.655-2.065 16.077-5.527-.568-.613-1.059-1.498-1.19-2.77A23.077 23.077 0 0 1 38.89 59.08a23.2 23.2 0 0 1-7.446-1.218l.022-.057a19.279 19.279 0 0 0 1.07-4.236 18.71 18.71 0 0 0 6.352 1.103c3.525 0 6.822-.972 9.632-2.66l.143-.088c.143-.087.284-.175.423-.266l.191-.127c.067-.044.135-.09.201-.136.066-.044.131-.09.196-.136a11.593 11.593 0 0 0 .27-.194c.048-.034.094-.07.14-.104l.16-.12a17.649 17.649 0 0 0 .928-.76 16.642 16.642 0 0 0 .56-.507c.002 0 0-.001 0-.001a18.442 18.442 0 0 0 4.848-7.603l.01-.037.292-.973.002-.008c.404-1.514.62-3.102.62-4.742 0-1.38-.152-2.722-.442-4.015l.99-3.265 1.105-3.639a22.716 22.716 0 0 1 1.484 3.304l1.292-4.288a25.497 25.497 0 0 0-1.653-2.72l.507-1.668.577-1.9Zm-19.243-4.455a22.986 22.986 0 0 1 7.949 2.64l-.12.395v.003l-.001.002-.078.257-1.119 3.689a18.581 18.581 0 0 0-4.453-2.01l-.135-.932-.093-.647-.088-.601a3.435 3.435 0 0 0-1.904-2.601l.042-.195ZM15.828 36.21c0-6.606 2.824-12.557 7.34-16.732l-.219 3.841-.21 3.703a18.264 18.264 0 0 0-2.465 9.188c0 2.605.544 5.084 1.525 7.33l-.21 3.702-.204 3.587-.004.067v.066l-.002.13a22.66 22.66 0 0 1-5.55-14.882Zm16.256-17.476-.017.293-1.843 32.397a16.651 16.651 0 0 1-.125 1.64 16.775 16.775 0 0 1-.958 3.878 16.889 16.889 0 0 1-1.252 2.614 17.2 17.2 0 0 1-3.86 4.526 1.967 1.967 0 0 1-1.076.445 1.764 1.764 0 0 1-.326.005 1.993 1.993 0 0 1-.597-.133 1.99 1.99 0 0 1-.312-.154 33.25 33.25 0 0 1-3.39-2.345.98.98 0 0 1 .121-1.623 10.873 10.873 0 0 0 4.267-4.502 10.574 10.574 0 0 0 1.08-3.631c.045-.387.067-.78.068-1.176l.203-3.587.518-9.086.843-14.836.226-3.978a.988.988 0 0 1 .802-.91l4.446-.86a.99.99 0 0 1 1.012.413.975.975 0 0 1 .17.61Zm1.13-2.785a3.501 3.501 0 0 0-2.787-.655l-.565.109-.075-.212a23.142 23.142 0 0 1 9.473-1.849l.014.242-3.72.718a3.468 3.468 0 0 0-2.34 1.647Zm25.774 1.36-.577 1.901-1.016 3.349-1.718 5.661-6.068 20a1.98 1.98 0 0 1-1.522 1.367l-1.75.338-4.147.801-1.252.243a.853.853 0 0 1-.651-.14.828.828 0 0 1-.343-.56l-4.67-32.173-.038-.27a.985.985 0 0 1 .792-1.107l4.326-.836a.987.987 0 0 1 .58.06 1.011 1.011 0 0 1 .407.316l.05.072.042.077a.889.889 0 0 1 .077.211c.008.03.014.06.018.09l.18 1.248 3.176 21.934a.285.285 0 0 0 .173.229c.015.007.03.012.046.017.026.006.051.009.077.009a.29.29 0 0 0 .284-.211l5.416-17.849 1.372-4.519.077-.258.805-2.649 1.971-6.497a.992.992 0 0 1 .95-.702h4.456c.66 0 1.136.627.955 1.256l-2.478 8.592Z"></path>
  <path fill="url(#b)" d="M56.884 40.96c-.089.33-.184.654-.291.974l.29-.973Z"></path>
  <path fill="url(#c)" d="m48.522 52.013.04-.008.104-.08-.144.088Z"></path>
  <path fill="#EDEDED" d="M80.815 20.469c-.052.346-.169.844-.347 1.495a60.88 60.88 0 0 1-.68 2.27l-1.757 5.907h-6.62l2.119-6.871c.034-.126.064-.247.091-.366.026-.117.046-.223.06-.317.048-.314.002-.553-.14-.718-.14-.164-.369-.247-.685-.247-.38 0-.693.13-.937.388-.245.26-.452.68-.62 1.26l-1.851 6.047a7.728 7.728 0 0 0-.093.377 8.9 8.9 0 0 0-.09.518c-.053.344-.008.635.138.87.146.236.42.487.823.754l3.436 2.353c.712.517 1.218 1.133 1.521 1.846.302.714.386 1.503.254 2.366-.032.22-.139.651-.315 1.294-.061.188-.107.33-.136.424l-2.46 8.165c-1.071 3.482-2.185 5.652-3.344 6.507-1.16.855-3.424 1.282-6.793 1.282-2.785 0-4.587-.29-5.408-.87a1.912 1.912 0 0 1-.279-.239c-.605-.612-.805-1.592-.599-2.939.034-.218.083-.471.147-.76.056-.25.124-.526.203-.827.17-.651.38-1.37.626-2.154l2.579-8.636h6.644l-2.858 9.53c-.028.079-.057.165-.088.259a2.94 2.94 0 0 0-.104.376c-.054.346-.007.609.14.79.146.18.385.27.718.27.363 0 .664-.13.902-.389.237-.258.44-.686.612-1.282l2.55-8.307c.02-.125.06-.278.119-.46.058-.18.091-.285.096-.316.053-.346.01-.636-.128-.87-.138-.236-.422-.503-.85-.802l-2.546-1.78-1.055-.737c-.685-.487-1.172-1.083-1.459-1.789-.288-.706-.362-1.506-.226-2.4.04-.267.152-.682.333-1.247.093-.298.158-.518.196-.659l.7-2.32.987-3.28c1.043-3.405 2.16-5.558 3.35-6.46 1.189-.902 3.437-1.353 6.743-1.353 2.864 0 4.702.29 5.514.87.814.58 1.103 1.64.867 3.177ZM84.641 16.657h8.21c2.563 0 4.243.287 5.041.86.799.572 1.084 1.604.856 3.094-.065.423-.18.957-.34 1.6-.162.643-.38 1.444-.652 2.4l-2.853 9.342c-1.062 3.53-2.196 5.746-3.401 6.648-1.206.903-3.312 1.354-6.317 1.354h-1.567l-4.204 13.837h-6.645l11.872-39.134Zm5.08 5.106L85.191 36.8h.64c.648 0 1.113-.119 1.394-.353.281-.235.586-.91.915-2.024l3.054-10.189c.067-.235.152-.525.252-.87s.154-.542.161-.588c.06-.392-.002-.66-.186-.8-.184-.141-.569-.212-1.154-.212h-.546v-.001ZM102.803 16.657h6.644L97.576 55.791h-6.644l11.871-39.134ZM112.118 16.657h5.908l-2.25 19.508h.451l5.785-19.508h5.742l-11.871 39.134h-5.885l2.356-20.05h-.403l-5.986 20.05h-5.718l11.872-39.134h-.001Z"></path>
  <path fill="url(#d)" d="M130.304 16.657h8.258c2.34 0 3.952.322 4.835.965.882.644 1.211 1.703.985 3.178-.059.392-.144.811-.252 1.258-.108.448-.246.962-.414 1.542l-1.571 5.154a13.47 13.47 0 0 1-.985 2.483c-.392.745-.793 1.33-1.206 1.753a7.392 7.392 0 0 1-1.208.989 6.44 6.44 0 0 1-1.346.659c.72.361 1.215.839 1.488 1.435.272.597.338 1.357.197 2.283-.053.346-.13.718-.23 1.118-.102.4-.216.811-.344 1.235l-2.166 7.177c-1.007 3.373-2.172 5.534-3.495 6.482-1.324.95-3.607 1.424-6.849 1.424h-7.57l11.872-39.134h.001Zm.28 20.967-3.913 13.014c.077.015.162.027.255.035.094.008.228.012.401.012.57 0 1.001-.125 1.292-.376.291-.252.535-.707.73-1.365l2.975-9.672.033-.212.035-.235c.068-.44.008-.749-.177-.93-.186-.18-.549-.271-1.086-.271h-.545Zm4.799-15.861-3.043 10.119c.062 0 .165.008.305.024.14.015.233.023.281.023.616 0 1.082-.125 1.398-.376.315-.251.561-.698.739-1.341l2.061-6.801a4.247 4.247 0 0 0 .137-.59c.057-.376.004-.646-.161-.81-.165-.165-.477-.248-.936-.248h-.782.001Z"></path>
  <path fill="url(#e)" d="M148.425 16.657h9.585l-1.564 5.107h-2.941l-3.021 9.977h4.034l-1.571 5.153h-4.034l-4.144 13.743h6.469l-1.571 5.154h-13.113l11.872-39.134h-.001Z"></path>
  <path fill="url(#f)" d="M160.675 16.657h13.264l-1.602 5.2h-3.322l-10.292 33.934h-6.597l10.293-33.933h-3.298l1.555-5.2h-.001Z"></path>
  <defs>
    <linearGradient id="a" x1="11.849" x2="65.313" y1="62.902" y2="8.992" gradientUnits="userSpaceOnUse">
      <stop stop-color="#FF273F"></stop>
      <stop offset=".96" stop-color="#FFC60B"></stop>
    </linearGradient>
    <linearGradient id="b" x1="34.196" x2="71.882" y1="76.647" y2="16.817" gradientUnits="userSpaceOnUse">
      <stop stop-color="#FF273F"></stop>
      <stop offset="1" stop-color="#FFB123"></stop>
    </linearGradient>
    <linearGradient id="c" x1="33.095" x2="70.676" y1="76.015" y2="15.968" gradientUnits="userSpaceOnUse">
      <stop stop-color="#FF273F"></stop>
      <stop offset="1" stop-color="#FFB123"></stop>
    </linearGradient>
    <linearGradient id="d" x1="113.629" x2="150.66" y1="59.264" y2="9.782" gradientUnits="userSpaceOnUse">
      <stop stop-color="#FF273F"></stop>
      <stop offset="1" stop-color="#FFB123"></stop>
    </linearGradient>
    <linearGradient id="e" x1="125.025" x2="162.056" y1="67.793" y2="18.31" gradientUnits="userSpaceOnUse">
      <stop stop-color="#FF273F"></stop>
      <stop offset="1" stop-color="#FFB123"></stop>
    </linearGradient>
    <linearGradient id="f" x1="131.813" x2="168.844" y1="72.872" y2="23.39" gradientUnits="userSpaceOnUse">
      <stop stop-color="#FF273F"></stop>
      <stop offset="1" stop-color="#FFB123"></stop>
    </linearGradient>
  </defs>
</svg>
