<svg width="135" height="42" viewBox="0 0 135 42" fill="none" xmlns="http://www.w3.org/2000/svg">
<g clip-path="url(#clip0_2_92757)">
<path fill-rule="evenodd" clip-rule="evenodd" d="M44.5697 0.00636364H33.0523V42H44.5697V0.00636364ZM0.561035 0.00636364H12.0719V42H0.561035V0.00636364ZM16.8067 13.0391H28.3241V42H16.8067V13.0391ZM16.8263 0H28.3045V7.23545L16.8263 11.4036V0Z" fill="#34CC67"/>
<path fill-rule="evenodd" clip-rule="evenodd" d="M49.9175 40.4409V0H59.6218V9.55818H66.5675C74.0023 9.55818 77.7197 13.1855 77.7197 20.44V31.1245C77.7197 34.6627 76.7675 37.3609 74.8631 39.2191C72.9588 41.0773 70.1936 42.0064 66.5675 42.0064H49.9175V40.4473V40.4409ZM91.6305 19.8609C91.6305 18.6327 92.2631 18.0218 93.5153 18.0218H98.974C100.233 18.0218 100.859 18.6391 100.859 19.8609V23.8445H91.624V19.8609H91.6305ZM59.6479 33.5364H66.0914C67.3501 33.5364 67.9762 32.9255 67.9762 31.6973V19.8609C67.9762 18.6327 67.3501 18.0218 66.0914 18.0218H59.6479V33.5427V33.5364ZM82.0762 31.1182C82.0762 34.6564 83.0283 37.3545 84.9327 39.2127C86.837 41.0709 89.6023 42 93.2283 42H104.263L108.874 38.6273V33.7464C103.057 33.7464 97.5979 33.7209 91.7805 33.7464V29.5655H110.061V20.44C110.061 13.1855 106.344 9.55818 98.9088 9.55818H93.2283C89.6023 9.55818 86.837 10.4873 84.9327 12.3455C83.0283 14.2036 82.0762 16.9018 82.0762 20.44V31.1245V31.1182ZM114.652 31.1182V0.229091H125.257V9.55818L134.498 9.60909V17.99H125.257V33.5682C128.831 33.5555 131.504 33.5682 135.085 33.5682V38.6209L130.474 41.9936H125.798C122.172 41.9936 119.407 41.0645 117.502 39.2064C115.598 37.3482 114.646 34.65 114.646 31.1118L114.652 31.1182Z" fill="#34CC67"/>
</g>
<defs>
<clipPath id="clip0_2_92757">
<rect width="135" height="42" fill="white"/>
</clipPath>
</defs>
</svg>
