<svg xmlns="http://www.w3.org/2000/svg" fill="none" viewBox="0 0 128 31"><path fill="#FFCE00" d="M25.15 11.24c.46 0 .92.08 1.37.29.44.2.88.54 1.18 1.03a2.52 2.52 0 0 1 .27 2.06l-2.94 9.4a3.02 3.02 0 0 1-1.33 1.66c-.58.36-1.27.6-2.04.6h-5.3a1.45 1.45 0 0 0-1.04.45l-.07.11-.44 1.87-.02.04a3.02 3.02 0 0 1-1.33 1.66c-.58.36-1.27.59-2.04.59H5.27c-.46 0-.93-.08-1.37-.29-.44-.2-.89-.54-1.19-1.03a2.52 2.52 0 0 1-.28-2.06l2.32-7.68H7.7l-2.46 8.12.1.13h5.6c.01 0 1.12 0 1.35-.97l.35-1.43v-.04l.02-.04c.24-.77.75-1.28 1.33-1.65.58-.36 1.27-.6 2.04-.6h5.3c.18 0 .4-.04.58-.13.25-.13.52-.4.68-.92v.01l2.56-8.17c.02-.08-.05-.18-.14-.18h-3.04l.88-2.83h2.3Z"/><path fill="#FFCE00" d="M24.14 8.87c-.3-.48-.75-.82-1.2-1.03-.43-.2-.9-.29-1.36-.29h-4.25l1.3-4.16c.09-.3.13-.66.09-1.02a2.52 2.52 0 0 0-.37-1.05C18.05.83 17.6.5 17.15.3c-.43-.2-.9-.29-1.36-.29H8.35C7.58 0 6.89.23 6.3.6c-.57.37-1.08.87-1.32 1.65L.1 17.96a2.52 2.52 0 0 0 .28 2.07c.3.49.74.82 1.18 1.03.45.2.91.29 1.37.29h15.58c.77 0 1.45-.23 2.04-.6a3.02 3.02 0 0 0 1.33-1.65l2.52-8.16a2.53 2.53 0 0 0-.27-2.07Zm-2.6 1.82-2.25 7.27-.07.12a1.45 1.45 0 0 1-1.03.45h-15c-.14 0-.26-.15-.22-.29L7.44 3.78l.06-.19c.11-.28.43-.77 1.34-.77h6.53c.22 0 .4.24.33.44l-1.14 3.72a2.51 2.51 0 0 0 .27 2.07c.3.48.75.82 1.19 1.03.44.2.9.29 1.37.29h3.91c.16 0 .29.17.24.32Z"/><path fill="#F9F9F9" d="M42.04 4.84h-4.5L32.75 21.6h8.3l1.02-3.57h-3.8l3.77-13.2ZM63.53 11.47c.48 0 .94.08 1.27.17l.96-3.1a8.43 8.43 0 0 0-2.6-.35c-1.93 0-3.35.34-4.33 1.1-1.78 1.36-3.34 4.6-3.72 7.88-.37 3.28 1.02 4.67 4.78 4.67.97 0 1.85-.1 2.46-.26l.46-3.3c-.57.18-1.32.28-1.98.28-1.22 0-1.52-.34-1.39-1.51.18-1.55 1.11-4 1.83-4.82.43-.5 1.17-.77 2.27-.77v.01ZM86 8.43l-4.04 9.32h-.49l1.35-9.32h-4.45l-.4 6.65-.39 6.53h2.67c-.64 1.09-1.41 1.41-2.62 1.41-.44 0-1.12-.02-2.18-.19l-.87 2.95c1.04.27 1.83.38 2.75.38 2.45 0 4.5-.74 6.24-4.17l6.98-13.56H86Z"/><path fill="#FFCE00" d="M98.36 4.84h-5.43L88.14 21.6h4.5l1.52-5.35h1.19c2.32 0 3.8-.36 4.89-1.17 1.53-1.17 2.84-3.7 3.1-5.99.36-2.97-1.17-4.26-4.98-4.26Zm-.8 7.52c-.47.46-1.09.65-1.9.65h-.56l1.4-4.9h.8c1.26 0 1.68.37 1.57 1.3a6.11 6.11 0 0 1-1.3 2.95h-.01ZM110 8.2c-1.35 0-3.52.3-5.88.83l-.1 3.36c1.92-.46 3.1-.67 3.76-.67.66 0 .9.21.82.83-.02.2-.07.4-.15.67l-.24.85h-2.36c-1.54 0-2.6.26-3.38.81a5.55 5.55 0 0 0-2.06 3.86c-.24 2.11.76 3.12 2.85 3.12a3.7 3.7 0 0 0 3.26-1.58h.14l-.18 1.51 3.92-.35 2.45-8.58a10 10 0 0 0 .32-1.51c.25-2.13-.79-3.14-3.17-3.14v-.02Zm-2.58 8.7c-.43 1.53-1.1 2.22-2.1 2.22-.55 0-.74-.21-.69-.74.07-.62.48-1.6.88-2 .26-.26.62-.37 1.17-.37h.99l-.25.88ZM123.71 8.43l-3.76 13.18h4.28L128 8.43h-4.29ZM122.94 8.43h-4.62a4.68 4.68 0 0 0-4.32 3.45l-2.79 9.73h4.29l2.3-8.05a2.09 2.09 0 0 1 1.94-1.53h2.18l1.02-3.6Z"/><path fill="#F9F9F9" d="M78.78 8.43H74l-3.37 4.5h-.81l1.29-4.5H66.8l-3.77 13.18h4.32L69 15.78h.74l.6 5.83h4.7l-1.55-7.26 5.28-5.92ZM49.9 16.9c-.2.66-.8 1.14-1.45 1.14-.82 0-1.35-.78-1.11-1.62l2.28-7.98h-4.28l-2.23 7.77c-.8 2.82.97 5.4 3.71 5.4h2.31c2.14 0 4.17-1.6 4.79-3.8l2.68-9.37h-4.29L49.9 16.9Z"/></svg>