<?xml version="1.0" standalone="no"?>
<!DOCTYPE svg PUBLIC "-//W3C//DTD SVG 20010904//EN"
 "http://www.w3.org/TR/2001/REC-SVG-20010904/DTD/svg10.dtd">
<svg version="1.0" xmlns="http://www.w3.org/2000/svg"
 width="1280.000000pt" height="1280.000000pt" viewBox="0 0 1280.000000 1280.000000"
 preserveAspectRatio="xMidYMid meet">

<g transform="translate(0.000000,1280.000000) scale(0.100000,-0.100000)"
fill="#000000" stroke="none">
<path d="M2800 10819 c-359 -11 -745 -41 -1040 -79 -191 -24 -383 -116 -520
-250 -124 -121 -201 -256 -252 -440 l-23 -85 0 -1170 0 -1170 28 -57 c51 -105
119 -149 480 -317 60 -28 139 -71 177 -96 77 -51 179 -155 240 -245 60 -88
144 -269 175 -375 35 -119 45 -303 22 -422 -32 -165 -125 -330 -272 -478 -141
-142 -291 -244 -556 -377 -263 -132 -274 -154 -290 -573 -17 -444 -6 -1428 20
-1755 24 -296 31 -348 65 -447 122 -357 424 -592 911 -706 101 -24 192 -38
441 -66 50 -6 212 -11 360 -11 330 0 598 21 1019 80 366 52 479 76 595 132 81
38 94 49 305 264 232 236 267 262 332 249 52 -9 98 -58 160 -169 115 -205 226
-317 397 -396 109 -52 176 -68 321 -80 66 -5 667 -14 1335 -20 668 -6 1618
-15 2110 -21 1036 -12 1346 -5 1635 36 363 53 601 129 798 258 255 166 392
388 462 749 42 214 50 454 36 1033 -6 275 -11 645 -11 822 0 366 -5 394 -80
472 -49 50 -67 59 -220 111 -368 124 -588 295 -715 559 -77 159 -99 290 -92
536 6 206 34 362 89 492 44 107 129 190 313 307 77 49 220 141 319 205 321
207 327 217 366 571 45 411 50 1267 10 1630 -5 47 -19 168 -29 270 -35 318
-86 502 -182 651 -74 114 -182 211 -304 272 -66 33 -205 74 -291 87 -44 6
-1079 12 -2869 16 -3093 7 -2880 11 -2998 -56 -34 -19 -112 -87 -199 -173
-149 -148 -257 -230 -381 -288 -61 -28 -75 -31 -145 -27 -48 2 -92 11 -117 23
-48 23 -142 115 -289 283 -168 191 -223 220 -456 232 -257 14 -887 19 -1190 9z
m2259 -1739 c175 -25 339 -162 402 -336 29 -79 33 -257 21 -944 -9 -479 -11
-530 -29 -585 -32 -97 -62 -146 -130 -213 -116 -114 -254 -160 -443 -149 -150
9 -244 50 -346 152 -89 88 -137 193 -149 322 -3 38 -1 349 3 693 10 688 11
694 76 810 64 116 211 225 336 249 61 12 181 13 259 1z m75 -3384 c163 -59
269 -171 322 -341 17 -55 19 -91 16 -435 -6 -640 -18 -1018 -36 -1073 -24 -74
-80 -160 -143 -217 -102 -93 -210 -133 -368 -134 -256 -1 -452 141 -519 376
-19 67 -21 286 -6 973 7 345 13 463 25 508 52 197 205 331 425 371 64 12 217
-3 284 -28z"/>
</g>
</svg>
