<?xml version="1.0" encoding="UTF-8"?>
<svg version="1.1" xmlns="http://www.w3.org/2000/svg" width="465" height="156">
<path d="M0 0 C1.1653125 0.00515625 2.330625 0.0103125 3.53125 0.015625 C4.6965625 0.01046875 5.861875 0.0053125 7.0625 0 C10.03125 0.265625 10.03125 0.265625 12.03125 2.265625 C12.27175903 4.36636353 12.27175903 4.36636353 12.25830078 6.99072266 C12.25814972 7.97158844 12.25799866 8.95245422 12.25784302 9.96304321 C12.24752045 11.02453583 12.23719788 12.08602844 12.2265625 13.1796875 C12.2237326 14.26446381 12.22090271 15.34924011 12.21798706 16.46688843 C12.20676578 19.94157813 12.18165762 23.41601282 12.15625 26.890625 C12.14622272 29.24218379 12.13709643 31.5937466 12.12890625 33.9453125 C12.10682011 39.71883744 12.07332345 45.49221301 12.03125 51.265625 C13.23249512 51.26038818 14.43374023 51.25515137 15.67138672 51.24975586 C20.11799376 51.23168847 24.56459753 51.2201866 29.01123047 51.21069336 C30.93766831 51.20565713 32.86410231 51.19882788 34.79052734 51.19018555 C37.55567368 51.17808892 40.32076958 51.17238967 43.0859375 51.16796875 C44.3828804 51.16022682 44.3828804 51.16022682 45.70602417 51.15232849 C51.80350659 51.15175329 51.80350659 51.15175329 54.03125 52.265625 C53.99 51.151875 53.94875 50.038125 53.90625 48.890625 C54.03125 45.265625 54.03125 45.265625 56.03125 43.265625 C58.74609375 42.9296875 58.74609375 42.9296875 61.96875 42.890625 C63.02964844 42.86226562 64.09054687 42.83390625 65.18359375 42.8046875 C68.03125 43.265625 68.03125 43.265625 69.91015625 45.1640625 C71.03125 47.265625 71.03125 47.265625 71.03125 49.265625 C75.73198724 50.83253741 80.54236505 50.6857356 85.46875 50.890625 C86.51869141 50.9421875 87.56863281 50.99375 88.65039062 51.046875 C89.66166016 51.09070313 90.67292969 51.13453125 91.71484375 51.1796875 C92.63837646 51.2204541 93.56190918 51.2612207 94.51342773 51.30322266 C96.87353188 51.26798014 98.78180456 50.94727513 101.03125 50.265625 C101.36125 48.945625 101.69125 47.625625 102.03125 46.265625 C98.62266444 44.0474915 95.67584046 42.73013949 91.71484375 41.8359375 C90.70856934 41.60076416 89.70229492 41.36559082 88.66552734 41.12329102 C87.61059082 40.88151123 86.5556543 40.63973145 85.46875 40.390625 C62.0085942 34.72281124 62.0085942 34.72281124 56.01953125 26.9140625 C53.71504294 23.07021243 53.73966655 19.63937681 54.03125 15.265625 C55.72945788 10.08162201 57.71984329 6.63976938 62.03125 3.265625 C69.61223887 -0.51789274 77.68509132 -0.21669558 85.96875 -0.171875 C87.92844727 -0.2018457 87.92844727 -0.2018457 89.92773438 -0.23242188 C99.22986331 -0.22774038 106.99553443 0.97360135 114.53125 6.703125 C117.05957674 9.29465991 118.25993325 10.7518487 119.03125 14.265625 C118.60571809 19.69115691 118.60571809 19.69115691 116.03125 22.265625 C112.28079492 22.95811099 108.77706848 22.98516075 105.03125 22.265625 C102.96448456 20.64528089 101.69573322 19.07635425 100.25 16.89453125 C99.03717134 14.95084499 99.03717134 14.95084499 96.03125 14.265625 C92.70177289 14.03844164 89.36769072 14.08047461 86.03125 14.078125 C85.11601562 14.06587891 84.20078125 14.05363281 83.2578125 14.04101562 C82.37867188 14.03908203 81.49953125 14.03714844 80.59375 14.03515625 C79.79066406 14.03104736 78.98757813 14.02693848 78.16015625 14.02270508 C75.73134093 14.1356572 75.73134093 14.1356572 73.03125 16.265625 C73.16419066 18.22513032 73.16419066 18.22513032 74.03125 20.265625 C76.07742934 21.47697485 76.07742934 21.47697485 78.78125 22.203125 C79.85503906 22.53441406 80.92882812 22.86570312 82.03515625 23.20703125 C85.06458807 24.04526063 88.11362577 24.74429224 91.18359375 25.41796875 C110.73728892 29.71342191 110.73728892 29.71342191 118.59375 37.953125 C120.90593889 43.28121245 121.15602556 48.82810868 119.3359375 54.390625 C116.51683378 59.88669275 112.44774858 62.47534152 106.72265625 64.34765625 C100.47799451 65.82906455 94.10125535 65.63412881 87.71875 65.640625 C86.46384766 65.66511719 85.20894531 65.68960938 83.91601562 65.71484375 C73.06474687 65.74877164 63.97421653 63.99391676 56.03125 56.265625 C55.845625 57.93625 55.845625 57.93625 55.65625 59.640625 C55.03125 63.265625 55.03125 63.265625 53.03125 65.265625 C50.72291565 65.51959229 50.72291565 65.51959229 47.80297852 65.52441406 C46.7116713 65.53071838 45.62036407 65.53702271 44.49598694 65.54351807 C43.31266281 65.5394696 42.12933868 65.53542114 40.91015625 65.53125 C39.6993187 65.53316345 38.48848114 65.5350769 37.24095154 65.53704834 C34.67617587 65.53841145 32.11139333 65.53470631 29.54663086 65.52636719 C25.61361215 65.51567898 21.68105121 65.52625382 17.74804688 65.5390625 C15.26041565 65.53774075 12.77278472 65.53517802 10.28515625 65.53125 C8.51320641 65.53732269 8.51320641 65.53732269 6.70545959 65.54351807 C5.06377052 65.53406158 5.06377052 65.53406158 3.38891602 65.52441406 C2.42454117 65.52282288 1.46016632 65.52123169 0.46656799 65.51959229 C-1.96875 65.265625 -1.96875 65.265625 -4.96875 63.265625 C-5.3429718 60.72277832 -5.3429718 60.72277832 -5.34106445 57.47070312 C-5.34729324 56.2560437 -5.35352203 55.04138428 -5.35993958 53.78991699 C-5.35072983 52.47221313 -5.34152008 51.15450928 -5.33203125 49.796875 C-5.33151277 48.43688965 -5.33203 47.07690355 -5.33354187 45.71691895 C-5.3334521 42.86536484 -5.32301276 40.01409317 -5.30493164 37.16259766 C-5.28224397 33.503778 -5.2816997 29.84537118 -5.28844929 26.18650055 C-5.29178762 23.3778312 -5.2851618 20.56925631 -5.27532005 17.76060486 C-5.26958786 15.75418884 -5.27090532 13.74775673 -5.27229309 11.74133301 C-5.26276108 10.52667358 -5.25322906 9.31201416 -5.2434082 8.06054688 C-5.23880081 6.98736206 -5.23419342 5.91417725 -5.22944641 4.80847168 C-4.83603413 0.97110733 -3.77921377 0.33814018 0 0 Z " fill="#FFFFFF" transform="translate(276.96875,65.734375)"/>
<path d="M0 0 C1.98 0 3.96 0 6 0 C8.01364014 5.29385446 8.7986754 10.53208774 9.5859375 16.10546875 C9.87950197 18.07757924 10.17379446 20.04958146 10.46875 22.02148438 C10.9260311 25.11478403 11.37798748 28.20854921 11.81738281 31.30444336 C12.24559745 34.30313267 12.69528984 37.29796018 13.1484375 40.29296875 C13.33773331 41.68517891 13.33773331 41.68517891 13.53085327 43.10551453 C14.22050001 48.05573752 14.22050001 48.05573752 16.92431641 52.1027832 C20.0650302 53.46036062 21.80816696 53.1544928 25 52 C28.15829579 47.50550214 29.42002691 41.82449142 31.03515625 36.609375 C32 34 32 34 34 32 C36.33837891 31.77294922 36.33837891 31.77294922 39.2265625 31.8046875 C40.7734375 31.81435547 40.7734375 31.81435547 42.3515625 31.82421875 C43.97191406 31.84935547 43.97191406 31.84935547 45.625 31.875 C46.71296875 31.88402344 47.8009375 31.89304687 48.921875 31.90234375 C51.61480152 31.92596591 54.30729255 31.95890444 57 32 C56.51972476 47.09392339 51.10680549 60.60032902 40.75 71.75 C28.95817148 82.75043063 13.99374513 88.31769855 -2.02734375 88.16796875 C-4.10535449 87.99102922 -5.98532163 87.5254885 -8 87 C-6.92467737 68.76978436 -5.6455097 50.5541674 -4.26208496 32.34487915 C-4.08749427 30.03338217 -3.91569615 27.72167256 -3.7467041 25.40975952 C-3.5056887 22.12408313 -3.25417019 18.83936914 -3 15.5546875 C-2.92916199 14.56317184 -2.85832397 13.57165619 -2.78533936 12.5500946 C-2.42480711 8.03166571 -2.09332821 4.10924689 0 0 Z " fill="#FFFFFF" transform="translate(56,43)"/>
<path d="M0 0 C1.13457642 -0.00953201 2.26915283 -0.01906403 3.43811035 -0.02888489 C4.66831909 -0.02797348 5.89852783 -0.02706207 7.16601562 -0.02612305 C9.0524176 -0.03255074 9.0524176 -0.03255074 10.97692871 -0.03910828 C13.64019681 -0.04486036 16.30307842 -0.04627663 18.96630859 -0.04101562 C22.38308126 -0.03521638 25.79931266 -0.05216038 29.21599579 -0.0753603 C32.47016539 -0.09361211 35.72430401 -0.08991299 38.97851562 -0.08862305 C40.82382874 -0.10243767 40.82382874 -0.10243767 42.7064209 -0.11653137 C44.40828552 -0.10718819 44.40828552 -0.10718819 46.14453125 -0.09765625 C47.14665649 -0.09828568 48.14878174 -0.0989151 49.18127441 -0.0995636 C49.97030151 0.0239296 50.75932861 0.14742279 51.57226562 0.2746582 C54.28459502 4.34315229 53.87926449 6.43942605 53.57226562 11.2746582 C51.57226562 13.2746582 51.57226562 13.2746582 47.58154297 13.50170898 C45.85706393 13.50139157 44.1325653 13.49004944 42.40820312 13.4699707 C41.0473912 13.46572586 41.0473912 13.46572586 39.65908813 13.46139526 C36.7550144 13.45017973 33.85124651 13.42507283 30.94726562 13.3996582 C28.98112424 13.38963017 27.01497803 13.38050401 25.04882812 13.37231445 C20.22318904 13.35023592 15.39777922 13.31569685 10.57226562 13.2746582 C10.57226562 17.2346582 10.57226562 21.1946582 10.57226562 25.2746582 C11.55098633 25.26418457 12.52970703 25.25371094 13.53808594 25.24291992 C17.17590667 25.20666727 20.81371149 25.18373862 24.45166016 25.16479492 C26.02492968 25.15474933 27.59818059 25.1411104 29.17138672 25.1237793 C31.43526814 25.09946724 33.69890228 25.08816073 35.96289062 25.0793457 C36.6640802 25.06902313 37.36526978 25.05870056 38.08770752 25.04806519 C41.75790039 25.04722563 44.45315775 25.25353225 47.57226562 27.2746582 C47.62622041 28.89929662 47.66503757 30.52444361 47.69726562 32.1496582 C47.72046875 33.05458008 47.74367188 33.95950195 47.76757812 34.8918457 C47.57226562 37.2746582 47.57226562 37.2746582 45.57226562 39.2746582 C42.91934805 39.44976206 40.37240389 39.50621303 37.72070312 39.4699707 C36.94667145 39.46714081 36.17263977 39.46431091 35.37515259 39.46139526 C32.89903406 39.45018574 30.42327512 39.42508023 27.94726562 39.3996582 C26.27018751 39.38962938 24.59310373 39.38050336 22.91601562 39.37231445 C18.8012934 39.35024394 14.68684051 39.31570922 10.57226562 39.2746582 C10.57226562 43.2346582 10.57226562 47.1946582 10.57226562 51.2746582 C12.36627808 51.25109253 12.36627808 51.25109253 14.1965332 51.22705078 C18.63005856 51.17278759 23.06355451 51.1383213 27.49731445 51.10986328 C29.416961 51.0947684 31.33657303 51.07429047 33.25610352 51.04833984 C36.01392126 51.01198712 38.77128342 50.99493908 41.52929688 50.98168945 C42.38876419 50.9662056 43.24823151 50.95072174 44.13374329 50.93476868 C44.93434677 50.93454208 45.73495026 50.93431549 46.55981445 50.93408203 C47.61571526 50.92408928 47.61571526 50.92408928 48.69294739 50.91389465 C51.18619053 51.39251037 52.06044708 52.26284562 53.57226562 54.2746582 C53.96138315 57.84156886 54.11605346 60.27295441 52.38269043 63.46595764 C49.95482229 65.89151348 48.62587527 65.7757803 45.23046875 65.77636719 C44.13923706 65.78574814 43.04800537 65.79512909 41.92370605 65.80479431 C40.74554321 65.79356033 39.56738037 65.78232635 38.35351562 65.77075195 C37.14409302 65.77220718 35.93467041 65.77366241 34.68859863 65.77516174 C32.12977695 65.77350063 29.57094549 65.76191582 27.01220703 65.74121094 C23.08778595 65.71227265 19.16471605 65.72059544 15.24023438 65.73364258 C12.75715487 65.72740504 10.27407964 65.71901399 7.79101562 65.70825195 C6.02377136 65.71265541 6.02377136 65.71265541 4.2208252 65.71714783 C2.58397766 65.69812157 2.58397766 65.69812157 0.9140625 65.67871094 C-0.04729614 65.67330795 -1.00865479 65.66790497 -1.99914551 65.66233826 C-4.42773438 65.2746582 -4.42773438 65.2746582 -6.23832703 64.11294556 C-7.92676981 61.50337449 -7.8018995 59.55467689 -7.80004883 56.45800781 C-7.80627762 55.26344467 -7.81250641 54.06888153 -7.81892395 52.83811951 C-7.8097142 51.54745071 -7.80050446 50.25678192 -7.79101562 48.92700195 C-7.79049697 47.59086609 -7.79101488 46.25472946 -7.79252625 44.91859436 C-7.79243657 42.12009268 -7.78201561 39.32187936 -7.76391602 36.5234375 C-7.74120671 32.93302558 -7.74068906 29.34303416 -7.74743366 25.75257015 C-7.75077162 22.99451446 -7.74414727 20.23655499 -7.73430443 17.47851753 C-7.72857461 15.50976989 -7.7298894 13.54100586 -7.73127747 11.57225037 C-7.72174545 10.38083939 -7.71221344 9.18942841 -7.70239258 7.96191406 C-7.69778519 6.90951035 -7.6931778 5.85710663 -7.68843079 4.77281189 C-7.16625576 -0.23099104 -4.31297975 0.01982944 0 0 Z " fill="#FFFFFF" transform="translate(408.427734375,65.725341796875)"/>
<path d="M0 0 C0.87173355 -0.00953201 1.7434671 -0.01906403 2.64161682 -0.02888489 C4.06026283 -0.02751778 4.06026283 -0.02751778 5.50756836 -0.02612305 C6.48221542 -0.03040817 7.45686249 -0.0346933 8.46104431 -0.03910828 C10.52984846 -0.04486135 12.59867285 -0.04534468 14.66748047 -0.04101562 C17.81050008 -0.03787864 20.95255744 -0.06122233 24.09545898 -0.08666992 C26.10782759 -0.08894533 28.12019872 -0.08964529 30.13256836 -0.08862305 C31.06416275 -0.09783279 31.99575714 -0.10704254 32.95558167 -0.11653137 C40.1834874 -0.06616085 46.40715623 1.17294344 52.59741211 5.0246582 C59.37842493 11.99941425 60.15581331 19.28146294 60.05834961 28.6574707 C59.53645352 35.56141046 57.55334046 41.03038726 52.40991211 45.7746582 C43.89089261 52.19557524 32.95057288 51.41985757 22.78491211 51.3371582 C21.72401367 51.33264648 20.66311523 51.32813477 19.57006836 51.32348633 C16.97495613 51.31179663 14.37996502 51.29541096 11.78491211 51.2746582 C11.8197168 52.03391602 11.85452148 52.79317383 11.89038086 53.57543945 C11.91745117 54.56930664 11.94452148 55.56317383 11.97241211 56.5871582 C12.02461914 58.06635742 12.02461914 58.06635742 12.07788086 59.57543945 C11.78491211 62.2746582 11.78491211 62.2746582 10.44897461 64.10522461 C7.93367959 65.87286885 5.81830668 65.67196257 2.78491211 65.6496582 C1.73303711 65.65739258 0.68116211 65.66512695 -0.40258789 65.6730957 C-3.21508789 65.2746582 -3.21508789 65.2746582 -4.86759949 64.11329651 C-6.76989581 61.51762676 -6.58931479 59.65805649 -6.58740234 56.45800781 C-6.59363113 55.26344467 -6.59985992 54.06888153 -6.60627747 52.83811951 C-6.59706772 51.54745071 -6.58785797 50.25678192 -6.57836914 48.92700195 C-6.57785049 47.59086609 -6.57836839 46.25472946 -6.57987976 44.91859436 C-6.57979008 42.12009268 -6.56936913 39.32187936 -6.55126953 36.5234375 C-6.52856023 32.93302558 -6.52804257 29.34303416 -6.53478718 25.75257015 C-6.53812513 22.99451446 -6.53150078 20.23655499 -6.52165794 17.47851753 C-6.51592813 15.50976989 -6.51724292 13.54100586 -6.51863098 11.57225037 C-6.50909897 10.38083939 -6.49956696 9.18942841 -6.48974609 7.96191406 C-6.4851387 6.90951035 -6.48053131 5.85710663 -6.4757843 4.77281189 C-6.01626284 0.36939405 -3.93845387 0.02363274 0 0 Z M11.78491211 13.2746582 C11.78491211 21.1946582 11.78491211 29.1146582 11.78491211 37.2746582 C16.76584961 37.3674707 16.76584961 37.3674707 21.84741211 37.4621582 C22.88003174 37.48947021 23.91265137 37.51678223 24.9765625 37.54492188 C30.70007388 37.59626619 34.77554591 37.1285999 39.78491211 34.2746582 C42.7656953 29.80348341 42.38334223 25.51475781 41.78491211 20.2746582 C40.50227113 17.08690213 40.50227113 17.08690213 37.78491211 15.2746582 C31.82656962 13.41267618 26.49345258 13.01925577 20.28491211 13.1496582 C17.47991211 13.1909082 14.67491211 13.2321582 11.78491211 13.2746582 Z " fill="#FFFFFF" transform="translate(138.215087890625,65.725341796875)"/>
<path d="M0 0 C1.73056641 -0.02513672 1.73056641 -0.02513672 3.49609375 -0.05078125 C6.5625 0.3125 6.5625 0.3125 8.23109436 1.57791138 C9.86385441 3.70511208 9.93492606 4.77078356 9.93139648 7.42919922 C9.93827988 8.25370575 9.94516327 9.07821228 9.95225525 9.92770386 C9.94609695 10.81523346 9.93993866 11.70276306 9.93359375 12.6171875 C9.95097782 14.49869972 9.96856218 16.3802101 9.98632812 18.26171875 C9.99639882 21.22643449 9.99999797 24.19102959 9.99829102 27.15576172 C10.00186379 30.01826939 10.02921957 32.87984566 10.05859375 35.7421875 C10.05041122 36.62566864 10.0422287 37.50914978 10.03379822 38.41940308 C10.08408575 42.58254484 10.21474101 44.75795099 12.47412109 48.36083984 C16.5655239 52.18439304 21.43340726 51.59840578 26.796875 51.51953125 C30.87600066 51.21417297 33.12027138 50.58290611 36.5625 48.3125 C38.6194356 42.91477256 38.86894469 37.89885418 38.90625 32.16796875 C38.9208728 31.31697098 38.93549561 30.46597321 38.95056152 29.58918762 C39.01251105 25.97342385 39.05263407 22.35750134 39.09423828 18.74145508 C39.12786547 16.09177437 39.17296605 13.44246268 39.21875 10.79296875 C39.2240271 9.97217331 39.2293042 9.15137787 39.23474121 8.30570984 C39.33680001 2.53819999 39.33680001 2.53819999 41.5625 0.3125 C44.53125 0.046875 44.53125 0.046875 48.0625 0.0625 C49.2278125 0.05734375 50.393125 0.0521875 51.59375 0.046875 C54.5625 0.3125 54.5625 0.3125 56.5625 2.3125 C56.83665466 4.1940918 56.83665466 4.1940918 56.86889648 6.51171875 C56.88488388 7.38022461 56.90087128 8.24873047 56.91734314 9.14355469 C56.92270584 10.08618164 56.92806854 11.02880859 56.93359375 12 C56.94262222 12.97227539 56.9516507 13.94455078 56.96095276 14.94628906 C56.97548641 17.01087353 56.98434969 19.07550439 56.98803711 21.14013672 C56.99984963 24.27262496 57.04893268 27.40308908 57.09960938 30.53515625 C57.10908345 32.54426126 57.11631376 34.55337834 57.12109375 36.5625 C57.14062607 37.48893311 57.16015839 38.41536621 57.18028259 39.36987305 C57.13350169 46.24895192 55.42976595 51.58462547 51.5625 57.3125 C43.60685487 65.10899197 35.3719475 65.65793603 24.6875 65.625 C23.64980469 65.64111328 22.61210937 65.65722656 21.54296875 65.67382812 C12.82765856 65.67932328 5.11503685 64.23280083 -1.93359375 58.8359375 C-6.62517865 54.08342293 -8.54950227 47.4783638 -8.58276367 40.94287109 C-8.58914352 40.08873627 -8.59552338 39.23460144 -8.60209656 38.35458374 C-8.60320938 37.44093048 -8.6043222 36.52727722 -8.60546875 35.5859375 C-8.60879715 34.64191071 -8.61212555 33.69788391 -8.61555481 32.72525024 C-8.62061093 30.73317959 -8.62296354 28.7411005 -8.62280273 26.74902344 C-8.62499683 23.69191729 -8.64318717 20.63516768 -8.66210938 17.578125 C-8.66504197 15.6432304 -8.66702766 13.70833409 -8.66796875 11.7734375 C-8.67515427 10.85573578 -8.68233978 9.93803406 -8.68974304 8.99252319 C-8.68666641 8.14469269 -8.68358978 7.29686218 -8.68041992 6.42333984 C-8.68184494 5.67595551 -8.68326996 4.92857117 -8.68473816 4.15853882 C-8.03055786 -0.72599124 -3.94781122 0.01320338 0 0 Z " fill="#FFFFFF" transform="translate(208.4375,65.6875)"/>
<path d="M0 0 C0.8775915 2.91461623 1.03891628 5.08001127 0.59448242 8.08398438 C0.42386543 9.27803894 0.42386543 9.27803894 0.24980164 10.49621582 C0.11967178 11.3534021 -0.01045807 12.21058838 -0.14453125 13.09375 C-0.27437912 13.99508667 -0.40422699 14.89642334 -0.53800964 15.82507324 C-0.95559034 18.71782496 -1.38325906 21.60895733 -1.8125 24.5 C-2.36626038 28.25962245 -2.91435349 32.02001194 -3.45703125 35.78125 C-3.65922775 37.1734375 -3.65922775 37.1734375 -3.86550903 38.59375 C-4.90360714 45.90740269 -5.68300559 53.23072796 -6.27534485 60.59387207 C-6.63822152 64.74733409 -7.15292327 68.19001535 -9 72 C-10.32 71.67 -11.64 71.34 -13 71 C-13.26554687 69.79601562 -13.53109375 68.59203125 -13.8046875 67.3515625 C-14.16107493 65.7759549 -14.51786678 64.20043873 -14.875 62.625 C-15.04902344 61.8309375 -15.22304688 61.036875 -15.40234375 60.21875 C-15.57636719 59.45820312 -15.75039063 58.69765625 -15.9296875 57.9140625 C-16.08679199 57.2123291 -16.24389648 56.5105957 -16.40576172 55.78759766 C-16.92669906 53.77466989 -16.92669906 53.77466989 -19 52 C-21.50375468 51.75484303 -23.90549479 51.62666342 -26.4140625 51.5859375 C-27.50852188 51.55688828 -27.50852188 51.55688828 -28.62509155 51.5272522 C-30.95827502 51.46741578 -33.29150773 51.42105577 -35.625 51.375 C-37.20575082 51.33682386 -38.78648076 51.29777235 -40.3671875 51.2578125 C-44.2446223 51.16171122 -48.12215449 51.07769588 -52 51 C-51.07378101 39.52189897 -46.90522464 30.20107938 -40 21 C-39.39285156 20.18402344 -38.78570312 19.36804688 -38.16015625 18.52734375 C-28.28404814 6.97247585 -14.70889316 1.74733305 0 0 Z " fill="#FFFFFF" transform="translate(52,17)"/>
<path d="M0 0 C13.81599428 0.79707659 25.67638106 8.28493893 35.1875 18 C38.49469942 21.95500137 40.99038759 26.2010602 43.375 30.75 C43.70910889 31.36875 44.04321777 31.9875 44.38745117 32.625 C47.65377368 39.24340176 47.77435312 44.03329526 49 52 C39.1 52 29.2 52 19 52 C18.34 54.97 17.68 57.94 17 61 C16.34 62.32 15.68 63.64 15 65 C13.35 65 11.7 65 10 65 C7.73294037 53.28107795 5.70493841 41.53104573 3.78295898 29.75097656 C3.30736204 26.84359097 2.82462035 23.93744315 2.34179688 21.03125 C2.03602215 19.16413388 1.73066793 17.29694884 1.42578125 15.4296875 C1.28207596 14.57027557 1.13837067 13.71086365 0.99031067 12.82540894 C0.29240178 8.49874555 -0.16268038 4.40083862 0 0 Z " fill="#FF5353" transform="translate(64,18)"/>
<path d="M0 0 C3.95099928 -0.0246985 7.90196874 -0.04285923 11.85302734 -0.05493164 C13.85906551 -0.06244036 15.86508202 -0.0751447 17.87109375 -0.08789062 C19.75634766 -0.09272461 19.75634766 -0.09272461 21.6796875 -0.09765625 C23.42354736 -0.10551147 23.42354736 -0.10551147 25.20263672 -0.11352539 C28 0 28 0 30 1 C30.60668945 2.75219727 30.60668945 2.75219727 31.11328125 5.06640625 C31.30704346 5.93330078 31.50080566 6.80019531 31.70043945 7.69335938 C32.00340942 9.11358398 32.00340942 9.11358398 32.3125 10.5625 C32.63190552 12.01946289 32.63190552 12.01946289 32.95776367 13.50585938 C33.64730852 16.6687332 34.32343989 19.83432584 35 23 C35.4789634 25.19665891 35.9581299 27.39327355 36.4375 29.58984375 C36.89693601 31.72632567 37.35529814 33.86303886 37.8125 36 C38.03139893 37.00748291 38.25029785 38.01496582 38.47583008 39.05297852 C39.46831437 43.77557294 40.28718649 48.1424457 40 53 C37 54 37 54 34.87109375 53.28515625 C28.20212905 49.934617 22.62375157 45.89104621 17 41 C16.37222656 40.50242188 15.74445312 40.00484375 15.09765625 39.4921875 C7.40314333 32.82709921 2.05110366 20.82863887 0 11 C-0.15089717 7.32619841 -0.11959665 3.674275 0 0 Z " fill="#FFFFFF" transform="translate(0,74)"/>
<path d="M0 0 C4.5714698 -0.09943798 9.14229975 -0.17173349 13.71459961 -0.21972656 C15.26744565 -0.2397487 16.82021719 -0.26697517 18.37280273 -0.30175781 C20.61460832 -0.3506961 22.85541093 -0.37306168 25.09765625 -0.390625 C25.78336197 -0.41127014 26.46906769 -0.43191528 27.17555237 -0.45318604 C32.63468634 -0.45568444 35.62991116 0.95371585 40 4 C42.29090772 7.79431591 43 10.19814842 43 14.625 C41.46595163 19.80241324 38.38124528 22.07916981 34 25 C34.721875 25.825 35.44375 26.65 36.1875 27.5 C44 36.89732143 44 36.89732143 44 42 C32.93010606 42.78324721 32.93010606 42.78324721 29.625 40 C29.08875 39.01 28.5525 38.02 28 37 C26.9779436 35.56912104 25.93488633 34.15308762 24.875 32.75 C24.37742188 32.06421875 23.87984375 31.3784375 23.3671875 30.671875 C21.63682873 28.55589342 20.52844047 28.07726296 17.8359375 27.68359375 C17.02382812 27.60238281 16.21171875 27.52117188 15.375 27.4375 C13.93125 27.293125 12.4875 27.14875 11 27 C11 31.95 11 36.9 11 42 C7.37 42 3.74 42 0 42 C-1.63056957 38.73886087 -1.14171523 35.14520683 -1.1328125 31.5625 C-1.13376923 30.72662354 -1.13472595 29.89074707 -1.13571167 29.02954102 C-1.13639268 27.26090418 -1.13454391 25.49226485 -1.13037109 23.72363281 C-1.12502171 21.01101079 -1.13031875 18.29855435 -1.13671875 15.5859375 C-1.13605795 13.8697913 -1.13477676 12.1536452 -1.1328125 10.4375 C-1.13483673 9.62289307 -1.13686096 8.80828613 -1.13894653 7.96899414 C-1.11495964 2.22991928 -1.11495964 2.22991928 0 0 Z M11 9 C11 11.97 11 14.94 11 18 C13.41696872 18.05411124 15.83271787 18.09372278 18.25 18.125 C19.27287109 18.15013672 19.27287109 18.15013672 20.31640625 18.17578125 C24.03129485 18.21184813 26.90813512 18.18655456 30 16 C31.07642709 14.11149645 31.07642709 14.11149645 31 12 C29.47502933 10.0277923 28.58380087 9.10458485 26.09887695 8.65942383 C25.40238037 8.67513428 24.70588379 8.69084473 23.98828125 8.70703125 C23.23095703 8.71669922 22.47363281 8.72636719 21.69335938 8.73632812 C20.90767578 8.76146484 20.12199219 8.78660156 19.3125 8.8125 C18.51521484 8.82603516 17.71792969 8.83957031 16.89648438 8.85351562 C14.93070033 8.88882911 12.96526418 8.94263553 11 9 Z " fill="#FF5252" transform="translate(230,18)"/>
<path d="M0 0 C1.20011719 0.00515625 2.40023437 0.0103125 3.63671875 0.015625 C12.47066071 0.09566071 12.47066071 0.09566071 13.625 1.25 C13.72610353 4.1953557 13.76469279 7.1167756 13.7578125 10.0625 C13.75876923 10.94655518 13.75972595 11.83061035 13.76071167 12.74145508 C13.76139351 14.61442129 13.75953893 16.48738986 13.75537109 18.36035156 C13.75002289 21.23768388 13.75531593 24.11486008 13.76171875 26.9921875 C13.76105797 28.80729201 13.75977681 30.62239643 13.7578125 32.4375 C13.75983673 33.30415283 13.76186096 34.17080566 13.76394653 35.0637207 C13.73995009 41.13504991 13.73995009 41.13504991 12.625 42.25 C10.96070949 42.34823937 9.29218069 42.37973631 7.625 42.375 C6.26375 42.37886719 6.26375 42.37886719 4.875 42.3828125 C2.625 42.25 2.625 42.25 1.625 41.25 C1.625 38.28 1.625 35.31 1.625 32.25 C-4.975 32.25 -11.575 32.25 -18.375 32.25 C-19.035 35.22 -19.695 38.19 -20.375 41.25 C-21.375 42.25 -21.375 42.25 -23.87890625 42.34765625 C-24.88824219 42.33605469 -25.89757812 42.32445312 -26.9375 42.3125 C-27.94941406 42.30347656 -28.96132812 42.29445312 -30.00390625 42.28515625 C-30.78636719 42.27355469 -31.56882813 42.26195312 -32.375 42.25 C-31.77916346 34.71862612 -30.10291219 27.7633541 -28.0625 20.5 C-27.76666016 19.39011719 -27.47082031 18.28023437 -27.16601562 17.13671875 C-25.23279012 10.19714902 -23.82699516 5.3785761 -17.4609375 1.453125 C-11.90852702 -0.65163284 -5.84012199 -0.10234606 0 0 Z M-11.9375 10.875 C-14.46441632 15.04990522 -15.375 18.36737216 -15.375 23.25 C-9.765 23.25 -4.155 23.25 1.625 23.25 C1.625 18.63 1.625 14.01 1.625 9.25 C-5.50488142 8.58727484 -5.50488142 8.58727484 -11.9375 10.875 Z " fill="#FF5353" transform="translate(208.375,17.75)"/>
<path d="M0 0 C2.24330485 -0.00965174 4.48567232 -0.04063456 6.72875977 -0.07226562 C8.16299912 -0.07880107 9.59724504 -0.08404941 11.03149414 -0.08789062 C12.3343335 -0.09723633 13.63717285 -0.10658203 14.97949219 -0.11621094 C20.10831323 0.3912146 23.35856004 1.95037225 26.89477539 5.67773438 C29.92487486 10.27899653 30.11476655 14.79699144 29.58227539 20.24023438 C28.57326579 24.96034706 27.38007778 27.59201993 23.58227539 30.67773438 C19.79963611 32.647859 17.11866397 33.36466997 12.91430664 33.33789062 C12.02163086 33.33466797 11.12895508 33.33144531 10.20922852 33.328125 C8.81607422 33.31555664 8.81607422 33.31555664 7.39477539 33.30273438 C6.4544043 33.29822266 5.5140332 33.29371094 4.54516602 33.2890625 C2.22413827 33.27728063 -0.09676105 33.26082996 -2.41772461 33.24023438 C-2.39709961 34.53960937 -2.37647461 35.83898438 -2.35522461 37.17773438 C-2.33373006 38.53189071 -2.34624262 39.8877952 -2.41772461 41.24023438 C-3.41772461 42.24023438 -3.41772461 42.24023438 -5.66772461 42.37304688 C-6.57522461 42.37046875 -7.48272461 42.36789063 -8.41772461 42.36523438 C-9.77897461 42.36910156 -9.77897461 42.36910156 -11.16772461 42.37304688 C-13.41772461 42.24023438 -13.41772461 42.24023438 -14.41772461 41.24023438 C-14.51882814 38.29487867 -14.5574174 35.37345878 -14.55053711 32.42773438 C-14.55149384 31.5436792 -14.55245056 30.65962402 -14.55343628 29.7487793 C-14.55411812 27.87581308 -14.55226354 26.00284452 -14.5480957 24.12988281 C-14.5427475 21.2525505 -14.54804054 18.3753743 -14.55444336 15.49804688 C-14.55378258 13.68294236 -14.55250142 11.86783795 -14.55053711 10.05273438 C-14.55256134 9.18608154 -14.55458557 8.31942871 -14.55667114 7.42651367 C-14.51673186 -2.67850648 -8.45319001 0.02203503 0 0 Z M-2.41772461 9.24023438 C-2.41772461 14.19023437 -2.41772461 19.14023437 -2.41772461 24.24023438 C0.89258789 24.33304688 0.89258789 24.33304688 4.26977539 24.42773438 C5.51114258 24.46253906 6.75250977 24.49734375 8.03149414 24.53320312 C11.81736861 24.22083724 13.64936448 23.61709154 16.58227539 21.24023438 C17.54556434 17.70817489 17.96478472 15.35833856 16.76977539 11.86523438 C15.66241812 10.08935194 15.66241812 10.08935194 13.58227539 9.24023438 C10.86467431 9.16841616 8.17368151 9.14723931 5.45727539 9.17773438 C4.32612305 9.18450195 4.32612305 9.18450195 3.17211914 9.19140625 C1.30880412 9.20319938 -0.55447016 9.22113496 -2.41772461 9.24023438 Z " fill="#FF5353" transform="translate(146.417724609375,17.759765625)"/>
<path d="M0 0 C0.9075 0.00257812 1.815 0.00515625 2.75 0.0078125 C4.11125 0.00394531 4.11125 0.00394531 5.5 0 C7.75 0.1328125 7.75 0.1328125 8.75 1.1328125 C8.85110353 4.0781682 8.88969279 6.9995881 8.8828125 9.9453125 C8.88376923 10.82936768 8.88472595 11.71342285 8.88571167 12.62426758 C8.88639351 14.49723379 8.88453893 16.37020236 8.88037109 18.24316406 C8.87502289 21.12049638 8.88031593 23.99767258 8.88671875 26.875 C8.88605797 28.69010451 8.88477681 30.50520893 8.8828125 32.3203125 C8.88483673 33.18696533 8.88686096 34.05361816 8.88894653 34.9465332 C8.86495009 41.01786241 8.86495009 41.01786241 7.75 42.1328125 C6.08570949 42.23105187 4.41718069 42.26254881 2.75 42.2578125 C1.38875 42.26167969 1.38875 42.26167969 0 42.265625 C-2.25 42.1328125 -2.25 42.1328125 -3.25 41.1328125 C-3.35110353 38.1874568 -3.38969279 35.2660369 -3.3828125 32.3203125 C-3.38376923 31.43625732 -3.38472595 30.55220215 -3.38571167 29.64135742 C-3.38639351 27.76839121 -3.38453893 25.89542264 -3.38037109 24.02246094 C-3.37502289 21.14512862 -3.38031593 18.26795242 -3.38671875 15.390625 C-3.38605797 13.57552049 -3.38477681 11.76041607 -3.3828125 9.9453125 C-3.38483673 9.07865967 -3.38686096 8.21200684 -3.38894653 7.3190918 C-3.3608025 0.1983807 -3.3608025 0.1983807 0 0 Z " fill="#FF5353" transform="translate(281.25,17.8671875)"/>
</svg>
