<svg xmlns="http://www.w3.org/2000/svg" fill="none" viewBox="0 0 208 66"><path fill="#fff" d="M37.072 21.927a10.407 10.407 0 0 0-2.607-3.166 17.79 17.79 0 0 0-3.368-2.18 58.49 58.49 0 0 0-3.428-1.608h.005a59.905 59.905 0 0 1-2.755-1.287c-.787-.39-1.385-.806-1.81-1.216a1.697 1.697 0 0 1-.377-.53 1.36 1.36 0 0 1-.113-.558c.005-.307.074-.475.227-.673h.005l.005-.015c.178-.218.43-.406.846-.559.435-.153.98-.242 1.642-.242.96 0 2.053.183 3.28.573h.01c1.24.376 2.369.876 3.392 1.504l.93.569 4.437-9.16-.875-.436c-2.033-1.009-4.056-1.756-6.06-2.23C28.47.242 26.567 0 24.752 0c-2.484 0-4.749.425-6.767 1.296-2.013.856-3.65 2.142-4.848 3.823-1.201 1.697-1.79 3.755-1.785 6.055 0 1.74.321 3.284 1.009 4.59a10.072 10.072 0 0 0 2.592 3.15 16.813 16.813 0 0 0 3.358 2.118h.005a67.936 67.936 0 0 0 3.423 1.489c1.01.405 1.93.81 2.76 1.211h.005c.796.381 1.395.792 1.81 1.207.179.178.292.352.372.54.079.188.118.39.118.643-.005.375-.094.608-.311.87-.203.242-.544.48-1.094.668-.544.173-1.251.272-2.122.272-.875 0-1.736-.109-2.581-.331-.826-.238-1.702-.609-2.617-1.123-.91-.52-1.914-1.207-2.998-2.053l-.87-.683-5.313 8.642.703.544a22.944 22.944 0 0 0 6.618 3.596 22.716 22.716 0 0 0 7.484 1.246c2.77 0 5.238-.455 7.39-1.39 2.151-.93 3.883-2.26 5.114-3.982 1.257-1.74 1.885-3.793 1.885-6.034 0-1.667-.322-3.166-1.014-4.437h-.005Z"/><path fill="#000" d="M34.46 18.76h.005v.005l-.005-.005Z"/><path fill="#fff" d="M49.675 23.821h12.94V13.93h-12.94V10.58H63.53V.687H38.61v36.396H63.762V27.19H49.675V23.82ZM89.735 23.916l-.682.92a7.686 7.686 0 0 1-2.587 2.24c-1.004.534-2.083.802-3.3.802-1.122 0-2.131-.223-3.066-.663a7.846 7.846 0 0 1-2.503-1.87c-.712-.821-1.266-1.776-1.672-2.874-.401-1.088-.603-2.285-.603-3.606 0-1.306.202-2.493.603-3.58.406-1.104.96-2.044 1.667-2.85a7.863 7.863 0 0 1 2.503-1.875c.935-.44 1.944-.662 3.067-.662 1.21 0 2.295.267 3.299.8h.005a7.7 7.7 0 0 1 2.602 2.242l.687.925 7.85-7.91-.722-.697c-1.717-1.652-3.745-2.938-6.055-3.853C88.523.465 86.006 0 83.305 0c-2.73 0-5.283.47-7.642 1.425-2.33.93-4.382 2.26-6.13 3.976a18.256 18.256 0 0 0-4.05 5.99c-.954 2.305-1.43 4.813-1.43 7.499s.476 5.194 1.43 7.494a18.517 18.517 0 0 0 4.047 6.014v.005c1.746 1.697 3.793 3.023 6.123 3.972h.005c2.355.935 4.912 1.4 7.637 1.4 2.71 0 5.243-.455 7.568-1.375 2.33-.915 4.363-2.201 6.084-3.853l.727-.703-.717-.712-7.237-7.207.015-.01Z"/><path fill="#000" d="M90.83 1.4h.003l.005.005-.009-.005Z"/><path fill="#fff" d="M155.012.688h-24.924v34.856l-7.019-12.183c1.568-.969 2.834-2.23 3.744-3.764 1.083-1.825 1.608-3.982 1.608-6.4 0-2.577-.599-4.858-1.83-6.752-1.212-1.9-2.988-3.354-5.234-4.313-2.255-.97-4.926-1.435-8.008-1.435H97.814v36.395h11.064V25.711h3.21l6.564 11.381h36.598V27.2h-14.088V23.83h12.94V13.94h-12.94v-3.344h23.011v26.502h11.065V10.58h9.546V.687H155.012Zm-38.858 15.22c-.332.242-.777.45-1.365.593-.584.143-1.306.223-2.157.223h-3.759V10.58h3.759c.846 0 1.568.08 2.152.228.583.148 1.028.356 1.365.608h.005l.01.01c.336.247.564.524.732.876.163.35.257.79.257 1.35 0 .559-.094 1.004-.262 1.36a2.274 2.274 0 0 1-.737.895Z"/><path fill="#EEB84F" fill-rule="evenodd" d="M185.904 22.473a157.925 157.925 0 0 0-8.94 7.378l-.005.005c-2.132 1.9-5.292-1.236-3.146-3.146a166.644 166.644 0 0 1 11.21-9.128 318.255 318.255 0 0 1-.714-4.35c-.44-2.805 3.854-4.007 4.294-1.182.138.881.28 1.762.426 2.642a164.08 164.08 0 0 1 6.853-4.539c.245-.448.665-.818 1.288-1.007l.502-.153.502-.154c2.473-.756 3.824 2.785 1.716 4.066a160.312 160.312 0 0 0-10.018 6.627 273.434 273.434 0 0 0 2.342 11.433l.099.459c.161.744.468 2.167.703 3.155.143-.147.284-.274.373-.354.038-.035.067-.06.081-.075.5-.5.975-1.024 1.39-1.598 1.489-2.047 2.211-4.412 2.562-6.895.401-2.83 4.694-1.617 4.294 1.182-.51 3.576-1.92 6.87-4.299 9.606-1.539 1.768-4.176 4.123-6.53 2.912-.06.097-.129.194-.207.288-3.013 3.652-8.894 7.722-13.186 3.892l-.05.005c-.35 4.397-4.866 8.779-8.137 11.035-.817.563-1.824.968-2.8.982.194.886.386 1.772.574 2.66.594 2.8-3.699 3.981-4.293 1.182a422.94 422.94 0 0 0-2.094-9.32c-1.282 1.717-4.613.514-3.926-1.949.436-1.56 1.269-3.084 2.351-4.478a421.082 421.082 0 0 0-4.423-16.103c-.816-2.755 3.482-3.922 4.293-1.182a412.35 412.35 0 0 1 3.81 13.705c1.327-.985 2.745-1.779 4.134-2.304 2.522-.957 5.89-.849 8.132.642-.094-3.163 1.805-6.425 4.283-8.497 1.801-1.498 4.229-2.829 6.45-1.325 2.009 1.36 1.979 4.006 1.178 6.04-.726 1.846-2.039 3.978-3.708 5.696 1.718-.794 3.351-2.718 4.267-3.827.355-.431.76-.659 1.168-.73-.055-.262-.105-.523-.154-.776a24.457 24.457 0 0 0-.198-.972 266.03 266.03 0 0 1-2.447-11.548Zm-6.327 15.193c.94-.925 1.74-2.118 2.316-2.976l.077-.115.029-.044c.363-.547.767-1.155.95-1.796l.006-.021c-.893.555-1.726 1.447-2.33 2.267-.472.638-.916 1.67-1.048 2.685Zm-14.394 12.058c-.385-1.642-.78-3.282-1.185-4.92 2.02-1.996 4.687-3.517 6.932-3.3 3.556.346 1.459 3.616.128 5.268-.717.895-1.538 1.711-2.374 2.493-.351.326-.709.649-1.071.965-.56-.714-1.475-1.067-2.43-.506Z" clip-rule="evenodd"/><mask id="a" width="59" height="64" x="149" y="3" maskUnits="userSpaceOnUse" style="mask-type:luminance"><path fill="#fff" d="M207.593 3.734h-58v63h58v-63Z"/><path fill="#000" fill-rule="evenodd" d="M185.903 22.473a157.925 157.925 0 0 0-8.94 7.378l-.005.005c-2.132 1.9-5.292-1.236-3.146-3.146a166.644 166.644 0 0 1 11.21-9.128 318.255 318.255 0 0 1-.714-4.35c-.44-2.805 3.854-4.007 4.294-1.182.138.881.28 1.762.426 2.642a164.08 164.08 0 0 1 6.853-4.539c.245-.448.665-.818 1.288-1.007l.502-.153.502-.154c2.473-.756 3.824 2.785 1.716 4.066a160.312 160.312 0 0 0-10.018 6.627 273.434 273.434 0 0 0 2.342 11.433l.099.459c.161.744.468 2.167.703 3.155.143-.147.284-.274.373-.354.038-.035.067-.06.081-.075.5-.5.975-1.024 1.39-1.598 1.489-2.047 2.211-4.412 2.562-6.895.401-2.83 4.694-1.617 4.294 1.182-.51 3.576-1.92 6.87-4.299 9.606-1.539 1.768-4.176 4.123-6.53 2.912-.06.097-.129.194-.207.288-3.013 3.652-8.894 7.722-13.186 3.892l-.05.005c-.35 4.397-4.866 8.779-8.137 11.035-.817.563-1.824.968-2.8.982.194.886.386 1.772.574 2.66.594 2.8-3.699 3.981-4.293 1.182a422.94 422.94 0 0 0-2.094-9.32c-1.282 1.717-4.613.514-3.926-1.949.436-1.56 1.269-3.084 2.351-4.478a421.082 421.082 0 0 0-4.423-16.103c-.816-2.755 3.482-3.922 4.293-1.182a412.35 412.35 0 0 1 3.81 13.705c1.327-.985 2.745-1.779 4.134-2.304 2.522-.957 5.89-.849 8.132.642-.094-3.163 1.805-6.425 4.283-8.497 1.801-1.498 4.229-2.829 6.45-1.325 2.009 1.36 1.979 4.006 1.178 6.04-.726 1.846-2.039 3.978-3.708 5.696 1.718-.794 3.351-2.718 4.267-3.827.355-.431.76-.659 1.168-.73-.055-.262-.105-.523-.154-.776a24.457 24.457 0 0 0-.198-.972 266.03 266.03 0 0 1-2.447-11.548Zm-6.327 15.193c.94-.925 1.74-2.118 2.316-2.976l.077-.115.029-.044c.363-.547.767-1.155.95-1.796l.006-.021c-.893.555-1.726 1.447-2.33 2.267-.472.638-.916 1.67-1.048 2.685Zm-14.394 12.058c-.385-1.642-.78-3.282-1.185-4.92 2.02-1.996 4.687-3.517 6.932-3.3 3.556.346 1.459 3.616.128 5.268-.717.895-1.538 1.711-2.374 2.493-.351.326-.709.649-1.071.965-.56-.714-1.475-1.067-2.43-.506Z" clip-rule="evenodd"/></mask><g mask="url(#a)"><path fill="#000" d="m176.964 29.851-3.322-3.737-.109.097-.103.103 3.534 3.537Zm8.94-7.378 4.913-.929-1.508-7.974-6.444 4.933 3.039 3.97Zm-8.945 7.383 3.326 3.733.107-.095.101-.101-3.534-3.537Zm8.064-12.275 2.986 4.011 2.46-1.831-.518-3.024-4.928.845Zm3.58-5.531-4.94.77v.003l4.94-.774Zm.426 2.642-4.933.817 1.297 7.824 6.5-4.543-2.864-4.098Zm6.853-4.539 2.656 4.237 1.105-.693.626-1.144-4.387-2.4Zm1.288-1.007 1.456 4.783.01-.003.009-.003-1.475-4.777Zm1.004-.307-1.463-4.781-.012.004 1.475 4.777Zm1.716 4.066-2.597-4.272-.003.002 2.6 4.27Zm-10.018 6.627-2.913-4.063-2.575 1.847.57 3.116 4.918-.9Zm2.342 11.432 4.878-1.096-.003-.013-4.875 1.11Zm.099.46-4.887 1.053.022.105.027.104 4.838-1.262Zm0 0 4.888-1.054-.022-.105-.028-.104-4.838 1.262Zm.703 3.155-4.864 1.159 2.103 8.823 6.338-6.489-3.577-3.493Zm.373-.355-3.33-3.73-.011.01-.012.01 3.353 3.71Zm0 0 3.33 3.73.011-.01.012-.01-3.353-3.71Zm.081-.074-3.535-3.536h-.001l3.536 3.536Zm1.39-1.598-4.044-2.94-.006.008 4.05 2.932Zm2.562-6.895-4.95-.701h-.001l4.951.7Zm4.294 1.182-4.95-.708v.003l4.95.705Zm-4.299 9.606 3.771 3.284.002-.003-3.773-3.281Zm-6.53 2.912 2.288-4.446-4.117-2.119-2.428 3.942 4.257 2.623Zm-.207.288 3.857 3.182.002-.002-3.859-3.18Zm-13.186 3.891 3.329-3.73-1.636-1.46-2.182.214.489 4.976Zm-.05.005-.489-4.976-4.164.41-.332 4.17 4.985.396Zm-8.137 11.036 2.838 4.117.002-.002-2.84-4.115Zm-2.8.981-.069-5-6.129.084 1.314 5.988 4.884-1.072Zm.574 2.66 4.892-1.037-.001-.003-4.891 1.04Zm-4.293 1.183 4.891-1.037v-.004l-4.891 1.04Zm-2.094-9.32 4.865-1.152-2.467-10.423-6.406 8.585 4.008 2.99Zm-1.575-6.428 3.95 3.066 1.496-1.928-.599-2.366-4.847 1.228Zm-.13-17.284-4.794 1.42.001.002 4.793-1.422Zm3.81 13.705-4.839 1.257 1.865 7.182 5.956-4.425-2.982-4.014Zm4.134-2.304 1.77 4.676.003-.001-1.773-4.675Zm8.132.641-2.769 4.164 8.053 5.354-.286-9.666-4.998.148Zm4.283-8.496-3.198-3.843-.008.007 3.206 3.836Zm7.628 4.714-4.652-1.833-.002.005 4.654 1.828Zm-3.708 5.697-3.586-3.484 5.683 8.023-2.097-4.539Zm4.267-3.827 3.856 3.183.003-.004-3.859-3.18Zm1.168-.73.848 4.928 5.118-.88-1.074-5.081-4.892 1.034Zm-.352-1.748 4.867-1.142v-.003l-4.867 1.145Zm-8.774 3.645-4.958-.65-1.884 14.39 10.347-10.175-3.505-3.565Zm2.393-3.091 4.152 2.785.007-.01.006-.01-4.165-2.765Zm.029-.044-4.161-2.773-.005.008 4.166 2.765Zm0 0 4.16 2.774.005-.008-4.165-2.766Zm.95-1.796-4.803-1.39-.002.009-.002.007 4.807 1.374Zm.006-.021 4.804 1.388 3.618-12.515-11.062 6.88 2.64 4.247Zm-2.33 2.266 4.022 2.97.002-.002-4.024-2.968Zm-16.627 9.824-3.514-3.558-2.022 1.998.682 2.76 4.854-1.2Zm1.185 4.92-4.868 1.141 1.548 6.608 5.852-3.438-2.532-4.31Zm5.747-8.22.484-4.976h-.003l-.481 4.976Zm.128 5.268-3.894-3.136-.008.01 3.902 3.126Zm-2.374 2.493 3.404 3.662.005-.005.006-.005-3.415-3.652Zm-1.071.965-3.932 3.088 3.255 4.146 3.969-3.47-3.292-3.764Zm12.673-16.642a153.145 153.145 0 0 1 8.657-7.145l-6.078-7.94a163.102 163.102 0 0 0-9.223 7.611l6.644 7.474Zm.207-.195.005-.005-7.068-7.074-.005.005 7.068 7.074Zm-10.002-10.42c-1.597 1.42-2.497 3.414-2.385 5.561.103 1.983 1.038 3.615 2.147 4.72 2.174 2.165 6.514 3.47 10.032.335l-6.652-7.466c.522-.465 1.317-.746 2.135-.664.703.071 1.214.383 1.542.71.322.32.735.928.783 1.845.056 1.082-.434 1.967-.957 2.432l-6.645-7.473Zm11.546-9.402a171.5 171.5 0 0 0-11.546 9.403l6.645 7.472a161.291 161.291 0 0 1 10.873-8.854l-5.972-8.021Zm7.914 3.166a303.636 303.636 0 0 1-.702-4.28l-9.879 1.55c.231 1.474.473 2.947.725 4.419l9.856-1.689Zm-.702-4.28a2.72 2.72 0 0 1-.517 2.011 2.37 2.37 0 0 1-1.268.88c-.414.114-1.206.2-2.107-.275-1.076-.566-1.585-1.552-1.694-2.253l9.88-1.54c-.329-2.114-1.54-4.01-3.531-5.057-1.816-.955-3.737-.924-5.224-.51-2.878.798-6.127 3.776-5.418 8.294l9.879-1.55Zm-5.586.366c.14.896.285 1.792.433 2.686l9.865-1.635c-.143-.865-.283-1.731-.418-2.598l-9.88 1.547Zm9.564-6.907c-2.394 1.501-4.749 3.06-7.062 4.677l5.728 8.197a158.618 158.618 0 0 1 6.645-4.4l-5.311-8.474Zm2.487-1.554c-1.843.562-3.331 1.769-4.218 3.391l8.773 4.8c-.181.33-.433.64-.746.892a2.71 2.71 0 0 1-.897.484l-2.912-9.567Zm.505-.154-.524.16 2.95 9.555.48-.146-2.906-9.569Zm.48-.146-.48.146 2.906 9.569.524-.16-2.95-9.555Zm5.789 13.115c3.608-2.194 3.979-6.26 2.899-8.939-.558-1.384-1.598-2.756-3.174-3.632-1.666-.927-3.624-1.123-5.502-.548l2.926 9.562c-.641.196-1.503.16-2.286-.276a2.757 2.757 0 0 1-1.238-1.367c-.314-.777-.321-2.432 1.18-3.344l5.195 8.544Zm-9.702 6.419a155.1 155.1 0 0 1 9.705-6.42l-5.201-8.541a164.567 164.567 0 0 0-10.331 6.834l5.827 8.127Zm-7.832-3.164a278.954 278.954 0 0 0 2.384 11.641l9.751-2.218a267.963 267.963 0 0 1-2.298-11.223l-9.837 1.8Zm2.381 11.628.091.417 9.775-2.107a56.15 56.15 0 0 0-.109-.502l-9.757 2.192Zm.091.417c.157.728.476 2.21.726 3.261l9.728-2.319c-.221-.924-.515-2.289-.679-3.049l-9.775 2.107Zm9.167 5.595a1.13 1.13 0 0 1 .049-.047l.099-.091-6.705-7.42c-.087.08-.333.3-.597.571l7.154 6.987Zm.149-.138.075-.069c.015-.014.097-.088.189-.18l-7.072-7.07c.025-.026.046-.046.061-.06l.036-.034.029-.027-.002.002-.022.019 6.706 7.419Zm.264-.249c.609-.61 1.28-1.34 1.904-2.2l-8.1-5.866a8.456 8.456 0 0 1-.875.995l7.071 7.071Zm1.898-2.193c2.131-2.93 3.049-6.166 3.469-9.135l-9.902-1.4c-.282 1.996-.808 3.49-1.655 4.655l8.088 5.88Zm3.469-9.135c-.1.702-.6 1.724-1.708 2.313-.924.49-1.734.396-2.138.283a2.326 2.326 0 0 1-1.236-.85 2.698 2.698 0 0 1-.525-1.972l9.899 1.416c.643-4.492-2.602-7.431-5.453-8.226-1.478-.412-3.411-.454-5.24.518-2.013 1.07-3.201 3-3.5 5.117l9.901 1.401Zm-5.607-.223c-.386 2.707-1.429 5.084-3.121 7.03l7.545 6.562c3.066-3.525 4.842-7.736 5.476-12.182l-9.9-1.41Zm-3.119 7.027c-.288.33-.599.655-.914.938-.322.29-.584.479-.767.584-.192.11-.16.05.075.02.301-.04.732.001 1.134.208l-4.576 8.892c3.329 1.713 6.495.616 8.349-.45 1.856-1.066 3.331-2.581 4.24-3.624l-7.541-6.568Zm-7.017 3.573c.063-.102.128-.192.192-.27l7.717 6.361a7.59 7.59 0 0 0 .605-.846l-8.514-5.245Zm.194-.271c-1.165 1.412-2.77 2.73-4.184 3.32-.668.279-1.085.309-1.284.292-.12-.01-.269-.034-.533-.269l-6.658 7.46c4.04 3.606 8.816 3.211 12.328 1.745 3.353-1.4 6.196-3.944 8.044-6.184l-7.713-6.364Zm-9.819 2.097-.05.005.977 9.953.051-.005-.978-9.953Zm-4.546 4.585c-.057.727-.553 1.961-1.853 3.545-1.233 1.502-2.813 2.857-4.138 3.772l5.679 8.23c1.945-1.341 4.259-3.306 6.189-5.658 1.863-2.27 3.8-5.426 4.092-9.096l-9.969-.793Zm-5.99 7.315a1.17 1.17 0 0 1-.212.115c-.019.007-.017.005.009 0a.967.967 0 0 1 .172-.016l.137 9.999c2.229-.03 4.185-.91 5.57-1.864l-5.676-8.234Zm-4.846 6.17c.192.876.381 1.752.568 2.629l9.781-2.081c-.191-.898-.385-1.795-.582-2.692l-9.767 2.144Zm.567 2.625c-.144-.68.004-1.507.482-2.178a2.515 2.515 0 0 1 1.381-.988c.435-.12 1.164-.178 1.982.233.965.483 1.497 1.347 1.644 2.042l-9.782 2.074c.444 2.094 1.735 3.86 3.654 4.822 1.77.888 3.648.885 5.156.47 2.96-.815 6.243-3.937 5.266-8.549l-9.783 2.075Zm5.489-.895a421.304 421.304 0 0 0-2.12-9.43l-9.731 2.303a407.74 407.74 0 0 1 2.069 9.208l9.782-2.08Zm-10.993-11.27c1.11-1.486 2.689-1.267 3.299-1.002.409.178.942.55 1.316 1.236.418.767.444 1.577.283 2.152l-9.632-2.689c-.504 1.806-.32 3.692.569 5.324.846 1.55 2.163 2.577 3.48 3.15 2.424 1.052 6.31 1.014 8.7-2.19l-8.015-5.98Zm4.898 2.387c.224-.803.706-1.754 1.485-2.758l-7.9-6.13c-1.385 1.784-2.569 3.88-3.217 6.198l9.632 2.69Zm2.382-7.052a425.133 425.133 0 0 0-4.476-16.293l-9.588 2.839a415.206 415.206 0 0 1 4.37 15.91l9.694-2.456Zm-4.476-16.293c.199.67.135 1.62-.414 2.449-.468.706-1.081 1.02-1.525 1.141-.446.122-1.085.151-1.786-.172-.818-.378-1.37-1.084-1.57-1.762l9.589-2.838c-.607-2.048-2-3.636-3.826-4.48-1.71-.788-3.524-.81-5.045-.393-1.517.414-3.103 1.365-4.173 2.98-1.151 1.737-1.445 3.866-.838 5.914l9.588-2.84Zm-5.294 1.659a409.632 409.632 0 0 1 3.764 13.54l9.679-2.513a419.884 419.884 0 0 0-3.856-13.87l-9.587 2.843Zm11.585 16.297c1.003-.745 2.018-1.3 2.922-1.642l-3.54-9.353c-1.875.71-3.696 1.742-5.346 2.968l5.964 8.027Zm2.925-1.643c1.358-.516 2.972-.281 3.59.13l5.537-8.327c-3.864-2.57-8.988-2.551-12.673-1.154l3.546 9.35Zm11.357-4.182c-.036-1.202.818-3.112 2.492-4.511l-6.413-7.673c-3.283 2.743-6.227 7.359-6.075 12.48l9.996-.296Zm2.484-4.505c.312-.26.596-.465.845-.616.253-.153.405-.21.457-.225.041-.013-.074.029-.296.004a1.301 1.301 0 0 1-.558-.191l5.607-8.28c-2.595-1.757-5.376-1.785-7.619-1.114-2.051.614-3.719 1.81-4.833 2.736l6.397 7.686Zm.447-1.029a1.346 1.346 0 0 1-.401-.442c-.096-.168-.11-.28-.109-.275.001.009.009.095-.016.258-.024.16-.073.344-.144.526l9.303 3.667c1.079-2.737 1.984-8.62-3.025-12.013l-5.608 8.28Zm-.672.072c-.489 1.245-1.444 2.81-2.64 4.04l7.172 6.97c2.143-2.206 3.813-4.905 4.775-7.354l-9.307-3.656Zm3.043 12.064c1.614-.745 2.929-1.878 3.828-2.754.943-.92 1.724-1.855 2.198-2.43l-7.713-6.365c-.441.534-.934 1.116-1.466 1.634-.576.562-.937.79-1.042.837l4.195 9.078Zm6.029-5.187c-.313.38-.933.863-1.843 1.02l-1.696-9.856c-1.726.297-3.156 1.235-4.18 2.478l7.719 6.358Zm2.201-4.942c-.044-.208-.085-.422-.135-.682l-9.822 1.877c.047.247.106.555.173.872l9.784-2.067Zm-.135-.682c-.06-.319-.143-.755-.242-1.175l-9.735 2.285c.042.18.085.4.155.767l9.822-1.877Zm-.242-1.178c-.504-2.143-.98-4.293-1.432-6.456l-9.789 2.044c.468 2.24.962 4.473 1.487 6.702l9.734-2.29Zm-1.432-6.456a257.345 257.345 0 0 1-.969-4.876l-9.826 1.858c.319 1.69.654 3.377 1.006 5.063l9.789-2.045Zm-14.046 5.484c-.294.439-.571.85-.873 1.255-.304.407-.571.72-.796.942l7.011 7.13c1.364-1.34 2.434-2.967 2.964-3.757l-8.306-5.57Zm.078-.115-.078.115 8.305 5.571.077-.115-8.304-5.57Zm.015-.023-.029.043 8.331 5.531.029-.043-8.331-5.531Zm.309-.405c.029-.103.056-.167.065-.185.008-.018.004-.008-.022.038a4.347 4.347 0 0 1-.126.207c-.063.099-.131.202-.226.345l8.331 5.531c.269-.405 1.158-1.667 1.593-3.189l-9.615-2.747Zm.01-.036-.006.02 9.607 2.778.006-.02-9.607-2.778Zm6.497 6.623c.171-.232.368-.465.565-.661.205-.205.341-.302.382-.328l-5.281-8.491c-1.632 1.014-2.905 2.447-3.715 3.545l8.049 5.935Zm-.115.367c.002-.01.007-.043.022-.098a1.418 1.418 0 0 1 .118-.304c.016-.029.011-.014-.027.037l-8.045-5.939c-.981 1.329-1.742 3.162-1.983 5.006l9.915 1.298Zm-25.39 7.689c.4 1.618.79 3.238 1.171 4.861l9.736-2.282a446.19 446.19 0 0 0-1.199-4.98l-9.708 2.4Zm12.267-9.477c-2.381-.23-4.576.475-6.275 1.329-1.745.876-3.335 2.09-4.652 3.39l7.028 7.115c.703-.695 1.457-1.24 2.112-1.569.7-.352.96-.298.824-.311l.963-9.954Zm3.541 13.381c.677-.84 2.219-2.85 2.747-5.136.287-1.246.468-3.47-1.047-5.51-1.486-2.004-3.689-2.584-5.238-2.734l-.969 9.952c.229.023-.902-.018-1.823-1.26-.949-1.278-.709-2.517-.668-2.695.047-.204.07-.148-.136.194a8.75 8.75 0 0 1-.654.916l7.788 6.273Zm-2.853 3.01c.895-.838 1.92-1.846 2.861-3.02l-7.804-6.252c-.494.616-1.11 1.24-1.887 1.966l6.83 7.305Zm-1.194 1.076c.4-.35.795-.707 1.183-1.067l-6.808-7.325c-.314.292-.635.581-.958.864l6.583 7.528Zm-3.19.041c-.596.35-1.479.546-2.412.307-.836-.215-1.355-.683-1.622-1.024l7.865-6.176c-.828-1.055-2.085-2.057-3.757-2.486-1.769-.454-3.588-.154-5.139.757l5.065 8.622Z"/></g></svg>