<svg xmlns="http://www.w3.org/2000/svg" fill="none" viewBox="0 0 125 40">
  <g fill="#8DFFB0" clip-path="url(#a)">
    <path d="M0 12.77V20c0 4.94 3.88 8.92 8.64 8.92 4.78 0 8.63-4.01 8.63-8.92V9.32c0-.93-.73-1.69-1.63-1.69-.9 0-1.63.76-1.63 1.69v10.67a5.43 5.43 0 0 1-5.35 5.53 5.44 5.44 0 0 1-5.35-5.53v-7.22c0-.92-.73-1.68-1.63-1.68A1.64 1.64 0 0 0 0 12.77ZM32.31 28.35c.82.42 1.8.06 2.2-.78.41-.85.03-1.89-.78-2.28a2.12 2.12 0 0 1-1.15-1.88V11.06h2.07c.9 0 1.63-.76 1.63-1.68 0-.93-.74-1.69-1.63-1.69h-2.1V1.77c0-.93-.73-1.71-1.62-1.71-.9 0-1.63.75-1.63 1.68V7.7h-2.04c-.9 0-1.63.76-1.63 1.69 0 .92.74 1.68 1.63 1.68l2.07.06v12.26a5.43 5.43 0 0 0 2.98 4.97ZM46.24 11.03c-4.77 0-8.63 4.02-8.63 8.96v7.3c0 .64.33 1.2.87 1.51.54.28 1.2.25 1.7-.11.44-.31.72-.82.72-1.38V20a5.43 5.43 0 0 1 5.34-5.53c.9 0 1.63-.76 1.63-1.69 0-.92-.73-1.74-1.63-1.74ZM118.16 11.03c-4.78 0-8.64 4.02-8.64 8.96v7.3c0 .64.33 1.2.87 1.51.54.28 1.2.25 1.7-.11.44-.31.72-.82.72-1.38V20a5.44 5.44 0 0 1 5.34-5.53c.9 0 1.63-.76 1.63-1.69 0-.92-.7-1.74-1.63-1.74ZM64.14 11c-.9 0-1.63.79-1.63 1.72v.22a8.47 8.47 0 0 0-11.7.98 9.14 9.14 0 0 0 0 12.13 8.47 8.47 0 0 0 11.7.98v.17c0 .93.74 1.68 1.63 1.68.9 0 1.63-.75 1.63-1.68V12.72c0-.93-.73-1.72-1.63-1.72Zm-6.98 14.52a5.43 5.43 0 0 1-5.35-5.53 5.43 5.43 0 0 1 5.35-5.53c2.96 0 5.35 2.5 5.35 5.53a5.43 5.43 0 0 1-5.35 5.53ZM104.47 11c-.9 0-1.63.79-1.63 1.72v.22a8.47 8.47 0 0 0-11.7.98 9.14 9.14 0 0 0 0 12.13 8.47 8.47 0 0 0 11.7.98v.17c0 .93.73 1.68 1.63 1.68.92 0 1.63-.75 1.63-1.68V12.72c0-.93-.73-1.72-1.63-1.72ZM97.5 25.52a5.43 5.43 0 0 1-5.35-5.53 5.43 5.43 0 0 1 5.35-5.53c2.96 0 5.35 2.5 5.35 5.53a5.44 5.44 0 0 1-5.35 5.53ZM125 27.23v-14.4c0-.93-.73-1.69-1.63-1.69-.9 0-1.63.76-1.63 1.69v14.4c0 .92.73 1.68 1.63 1.68.9 0 1.63-.76 1.63-1.68ZM125 6c0-.92-.73-1.68-1.63-1.68-.9 0-1.63.76-1.63 1.69 0 .92.73 1.68 1.63 1.68.9 0 1.63-.76 1.63-1.68ZM23.92 1.71l.03 25.52c0 .92-.73 1.68-1.63 1.68-.9 0-1.63-.76-1.63-1.71V1.68c0-.92.73-1.68 1.63-1.68.9 0 1.6.79 1.6 1.71ZM85.6 16.06a8.59 8.59 0 0 0-9.73-4.8 8.86 8.86 0 0 0-6.7 8.7v18.33c0 .95.73 1.68 1.62 1.68.9 0 1.63-.73 1.63-1.68V26.95a8.47 8.47 0 0 0 10.81-.06 9.06 9.06 0 0 0 2.36-10.83Zm-7.8 9.46a5.43 5.43 0 0 1-5.35-5.53 5.43 5.43 0 0 1 5.35-5.53c2.96 0 5.35 2.5 5.35 5.53a5.42 5.42 0 0 1-5.35 5.53Z"/>
  </g>
  <defs>
    <clipPath id="a">
      <path fill="#fff" d="M0 0h125v40H0z"/>
    </clipPath>
  </defs>
</svg>
