<svg width="387" height="121" viewBox="0 0 387 121" fill="none" xmlns="http://www.w3.org/2000/svg">
<path d="M380.562 23.5667C380.202 23.5667 379.843 23.5267 379.483 23.4567C379.133 23.3867 378.793 23.2767 378.453 23.1367C378.123 23.0067 377.803 22.8367 377.503 22.6367C377.203 22.4367 376.923 22.2067 376.673 21.9567C375.653 20.9267 375.062 19.5067 375.062 18.0667C375.062 17.7067 375.093 17.3467 375.173 16.9867C375.243 16.6367 375.343 16.2867 375.483 15.9567C375.623 15.6267 375.793 15.3067 375.983 15.0067C376.193 14.7067 376.423 14.4267 376.673 14.1767C376.923 13.9167 377.203 13.6867 377.503 13.4867C377.803 13.2967 378.123 13.1167 378.453 12.9867C378.793 12.8467 379.133 12.7367 379.483 12.6667C381.273 12.3067 383.173 12.8967 384.453 14.1767C384.703 14.4267 384.933 14.7067 385.133 15.0067C385.333 15.3067 385.503 15.6267 385.643 15.9567C385.773 16.2867 385.883 16.6367 385.953 16.9867C386.023 17.3467 386.062 17.7067 386.062 18.0667C386.062 19.5067 385.473 20.9267 384.453 21.9567C383.423 22.9767 382.012 23.5667 380.562 23.5667Z" fill="#8DFFB0"/>
<path d="M121.344 87.6534C118.304 87.6534 115.844 85.1934 115.844 82.1534V59.9334C115.844 45.0934 127.914 33.0234 142.754 33.0234C145.794 33.0234 148.254 35.4834 148.254 38.5234C148.254 41.5634 145.794 44.0234 142.754 44.0234C133.984 44.0234 126.844 51.1634 126.844 59.9334V82.1534C126.844 85.1934 124.384 87.6534 121.344 87.6534Z" fill="#8DFFB0"/>
<path d="M342.758 87.6534C339.718 87.6534 337.258 85.1934 337.258 82.1534V59.9334C337.258 45.0934 349.328 33.0234 364.168 33.0234C367.208 33.0234 369.668 35.4834 369.668 38.5234C369.668 41.5634 367.208 44.0234 364.168 44.0234C355.398 44.0234 348.258 51.1634 348.258 59.9334V82.1534C348.258 85.1934 345.798 87.6534 342.758 87.6534Z" fill="#8DFFB0"/>
<path d="M27.07 87.2169C12.15 87.2169 0 75.0769 0 60.1469V37.8169C0 34.7769 2.46 32.3169 5.5 32.3169C8.54 32.3169 11 34.7769 11 37.8169V60.1469C11 69.0069 18.21 76.2169 27.07 76.2169C35.93 76.2169 43.14 69.0069 43.14 60.1469V28.2969C43.14 25.2569 45.6 22.7969 48.64 22.7969C51.68 22.7969 54.14 25.2569 54.14 28.2969V60.1469C54.14 75.0669 42 87.2169 27.07 87.2169Z" fill="#8DFFB0"/>
<path d="M69.1719 86.97C66.1319 86.97 63.6719 84.51 63.6719 81.47V5.5C63.6719 2.46 66.1319 0 69.1719 0C72.2119 0 74.6719 2.46 74.6719 5.5V81.47C74.6719 84.51 72.2119 86.97 69.1719 86.97Z" fill="#8DFFB0"/>
<path d="M380.562 86.8834C377.523 86.8834 375.062 84.4234 375.062 81.3834V38.2734C375.062 35.2334 377.523 32.7734 380.562 32.7734C383.602 32.7734 386.062 35.2334 386.062 38.2734V81.3834C386.062 84.4234 383.602 86.8834 380.562 86.8834Z" fill="#8DFFB0"/>
<path d="M100.978 33.78V69.09C100.978 72.06 102.448 74.42 103.128 74.87C103.148 74.87 103.158 74.88 103.178 74.89H103.188C106.058 75.59 107.858 78.44 107.248 81.34C106.708 83.94 104.418 85.72 101.868 85.72C101.498 85.72 101.118 85.68 100.738 85.6C93.9984 84.19 89.9784 76.1 89.9784 69.09V33.78H84.1484C81.1084 33.78 78.6484 31.31 78.6484 28.28C78.6484 25.25 81.1084 22.78 84.1484 22.78H89.9784V5.5C89.9784 2.46 92.4384 0 95.4784 0C98.5184 0 100.978 2.46 100.978 5.5V22.78H107.058C110.098 22.78 112.558 25.24 112.558 28.28C112.558 31.32 110.098 33.78 107.058 33.78H100.978Z" fill="#8DFFB0"/>
<path d="M198.131 32.9322C195.211 32.9322 192.821 35.2122 192.651 38.0922C188.141 34.7322 182.551 32.7422 176.501 32.7422C161.551 32.7422 149.391 44.9022 149.391 59.8522C149.391 74.8022 161.551 86.9522 176.501 86.9522C182.541 86.9522 188.121 84.9622 192.631 81.6122V81.9722C192.631 85.0122 195.091 87.4722 198.131 87.4722C201.171 87.4722 203.631 85.0122 203.631 81.9722V38.4322C203.631 35.3922 201.161 32.9322 198.131 32.9322ZM176.501 75.9522C167.621 75.9522 160.391 68.7322 160.391 59.8522C160.391 50.9722 167.621 43.7422 176.501 43.7422C185.381 43.7422 192.601 50.9722 192.601 59.8522C192.601 68.7322 185.381 75.9522 176.501 75.9522Z" fill="#8DFFB0"/>
<path d="M322.31 32.9322C319.39 32.9322 317 35.2122 316.83 38.0922C312.32 34.7322 306.73 32.7422 300.68 32.7422C285.73 32.7422 273.57 44.9022 273.57 59.8522C273.57 74.8022 285.73 86.9522 300.68 86.9522C306.72 86.9522 312.3 84.9622 316.81 81.6122V81.9722C316.81 85.0122 319.27 87.4722 322.31 87.4722C325.35 87.4722 327.81 85.0122 327.81 81.9722V38.4322C327.81 35.3922 325.34 32.9322 322.31 32.9322ZM300.68 75.9522C291.8 75.9522 284.57 68.7322 284.57 59.8522C284.57 50.9722 291.8 43.7422 300.68 43.7422C309.56 43.7422 316.78 50.9722 316.78 59.8522C316.78 68.7322 309.56 75.9522 300.68 75.9522Z" fill="#8DFFB0"/>
<path d="M240.129 32.7422C225.339 32.7422 213.279 44.6522 213.039 59.3922C213.039 59.4222 213.039 59.4622 213.039 59.5022V114.562C213.039 117.602 215.499 120.062 218.539 120.062C221.579 120.062 224.039 117.602 224.039 114.562V81.6422C228.539 84.9822 234.109 86.9522 240.129 86.9522C255.079 86.9522 267.239 74.7922 267.239 59.8522C267.239 44.9122 255.079 32.7422 240.129 32.7422ZM240.129 75.9522C231.389 75.9522 224.259 68.9622 224.039 60.2722C224.039 60.1322 224.039 59.9922 224.039 59.8522C224.039 59.7222 224.039 59.5822 224.039 59.4522C224.249 50.7522 231.379 43.7422 240.129 43.7422C248.879 43.7422 256.239 50.9722 256.239 59.8522C256.239 68.7322 249.009 75.9522 240.129 75.9522Z" fill="#8DFFB0"/>
</svg>
