<?xml version="1.0" encoding="UTF-8"?><svg id="Layer_1" xmlns="http://www.w3.org/2000/svg" viewBox="0 0 300 66"><defs><style>.cls-1{fill:#ff143f;}.cls-1,.cls-2{fill-rule:evenodd;}.cls-2{fill:#ffebcc;}</style></defs><path class="cls-2" d="M165.363,27.504h17.518c.784,0,1.488-.082,2.109-.248,.587-.154,1.105-.385,1.553-.689,.44-.299,.807-.659,1.096-1.08,.296-.429,.523-.937,.677-1.519,.141-.532,.185-.982,.131-1.349-.04-.275-.14-.501-.297-.675l-.012-.005c-.179-.201-.45-.362-.807-.478-.454-.147-1.043-.222-1.76-.222h-18.548l-1.661,6.265h0Zm-2.107,7.947l-3.941,14.867h-8.37l9.815-37.026h25.887c3.947,0,6.815,.993,8.616,2.977,.956,1.061,1.547,2.321,1.769,3.778,.207,1.366,.088,2.902-.364,4.606-.418,1.58-1.074,3.025-1.962,4.332-.885,1.301-1.999,2.455-3.335,3.457-1.337,1.004-2.786,1.755-4.342,2.259-1.548,.501-3.182,.751-4.899,.751h-18.875Zm40.865-1.249h8.404l-1.992-8.242-6.412,8.242h0Zm-20.036,13.73l26.809-34.64h5.227l9.171,37.026h-8.753l-2.129-8.659h-16.105l-6.691,8.659h-9.375l1.847-2.386h0Zm56.97-20.428h16.184c.798,0,1.511-.081,2.131-.245,.589-.156,1.111-.387,1.559-.692,.441-.299,.807-.659,1.096-1.08,.296-.429,.523-.937,.677-1.519,.143-.54,.185-.993,.127-1.353-.042-.26-.144-.476-.304-.638l-.012-.011c-.203-.212-.506-.38-.904-.501-.496-.15-1.138-.226-1.924-.226h-16.969l-1.66,6.265h0Zm-2.107,7.947l-3.941,14.867h-8.37l9.794-36.945h24.552c1.894,0,3.548,.238,4.96,.712,1.49,.5,2.705,1.267,3.643,2.293,.965,1.056,1.564,2.316,1.792,3.771,.215,1.371,.099,2.901-.347,4.585-.358,1.35-.915,2.619-1.668,3.799-.751,1.176-1.684,2.25-2.795,3.218-1.116,.971-2.319,1.763-3.605,2.364-.754,.353-1.533,.64-2.335,.862l5.672,15.339h-8.923l-5.724-14.867h-12.705Zm32.454,13.008l-.492,1.858h8.452l9.837-37.108h-8.452l-9.345,35.25Z"/><polygon class="cls-1" points="141.106 56.352 126.702 40.813 112.297 25.274 106.042 45.518 99.787 65.762 120.447 61.057 141.106 56.352"/><polygon class="cls-2" points="109.311 10.201 129.97 5.496 150.629 .791 144.374 21.035 138.119 41.279 123.715 25.739 109.311 10.201"/><path class="cls-2" d="M13.824,48.858L11.221,13.21h8.243l1.461,21.656,13.181-21.656h6.636l1.699,21.675,12.992-21.675h8.677l-22.262,37.027h-6.026l-1.839-23.036-14.101,23.036h-5.959l-.101-1.378h0Zm43.651-.481l-.492,1.859h33.948l2.085-7.866h-25.579l2.072-7.817h17.48l2.087-7.866h-17.481l1.466-5.53h26.63l2.106-7.948h-34.999l-9.323,35.168Z"/></svg>