<svg width="300" height="47" viewBox="0 0 300 47" fill="none" xmlns="http://www.w3.org/2000/svg">
<g clip-path="url(#clip0_2077_56)">
<path d="M187.664 29.3697C187.664 29.5766 187.603 30.6734 187.479 32.66H164.055C164.548 33.943 165.37 34.9363 166.521 35.6398C167.671 36.302 169.11 36.6331 170.836 36.6331C172.315 36.6331 173.548 36.4469 174.534 36.0744C175.562 35.7019 176.671 35.0604 177.863 34.1499L185.137 41.5375C181.849 45.1796 176.938 47.0007 170.404 47.0007C166.336 47.0007 162.76 46.2557 159.678 44.7657C156.596 43.2344 154.212 41.1237 152.527 38.4335C150.842 35.7433 150 32.722 150 29.3697C150 25.9759 150.822 22.9547 152.466 20.3059C154.151 17.6157 156.432 15.5256 159.308 14.0357C162.226 12.5458 165.493 11.8008 169.11 11.8008C172.521 11.8008 175.623 12.4837 178.418 13.8494C181.253 15.2152 183.493 17.2225 185.137 19.8713C186.822 22.5201 187.664 25.6862 187.664 29.3697ZM169.233 21.3612C167.794 21.3612 166.603 21.7544 165.658 22.5408C164.712 23.3271 164.096 24.4446 163.808 25.8931H174.657C174.37 24.486 173.753 23.3892 172.808 22.6029C171.863 21.7751 170.671 21.3612 169.233 21.3612Z" fill="white"/>
<path d="M132.931 11.3594C137.13 11.3594 140.497 12.6443 143.033 15.2143C145.611 17.7842 146.9 21.6602 146.9 26.8423V46.5592H132.807V29.3069C132.807 25.3466 131.414 23.3665 128.629 23.3665C127.049 23.3665 125.76 23.9353 124.762 25.0728C123.806 26.1682 123.328 27.9166 123.328 30.318V46.5592H109.235V11.9913H122.642V15.4039C123.973 14.0557 125.511 13.0446 127.257 12.3705C129.003 11.6964 130.894 11.3594 132.931 11.3594Z" fill="white"/>
<path d="M73.5766 3L59.6802 46.9998H43.9847L36.9744 23.4914L29.592 46.9998H13.8964L0 3H15.0751L22.6437 28.0171L30.6466 3H44.1088L51.6774 28.3313L59.6802 3H73.5766Z" fill="white"/>
<path d="M300 44.7021C297.83 45.9406 294.874 46.5598 291.131 46.5598C286.239 46.5598 282.474 45.3854 279.837 43.0366C277.199 40.6451 275.88 37.0792 275.88 32.3388V23.3706H271.095V12.801H275.88V3H290.301V12.801H297.448V23.3706H290.301V32.2107C290.301 33.2784 290.578 34.1111 291.131 34.709C291.684 35.3069 292.407 35.6058 293.3 35.6058C294.534 35.6058 295.618 35.2855 296.554 34.6449L300 44.7021Z" fill="#BE2126"/>
<path d="M268.357 29.3697C268.357 29.5766 268.295 30.6734 268.17 32.66H244.473C244.972 33.943 245.804 34.9363 246.968 35.6398C248.132 36.302 249.587 36.6331 251.333 36.6331C252.829 36.6331 254.077 36.4469 255.074 36.0744C256.114 35.7019 257.236 35.0604 258.442 34.1499L265.8 41.5375C262.475 45.1796 257.506 47.0007 250.896 47.0007C246.781 47.0007 243.164 46.2557 240.046 44.7657C236.928 43.2344 234.516 41.1237 232.812 38.4335C231.107 35.7433 230.255 32.722 230.255 29.3697C230.255 25.9759 231.086 22.9547 232.749 20.3059C234.454 17.6157 236.761 15.5256 239.671 14.0357C242.623 12.5458 245.928 11.8008 249.587 11.8008C253.037 11.8008 256.176 12.4837 259.003 13.8494C261.872 15.2152 264.137 17.2225 265.8 19.8713C267.505 22.5201 268.357 25.6862 268.357 29.3697ZM249.711 21.3612C248.256 21.3612 247.051 21.7544 246.095 22.5408C245.138 23.3271 244.515 24.4446 244.224 25.8931H255.199C254.908 24.486 254.285 23.3892 253.328 22.6029C252.372 21.7751 251.167 21.3612 249.711 21.3612Z" fill="#BE2126"/>
<path d="M211.999 13.8244C214.773 13.8244 217.315 14.5071 219.627 15.8723C221.977 17.1985 223.826 19.1294 225.175 21.6648C226.562 24.1613 227.255 27.0673 227.255 30.3829C227.255 33.6985 226.562 36.624 225.175 39.1594C223.826 41.6949 221.977 43.6452 219.627 45.0105C217.315 46.3367 214.773 46.9998 211.999 46.9998C208.107 46.9998 205.218 45.9271 203.33 43.7818V46.4147H190.905V3H203.966V16.5744C205.815 14.7411 208.493 13.8244 211.999 13.8244ZM208.878 36.702C210.38 36.702 211.613 36.1559 212.577 35.0637C213.54 33.9325 214.021 32.3722 214.021 30.3829C214.021 28.3935 213.54 26.8528 212.577 25.7606C211.613 24.6684 210.38 24.1223 208.878 24.1223C207.375 24.1223 206.142 24.6684 205.179 25.7606C204.216 26.8528 203.735 28.3935 203.735 30.3829C203.735 32.3722 204.216 33.9325 205.179 35.0637C206.142 36.1559 207.375 36.702 208.878 36.702Z" fill="#BE2126"/>
<path fill-rule="evenodd" clip-rule="evenodd" d="M91.5767 18.3441C86.5767 18.3441 83.2433 16.8591 83.2433 16.8591C83.2433 16.8591 85.6066 19.6667 87.6248 23.3517C88.8 25.9671 89.91 29.2612 89.91 32.3791C89.91 38.1978 90.001 42.9998 83.2746 45.8413C83.1672 45.8543 83.0695 45.9022 83.0044 45.9733C82.936 46.0436 82.9035 46.1335 82.91 46.2249C82.9165 46.3155 82.9686 46.4003 83.0467 46.4627L83.0955 46.4946C83.1639 46.5359 83.2485 46.5591 83.3364 46.5591H99.8039C99.856 46.5591 99.9015 46.5512 99.9471 46.5381C100.006 46.5207 100.058 46.4939 100.103 46.4598C100.181 46.396 100.23 46.3097 100.243 46.2169C100.25 46.1241 100.214 46.032 100.146 45.9595C100.077 45.8862 99.9797 45.8384 99.869 45.8246C93.001 42.9998 93.2433 37.5769 93.2433 32.3791C93.2433 29.2612 94.3534 25.9671 95.5285 23.3517C97.5467 19.6667 99.91 16.8591 99.91 16.8591C99.91 16.8591 96.5767 18.3441 91.5767 18.3441Z" fill="#8A1417"/>
<path fill-rule="evenodd" clip-rule="evenodd" d="M91.5762 20.1592C99.8607 20.1592 106.576 13.5109 106.576 5.30921C106.576 3.94442 106.391 2.62071 106.042 1.36549L106.007 1.45492C105.883 1.74979 105.736 2.0358 105.577 2.31214C105.235 2.91558 104.825 3.47391 104.356 3.97503C103.995 4.35853 103.601 4.70899 103.178 5.02159C102.634 5.42442 102.048 5.75877 101.43 6.0182C100.945 6.22283 100.44 6.38155 99.9225 6.49112C98.7507 6.74088 97.5365 6.73282 96.3678 6.46776C95.8307 6.3461 95.3099 6.17208 94.8086 5.94891C94.2552 5.70238 93.7279 5.39542 93.2331 5.03287L93.1582 4.96197C92.8359 4.71544 92.5299 4.44554 92.2435 4.1547C89.2389 1.68614 85.5117 0.347127 81.6738 0.359212H81.0423C79.7533 0.405135 78.4772 0.604939 77.2305 0.952181C76.8008 2.3347 76.5762 3.78731 76.5762 5.30921C76.5762 13.5109 83.2917 20.1592 91.5762 20.1592Z" fill="#BE2126"/>
</g>
<defs>
<clipPath id="clip0_2077_56">
<rect width="300" height="47.0007" fill="white"/>
</clipPath>
</defs>
</svg>
