<svg width="450" height="67" viewBox="0 0 450 67" fill="none" xmlns="http://www.w3.org/2000/svg">
<path d="M406.027 18.1125H387.368L390.735 1.45605H449.534L446.166 18.1125H427.507L418.132 65.1694H396.652L406.027 18.1125Z" fill="#8A42FD"/>
<path d="M352.149 17.6575L350.693 25.121H377.635L374.54 40.5943H347.507L345.869 48.968H377.817L374.54 65.1694H321.567L334.31 1.45605H386.099L382.823 17.6575H352.149Z" fill="#8A42FD"/>
<path d="M312.469 32.4025C315.199 33.6161 317.293 35.2848 318.749 37.4086C320.266 39.4717 321.025 41.9596 321.025 44.8722C321.025 51.6076 318.233 56.6743 312.651 60.0724C307.129 63.4704 299.999 65.1694 291.261 65.1694H246.215L258.958 1.45605H301C308.464 1.45605 314.138 2.791 318.021 5.46089C321.904 8.0701 323.846 11.8019 323.846 16.6562C323.846 20.2363 322.845 23.3917 320.843 26.1222C318.84 28.7921 316.049 30.8856 312.469 32.4025ZM285.345 16.4742L283.434 25.9402H294.356C299.089 25.9402 301.456 24.0895 301.456 20.388C301.456 19.1138 300.97 18.1429 299.999 17.4754C299.028 16.8079 297.633 16.4742 295.812 16.4742H285.345ZM292.445 50.1513C294.629 50.1513 296.389 49.6658 297.724 48.695C299.059 47.6634 299.726 46.2071 299.726 44.326C299.726 42.9911 299.21 41.9596 298.179 41.2314C297.208 40.5032 295.964 40.1392 294.447 40.1392H280.612L278.61 50.1513H292.445Z" fill="#8A42FD"/>
<path d="M279.51 1.45551L246.379 65.1689H223.351L219.71 31.5828L202.234 65.1689H179.207L171.561 1.45551H192.768L196.864 37.7721L215.796 1.45551H235.547L239.188 38.3182L258.393 1.45551H279.51Z" fill="#EAEAF9"/>
<path d="M130.719 66.626C124.226 66.626 118.522 65.4427 113.607 63.0762C108.753 60.6491 104.991 57.2814 102.321 52.9731C99.7118 48.6649 98.4072 43.7195 98.4072 38.137C98.4072 30.7341 100.106 24.1504 103.504 18.3859C106.963 12.5606 111.726 8.04002 117.794 4.82401C123.923 1.608 130.84 0 138.547 0C145.039 0 150.713 1.21359 155.567 3.64076C160.482 6.00726 164.244 9.34463 166.854 13.6529C169.523 17.9611 170.858 22.9065 170.858 28.489C170.858 35.8919 169.129 42.5059 165.67 48.3311C162.272 54.0957 157.509 58.586 151.38 61.802C145.312 65.018 138.425 66.626 130.719 66.626ZM132.539 49.2413C135.937 49.2413 138.88 48.3615 141.368 46.6018C143.917 44.8421 145.859 42.4756 147.193 39.5023C148.528 36.529 149.196 33.2826 149.196 29.7632C149.196 26.0011 148.073 22.9975 145.828 20.7524C143.644 18.5072 140.61 17.3846 136.726 17.3846C133.328 17.3846 130.355 18.2645 127.806 20.0242C125.319 21.7839 123.407 24.1504 122.072 27.1237C120.737 30.097 120.07 33.3433 120.07 36.8627C120.07 40.6249 121.162 43.6285 123.346 45.8736C125.592 48.1188 128.656 49.2413 132.539 49.2413Z" fill="#EAEAF9"/>
<path d="M107.949 1.45551L74.8177 65.1689H51.7899L48.1491 31.5828L30.6734 65.1689H7.64561L0 1.45551H21.2075L25.3033 37.7721L44.2353 1.45551H63.9864L67.6272 38.3182L86.8322 1.45551H107.949Z" fill="#EAEAF9"/>
</svg>
