<svg width="905" height="268" viewBox="0 0 905 268" fill="none" xmlns="http://www.w3.org/2000/svg">
<g clip-path="url(#clip0_1350_1515)">
<path d="M896.103 88.782C892.61 73.2785 880.592 60.9495 865.478 57.3634C860.928 56.28 855.563 56.28 844.884 56.28H752.788C742.099 56.28 736.744 56.28 732.194 57.3634C724.318 59.2377 717.206 63.4413 711.631 69.5191L710.689 70.5484L711.537 71.6534C715.773 77.1788 719.245 83.4841 721.85 90.4179C726.588 103.072 727.529 117.687 724.663 133.862C723.481 140.525 721.923 146.82 720.03 152.572L719.423 154.414L721.285 154.707C722.603 154.913 723.816 155.162 724.987 155.465C731.378 157.155 736.524 159.712 740.289 163.071L740.708 163.45L741.262 163.471C744.337 163.569 748.061 163.569 752.778 163.569H844.873C855.563 163.569 860.918 163.569 865.468 162.485C880.571 158.899 892.599 146.57 896.093 131.067C897.149 126.398 897.149 120.894 897.149 109.93C897.149 98.9659 897.149 93.4622 896.093 88.7928L896.103 88.782ZM798.559 116.214C799.856 123.862 806.226 129.42 813.714 129.42C819.457 129.42 824.634 126.17 827.291 121.002L834.089 123.895C830.272 131.901 822.438 136.993 813.714 136.993C801.184 136.993 790.986 126.43 790.986 113.451C790.986 100.472 801.184 89.9087 813.714 89.9087C824.111 89.9087 833.169 97.2 835.732 107.633L835.752 107.709C836.139 109.323 836.37 111.002 836.422 112.714V112.866C836.453 113.148 836.453 113.711 836.443 114.296H798.235L798.559 116.203V116.214ZM737.905 77.5471H745.226V98.6734L747.883 96.0515C749.546 94.4048 751.46 93.0397 753.552 92.0105C760.309 88.7061 767.871 89.2695 774.303 93.5489C780.956 97.9692 784.867 105.412 784.773 113.483C784.867 121.522 780.945 128.965 774.303 133.385C767.871 137.654 760.309 138.217 753.552 134.924C751.45 133.884 749.546 132.519 747.883 130.872L745.226 128.25V135.531H737.905V77.5471ZM849.099 90.8837C849.078 87.7636 849.067 85.4234 849.046 83.9283H856.326L856.253 92.5197H872.664V97.9367H856.211L856.023 119.106C855.897 123.342 857.78 126.484 861.263 127.936C863.261 128.878 865.52 128.868 867.507 128.868H868.354C870.561 128.889 872.695 128.835 874.965 128.716L875.394 135.119C873.019 135.281 870.635 135.379 868.396 135.39L866.21 135.411C857.79 135.888 850.322 129.789 849.528 121.804L849.507 121.685C849.297 120.309 849.193 104.697 849.161 99.5726V97.9583H840.229V92.5413H849.12V90.9054L849.099 90.8837Z" fill="#FF9800"/>
<path d="M650.541 104.153C651.608 104.684 652.696 105.204 653.794 105.702C654.076 105.832 654.359 105.951 654.641 106.081L654.85 106.168C655.614 106.504 656.388 106.84 657.162 107.165C657.57 107.338 657.988 107.511 658.406 107.674C659.18 107.988 659.965 108.281 660.76 108.573L661.168 108.725C661.419 108.822 661.67 108.92 661.931 109.006C663.029 109.397 664.128 109.776 665.247 110.144C665.623 110.263 666.01 110.382 666.397 110.502L666.826 110.632C667.475 110.837 668.123 111.032 668.772 111.227C669.41 111.412 670.048 111.596 670.696 111.769C671.23 111.921 671.763 112.062 672.296 112.202L672.443 112.235C673.112 112.408 673.782 112.582 674.462 112.744C674.681 112.798 674.911 112.853 675.131 112.907L675.528 112.993C678.394 113.665 681.312 114.25 684.21 114.738L684.869 114.846C685.883 115.008 686.908 115.171 687.944 115.312L688.163 115.344C692.567 115.951 697.096 116.384 701.698 116.612L702.033 116.634C703.361 116.699 704.689 116.742 706.049 116.774H706.269C707.524 116.807 708.779 116.818 710.044 116.818H711.226C712.21 116.796 713.193 116.785 714.186 116.764C715.63 116.72 717.073 116.677 718.527 116.601L720.044 116.525L720.023 114.954C719.96 111.043 719.604 107.208 718.956 103.568L718.872 103.124C718.736 102.409 718.6 101.704 718.443 101L718.286 100.307C718.14 99.6893 717.994 99.0717 717.826 98.4542L717.617 97.685C717.45 97.0783 717.272 96.4824 717.084 95.8757L717 95.6048C716.958 95.4532 716.906 95.3123 716.864 95.1715C716.602 94.3589 716.32 93.5464 716.017 92.7447C715.515 91.4121 714.971 90.0904 714.343 88.6819C713.914 87.7177 713.412 86.6885 712.774 85.4534L712.67 85.2476C712.617 85.1284 712.555 85.0201 712.502 84.9009C711.216 82.4524 709.783 80.0906 708.224 77.8696C707.806 77.2738 707.377 76.6887 706.938 76.1037C706.53 75.5728 706.122 75.042 705.704 74.5328C705.244 73.9586 704.762 73.3952 704.281 72.8318C703.664 72.1168 703.037 71.4234 702.388 70.7409C702.179 70.5242 701.97 70.3075 701.75 70.0908L701.531 69.8633C700.568 68.8991 699.805 68.1732 699.073 67.5232L698.654 67.1657C697.556 66.2014 696.562 65.3781 695.61 64.6522C686.5 57.5884 676.01 52.8865 664.441 50.6872C656.545 49.1813 649.129 48.5312 642.341 48.7371L641.504 48.7696C640.981 48.7913 640.448 48.8129 639.935 48.8454C639.694 48.8563 639.454 48.8779 639.213 48.8996L638.701 48.9429C638.324 48.9754 637.948 48.9971 637.571 49.0296C637.299 49.0513 637.038 49.0838 636.766 49.1163L636.212 49.1813C635.887 49.2138 635.574 49.2571 635.249 49.2896C634.956 49.3329 634.664 49.3655 634.371 49.4088L633.984 49.463C633.649 49.5063 633.325 49.5605 633 49.6146C632.624 49.6796 632.247 49.7446 631.829 49.8205C631.473 49.8855 631.128 49.9505 630.783 50.0155C630.386 50.0913 629.999 50.178 629.612 50.2647C629.277 50.3405 628.953 50.4055 628.618 50.4922C628.221 50.5897 627.823 50.6872 627.426 50.7955C627.122 50.8714 626.808 50.958 626.505 51.0447C626.097 51.1531 625.7 51.2722 625.302 51.3914C625.02 51.4781 624.738 51.5647 624.445 51.6623C624.037 51.7923 623.629 51.9331 623.221 52.0739C622.959 52.1606 622.698 52.2581 622.436 52.3556C622.018 52.5073 621.61 52.659 621.202 52.8215L620.481 53.114C620.062 53.2873 619.644 53.4607 619.236 53.6449L618.587 53.9374C618.159 54.1324 617.74 54.3274 617.322 54.5333L616.757 54.8258C616.318 55.0533 615.878 55.27 615.45 55.5083L614.989 55.7683C614.529 56.0283 614.079 56.2775 613.64 56.5484L613.326 56.7434C612.835 57.0467 612.343 57.3501 611.862 57.6643L610.774 58.3793L611.234 59.6252C618.399 78.7472 633.105 95.3882 650.551 104.131L650.541 104.153Z" fill="#FF9800"/>
<path d="M697.758 162.277C697.863 162.169 697.967 162.06 698.072 161.963L698.177 161.865C698.428 161.616 698.689 161.367 698.951 161.118C699.128 160.955 699.317 160.793 699.495 160.63C699.714 160.435 699.944 160.251 700.174 160.067L700.331 159.937C700.499 159.807 700.656 159.666 700.812 159.547L701.147 159.309C701.743 158.875 702.371 158.453 703.019 158.063L703.302 157.889C703.657 157.684 704.013 157.489 704.369 157.304L704.641 157.164C705.028 156.969 705.415 156.774 705.812 156.6C706.304 156.383 706.795 156.167 707.318 155.972C707.831 155.777 708.364 155.593 708.898 155.43C709.745 155.17 710.697 154.943 711.795 154.748L712.673 154.585L712.987 153.718C713.395 152.592 713.824 151.346 714.284 149.926L714.316 149.818C715.142 147.25 715.905 144.52 716.596 141.703L716.627 141.563C716.951 140.252 717.244 138.908 717.537 137.543L717.683 136.817C717.966 135.463 718.227 134.098 718.478 132.7C718.698 131.487 718.876 130.284 719.054 129.082L719.148 128.421C719.294 127.316 719.43 126.222 719.545 125.138L719.577 123.08L717.934 123.156C715.131 123.286 712.412 123.351 709.849 123.351C708.395 123.351 706.952 123.318 705.498 123.275C704.452 123.253 703.406 123.21 702.371 123.167C700.446 123.08 698.428 122.95 696.21 122.766C695.51 122.712 694.809 122.657 694.118 122.581L693.574 122.538C693.376 122.527 693.188 122.506 692.999 122.484L692.047 122.365C690.51 122.202 688.983 122.018 687.477 121.812L686.086 121.628L685.751 123.037L681.735 138.854C677.31 153.599 666.004 162.754 652.218 162.754C649.635 162.754 647.051 162.418 644.478 161.746L640.849 160.88C632.063 158.572 612.127 150.186 616.907 122.148C617.671 117.641 620.746 104.12 620.767 104.012C620.965 103.21 621.185 102.409 621.457 101.542C621.509 101.39 621.561 101.239 621.614 101.087L621.729 100.762C621.907 100.231 622.084 99.711 622.283 99.2018C622.367 98.9743 622.461 98.7576 622.555 98.5409L622.66 98.3026C622.848 97.8475 623.047 97.4033 623.245 96.97C623.392 96.6666 623.538 96.3633 623.695 96.0599C623.904 95.6482 624.124 95.2474 624.344 94.8465L625.306 93.1998L624.459 92.3005C616.823 84.1859 610.6 74.652 606.479 64.7389L605.569 62.5613L603.937 64.2189C603.341 64.8256 602.756 65.454 602.17 66.104L602.023 66.2665C601.448 66.9057 600.894 67.5666 600.318 68.2925C598.77 70.2101 597.275 72.3552 595.873 74.6628C595.287 75.6162 594.775 76.5046 594.294 77.3822L593.959 77.9889C593.603 78.6606 593.248 79.3431 592.903 80.0365C592.746 80.3398 592.599 80.6432 592.453 80.9574C592.139 81.6182 591.825 82.2791 591.522 82.9617C591.386 83.2758 591.25 83.59 591.114 83.9042L591.02 84.1209C590.738 84.7601 590.466 85.4101 590.194 86.071C590.068 86.3744 589.953 86.6777 589.838 86.9919L589.692 87.3927C589.284 88.4545 588.886 89.527 588.51 90.6321L588.384 91.0005C588.206 91.5205 588.018 92.0514 587.851 92.5822C587.725 92.9722 587.61 93.3623 587.485 93.7523L587.349 94.2073C587.14 94.8899 586.93 95.5724 586.732 96.2766C586.575 96.8075 586.428 97.36 586.282 97.9017C586.083 98.6492 585.884 99.4076 585.696 100.166C585.571 100.686 585.435 101.206 585.309 101.737C585.1 102.604 584.912 103.481 584.724 104.37L584.629 104.803C584.567 105.106 584.493 105.41 584.431 105.713C584.148 107.067 583.887 108.432 583.636 109.83C581.052 124.38 581.858 137.619 586.02 149.179C586.146 149.536 586.292 149.872 586.428 150.219C586.512 150.414 586.596 150.62 586.669 150.826C587.234 152.277 587.851 153.718 588.52 155.17L589.922 154.444L588.573 155.278C589.211 156.633 589.901 157.987 590.633 159.287L590.759 159.504C591.449 160.717 592.181 161.941 592.965 163.133L593.091 163.317C593.509 163.946 593.938 164.563 594.378 165.181C594.817 165.787 595.267 166.394 595.727 166.99C598.802 170.966 602.316 174.509 606.165 177.553C615.328 184.704 626.143 189.503 638.307 191.811C645.127 193.111 651.611 193.761 657.594 193.761C669.173 193.761 679.339 191.291 687.822 186.426L688.564 186.004L688.627 185.126C688.805 182.58 689.234 179.893 689.914 177.131C691.19 171.919 693.449 167.358 696.608 163.577C696.974 163.144 697.361 162.721 697.758 162.31V162.277Z" fill="#FF9800"/>
<path d="M723.452 161.754C718.776 160.519 714.456 160.487 710.702 161.635C706.915 162.805 703.851 164.82 701.34 167.789C698.788 170.844 697.042 174.408 695.996 178.688C694.092 186.434 694.489 192.739 697.178 197.431C699.866 202.089 705.273 205.513 713.233 207.614C715.712 208.265 718.065 208.6 720.282 208.6C722.374 208.6 724.341 208.308 726.161 207.723C729.968 206.488 733.001 204.44 735.428 201.493C737.969 198.427 739.685 194.982 740.678 190.93C742.613 183.054 742.226 176.683 739.517 171.992C736.829 167.301 731.422 163.856 723.462 161.754H723.452Z" fill="#FF9800"/>
<path d="M588.279 168.458C584.755 163.367 581.868 157.711 579.671 151.622C575.08 138.86 574.17 124.364 576.973 108.547C579.316 95.3183 583.06 83.8668 588.091 74.5062L588.3 74.1162L588.185 73.6937C587.913 72.6644 587.6 71.6136 587.254 70.5735L587.139 70.216C586.993 69.7826 586.836 69.3601 586.679 68.9376C586.585 68.6884 586.491 68.45 586.397 68.2117L586.334 68.06C586.208 67.7567 586.093 67.4533 585.957 67.15C585.717 66.5974 585.466 66.0557 585.204 65.5249C585.121 65.3623 585.037 65.1998 584.964 65.0482L584.87 64.864C584.66 64.4523 584.441 64.0514 584.19 63.6072C584.096 63.4339 583.991 63.2606 583.886 63.0872C583.541 62.513 583.196 61.9496 582.83 61.4079C574.996 49.8373 563.909 42.936 548.942 40.2925C545.532 39.6967 542.153 39.3933 538.89 39.3933C523.494 39.3933 503.224 45.9587 493.632 77.0414L492.45 76.8464L500.87 35.0272L502.021 11.9292C502.052 11.3441 501.853 10.7808 501.466 10.3474C501.079 9.91406 500.556 9.66488 499.992 9.65404L470.642 8.66815H470.517C469.398 8.66815 468.488 9.56737 468.425 10.7266L465.81 64.6798L466.019 64.9832C466.846 66.1857 467.651 67.4533 468.425 68.7534C474.492 79.0132 477.577 91.5697 477.577 106.076C477.577 128.069 472.19 145.328 461.574 157.354L461.323 157.646L461.009 164.201C460.957 165.371 461.825 166.389 462.965 166.476L492.471 168.502H492.586C493.716 168.502 494.626 167.592 494.678 166.422L496.739 113.108C497.199 103.39 499.27 93.5199 502.125 87.3662C505.169 80.9741 509.185 76.1205 514.059 72.9461C518.996 69.7826 524.592 68.3417 530.742 68.645C537.238 68.9701 542.519 70.5302 546.463 73.2711C550.406 75.9146 553.314 80.2699 555.092 86.2286C556.765 91.7864 557.424 101.472 556.891 112.815L554.705 172.868C554.663 173.973 555.437 174.937 556.493 175.089L585.78 179.498C585.884 179.509 585.978 179.52 586.072 179.52C587.192 179.52 588.112 178.61 588.154 177.451L588.499 168.729L588.29 168.426L588.279 168.458Z" fill="#FF9800"/>
<path d="M463.089 72.1669C457.566 62.8822 450.224 55.8618 441.281 51.3115C432.39 46.7287 422.684 44.3994 412.434 44.3994C392.467 44.3994 377.248 49.7189 367.207 60.217C366.684 60.7587 366.151 61.3546 365.471 62.1455C365.293 62.3513 365.115 62.568 364.948 62.7739C364.54 63.2722 364.143 63.7814 363.756 64.3014C363.473 64.6806 363.191 65.0707 362.919 65.4715L362.814 65.6232C362.637 65.8832 362.448 66.1432 362.27 66.4141L362.04 66.7608C361.758 67.1941 361.476 67.6491 361.214 68.0933L360.848 68.7109C359.865 70.4118 358.965 72.1886 358.181 73.987L357.334 76.988L357.731 73.0553L357.658 72.6978C357.083 70.0976 356.455 67.7683 355.733 65.5799C354.886 62.9905 353.892 60.5746 352.784 58.4078L352.428 57.7252C352.229 57.3677 352.031 57.0102 351.832 56.6527C351.654 56.3493 351.476 56.046 351.299 55.7534C351.121 55.4609 350.932 55.1576 350.755 54.8759C350.514 54.5075 350.263 54.15 350.012 53.7817L349.866 53.5758C349.761 53.4241 349.656 53.2833 349.552 53.1316C349.133 52.5574 348.694 51.994 348.244 51.4523C339.124 40.5425 327.179 34.7139 311.731 33.6521L310.789 33.598C309.628 33.533 308.53 33.5005 307.432 33.5005C293.5 33.5005 269.736 38.5708 260.741 71.0185L264.402 34.5188L263.251 11.4208C263.199 10.3808 262.676 9.44903 261.808 8.86399C261.274 8.51731 260.71 8.33313 260.124 8.33313L230.555 10.4566C228.861 10.5758 227.553 12.1142 227.637 13.8693L230.723 74.3662L231.214 74.9296C232.03 75.883 232.752 76.7497 233.4 77.5947C240.178 86.4136 244.424 97.7459 246.014 111.267C248.545 132.642 245.073 149.868 235.712 162.446L235.241 163.086L235.555 169.207C235.565 169.434 235.607 169.619 235.649 169.749C235.973 171.222 237.228 172.284 238.693 172.284L268.345 169.359C268.941 169.304 269.496 169.055 269.998 168.643C270.793 167.972 271.242 166.964 271.18 165.924L267.979 112.621C267.895 110.909 267.853 109.154 267.864 107.399C267.864 106.597 267.885 105.785 267.906 104.983C267.927 104.257 267.968 103.542 268 102.816L268.021 102.491C268.063 101.754 268.115 101.018 268.178 100.281L268.199 99.9669C268.251 99.3927 268.303 98.8185 268.366 98.2551L268.418 98.1359V97.7568C268.512 96.9875 268.617 96.24 268.722 95.4925L268.753 95.2541C268.826 94.7666 268.91 94.2899 268.983 93.824L269.067 93.3798L267.017 92.979L269.098 93.2498C269.213 92.6106 269.339 91.9931 269.475 91.3864C269.621 90.7147 269.778 90.0646 269.945 89.4363C270.071 88.9812 270.196 88.537 270.322 88.1037C270.447 87.6703 270.583 87.2586 270.719 86.8686C271.012 86.0561 271.326 85.2435 271.661 84.4635C271.901 83.8784 272.163 83.3151 272.424 82.7625C272.832 81.9175 273.282 81.0508 273.826 80.1191C274.275 79.339 274.662 78.7106 275.039 78.1473C275.457 77.5189 275.907 76.9122 276.346 76.338C277.696 74.6046 279.212 73.0553 280.834 71.7444C283.595 69.5343 286.691 67.9417 290.027 66.9883C290.529 66.8474 291.042 66.7174 291.565 66.5982C293.113 66.2516 294.755 66.024 296.429 65.9374C297.276 65.894 298.112 65.8615 298.928 65.8615C304.116 65.8615 308.499 66.8366 311.992 68.765C315.956 70.856 319.104 74.7021 321.364 80.2057C322.2 82.2208 322.954 84.8643 323.602 88.0929C324.02 90.1405 324.386 92.4156 324.7 94.8424C324.93 96.6084 325.129 98.4718 325.296 100.368C325.464 102.22 325.589 104.149 325.694 106.099L329.062 162.338C329.166 164.05 330.537 165.382 332.2 165.382L361.622 164.657C362.459 164.635 363.275 164.256 363.85 163.627C364.268 163.161 364.53 162.566 364.624 161.981C364.645 161.861 364.707 161.591 364.687 161.233L364.017 149.207L362.27 142.219L365.011 148.373L365.272 148.752C365.816 149.478 366.391 150.215 367.04 150.984C367.281 151.277 367.521 151.547 367.772 151.829L367.992 152.078C368.41 152.555 368.839 153.032 369.278 153.498C369.602 153.844 369.927 154.18 370.261 154.516C370.816 155.079 371.391 155.61 371.977 156.141L372.207 156.358C372.343 156.488 372.479 156.618 372.625 156.748C373.378 157.409 374.184 158.059 375.094 158.752C375.292 158.904 375.502 159.055 375.711 159.207L375.962 159.391C376.61 159.857 377.269 160.323 377.949 160.756L378.137 160.876C378.367 161.027 378.587 161.168 378.828 161.32C379.895 161.981 380.857 162.533 381.788 163.021C390.741 167.668 400.74 170.03 411.513 170.03C431.114 170.03 445.59 164.884 455.788 154.299C466.111 143.498 471.352 127.269 471.352 106.066C471.352 92.7731 468.59 81.3541 463.13 72.1344L463.089 72.1669ZM390.291 98.9377C390.553 90.7363 394.182 84.3226 400.521 80.8991C403.784 79.1332 407.602 78.2014 411.555 78.2014C416.419 78.2014 421.23 79.6315 425.1 82.2317C431.177 86.3161 434.263 92.9356 433.792 100.866V101.007C433.75 102.112 433.384 111.873 433.102 115.08C431.909 127.908 423.489 136.553 412.601 136.077L409.934 136.022C401.127 135.622 390.542 131.364 390.092 113.314C390.009 109.902 390.281 99.371 390.291 98.9268V98.9377Z" fill="#FF6B00"/>
<path d="M240.803 111.913C239.318 99.3995 235.448 88.9772 229.277 80.9492C223.043 72.8671 215.345 67.1251 206.412 63.9074C197.532 60.6464 188.098 59.6171 178.486 60.8414C161.688 62.9757 148.896 68.6852 140.466 77.8182L140.236 78.0674L138.803 81.1876L140.832 73.6038L135.968 23.4858C135.801 21.8174 134.462 20.5607 132.851 20.5607C132.715 20.5607 132.579 20.5607 132.433 20.5932L103.199 24.6992C101.505 24.9376 100.323 26.4977 100.5 28.2636L106.849 90.5156C107.77 99.5403 107.236 107.514 105.27 114.21C103.272 120.818 100.124 126.084 95.9296 129.854C91.6831 133.613 86.5476 135.856 80.6485 136.495C74.3833 137.178 69.1222 136.528 64.9594 134.502C60.9011 132.627 57.5645 128.955 55.0334 123.581C52.3976 118.045 50.5463 110.158 49.5317 100.136L42.8482 34.179C42.6808 32.5214 41.342 31.2646 39.7313 31.2646C39.5953 31.2646 39.4593 31.2646 39.3338 31.2971L10.0998 35.1974C8.42627 35.4249 7.20252 37.0175 7.38033 38.7617L14.3777 107.124C16.6474 129.464 22.013 145.801 30.3178 155.693L30.4329 155.812C37.4302 162.93 46.5926 165.064 53.6423 164.707L45.1806 168.791L44.9819 168.899C26.6256 180.394 17.8188 199.44 21.4168 219.862C23.561 232.04 30.9767 242.473 42.8586 250.024C53.2239 256.611 66.3504 260.382 78.8703 260.382C81.0982 260.382 83.3051 260.262 85.4284 260.024C97.9901 258.616 116.116 253.859 131.105 239.158C146.846 223.73 153.237 204.684 151.229 179.192L151.082 177.751L146.229 163.049L148.624 167.567L148.917 167.827C150.831 169.506 152.871 171.034 154.994 172.366L155.527 172.702C155.862 172.908 156.197 173.092 156.531 173.287L156.646 173.352C156.96 173.526 157.274 173.71 157.598 173.883C157.923 174.056 158.236 174.219 158.571 174.392C158.989 174.598 159.408 174.804 159.837 174.999L160.046 175.096C160.234 175.183 160.433 175.27 160.621 175.356C161.332 175.671 162.054 175.963 162.797 176.245C171.739 179.549 181.404 180.578 191.56 179.289C210.01 176.949 223.074 170.373 231.494 159.181C240.018 147.784 243.146 131.869 240.782 111.913H240.803ZM186.173 145.931C185.504 145.986 184.835 146.018 184.197 146.018C177.105 146.018 168.204 142.876 166.06 127.915C165.715 125.509 165.056 118.738 164.732 115.141C163.843 103.43 169.982 95.8351 181.582 94.3184C182.785 94.1559 183.966 94.08 185.096 94.08C195.765 94.08 202.919 100.938 203.756 111.989C203.881 113.516 204.551 121.869 204.624 124.621C204.885 134.112 199.99 144.751 188.621 145.671L186.163 145.931H186.173ZM117.235 181.868C115.907 198.769 110.196 206.363 105.374 211.087C99.4858 216.861 90.5744 220.556 80.9204 221.228C80.1255 221.282 79.3201 221.314 78.5356 221.314C66.2981 221.314 58.7255 214.803 56.8638 208.747C51.5086 191.272 69.4673 175.129 88.0642 165.844C98.8583 160.46 105.992 154.458 111.179 146.376C112.696 144.025 114.077 140.948 115.238 137.817C116.325 151.197 117.894 173.363 117.225 181.857L117.235 181.868Z" fill="#D90200"/>
<path d="M903.784 86.9646C901.723 77.8099 897.205 69.4678 890.73 62.8265C884.277 56.207 876.16 51.5809 867.27 49.4791C861.862 48.1898 856.193 48.1898 844.918 48.1898H752.823C741.548 48.1898 735.889 48.1898 730.471 49.4791C721.581 51.5917 713.464 56.207 707.011 62.8265C706.802 63.0432 706.614 63.2707 706.404 63.4874C704.48 61.6023 702.451 59.8147 700.296 58.1679C690.245 50.3783 678.656 45.178 665.885 42.7512C658.469 41.3428 651.377 40.6277 644.83 40.6277C629.549 40.6277 616.432 44.4954 605.837 52.1117C601.34 55.3186 597.302 59.273 593.715 63.8991C592.596 61.2881 591.267 58.7963 589.667 56.4345C580.609 43.0545 567.378 34.7557 550.329 31.7547C546.459 31.0721 542.599 30.7255 538.876 30.7255C530.759 30.7255 519.16 32.4156 508.387 40.1077L509.056 36.8033L509.203 36.0666L509.244 35.3082L510.374 12.3727C510.52 9.49087 509.516 6.60903 507.623 4.48557C505.73 2.36211 503.052 1.0837 500.26 0.997031L470.869 0.000305176H470.712H470.524C464.949 0.000305176 460.357 4.51807 460.075 10.2926L457.962 53.9318C453.925 50.1508 449.427 46.9873 444.501 44.4738C434.638 39.3818 423.833 36.7925 412.432 36.7925C390.436 36.7925 373.471 42.8703 362.007 54.8635C361.401 55.4919 360.815 56.1636 360.24 56.8353C358.503 53.0651 356.401 49.6091 353.786 46.4781C343.463 34.1273 329.479 27.2694 312.221 26.0777C310.578 25.9693 309.01 25.9152 307.43 25.9152C296.134 25.9152 285.664 28.8512 277.15 34.3982C275.09 35.7416 273.155 37.2258 271.324 38.8401L271.659 35.4599L271.732 34.7124L271.69 33.954L270.55 11.0185C270.268 5.25478 265.676 0.737015 260.101 0.737015C259.85 0.737015 259.61 0.737015 259.359 0.769517L230.031 2.88214C224.372 3.29383 220.01 8.39664 220.314 14.2578L222.855 64.2566C218.546 61.0823 213.85 58.5688 208.808 56.7595C201.612 54.1268 194.04 52.7726 186.342 52.7726C183.465 52.7726 180.526 52.9568 177.598 53.336C165.632 54.8527 155.455 58.0812 147.161 62.9782L143.259 22.7625C142.715 17.2047 138.249 13.0119 132.852 13.0119C132.382 13.0119 131.911 13.0444 131.44 13.1094L102.217 17.2155C96.579 18.0064 92.6254 23.2175 93.2216 29.0895L99.5704 91.3415C100.386 99.3262 99.947 106.282 98.2735 112.002C96.6732 117.289 94.3407 121.265 91.1401 124.147C88.0128 126.92 84.3311 128.502 79.8858 128.99C78.5366 129.141 77.2396 129.206 76.0368 129.206C72.8571 129.206 70.19 128.697 68.1085 127.69L68.0249 127.646L67.9412 127.614C65.4623 126.465 63.3913 124.082 61.6133 120.301C59.3436 115.534 57.7328 108.503 56.8019 99.3695L50.1184 33.4231C49.5536 27.887 45.0874 23.7159 39.7217 23.7159C39.272 23.7159 38.8222 23.7484 38.3829 23.8025L9.14887 27.7028C3.58446 28.4503 -0.484246 33.7915 0.111941 39.5985L7.10928 107.961C9.70322 133.486 15.9893 151.308 26.3128 162.423C28.4046 164.677 30.6534 166.692 33.0382 168.447C17.8406 181.664 10.6341 200.927 14.2217 221.252C19.5664 251.609 51.5304 267.989 78.8817 267.989C81.3711 267.989 83.8395 267.859 86.2242 267.589C99.9051 266.061 119.673 260.839 136.147 244.696C152.746 228.413 160.005 208.663 158.802 182.791C159.304 182.997 159.806 183.192 160.319 183.387C167.598 186.074 175.276 187.439 183.172 187.439C186.216 187.439 189.344 187.233 192.481 186.843C207.7 184.915 219.707 180.256 228.838 172.726C230.303 176.919 234.162 179.877 238.67 179.877C239.005 179.877 239.35 179.855 239.685 179.823L269.013 176.908C274.661 176.345 278.803 171.318 278.458 165.457L275.257 112.175C274.828 103.703 275.738 94.8084 277.59 89.4781C279.462 84.2778 281.982 80.4426 285.319 77.7449C288.582 75.1448 292.348 73.758 296.803 73.5197C297.525 73.4763 298.236 73.4547 298.916 73.4547C302.88 73.4547 306.112 74.1264 308.508 75.4481L308.581 75.4914L308.654 75.5348C311.07 76.8132 313.016 79.3158 314.605 83.1727C316.404 87.5172 317.837 96.4444 318.35 106.498V106.542V106.585L321.718 162.824C322.063 168.523 326.644 172.986 332.156 172.986H332.418L361.767 172.26C364.58 172.195 367.3 170.928 369.214 168.783C370.124 167.764 370.825 166.562 371.295 165.273C373.555 166.952 375.908 168.479 378.418 169.801C388.438 175.012 399.546 177.634 411.47 177.634C428.519 177.634 442.158 173.972 452.868 166.529C453.81 171.166 457.648 174.806 462.407 175.132L491.892 177.157C492.122 177.168 492.353 177.179 492.583 177.179C498.22 177.179 502.812 172.607 503.032 166.779L505.092 113.508C505.5 105.036 507.289 96.2818 509.642 91.179C512.006 86.2062 514.903 82.6635 518.48 80.3234C521.66 78.2866 525.132 77.3007 529.086 77.3007C529.494 77.3007 529.912 77.3115 530.331 77.3332C535.278 77.5824 539.137 78.6441 541.784 80.4859L541.857 80.5401L541.93 80.5942C544.21 82.1218 545.905 84.8087 547.097 88.8281C548.467 93.3458 549.011 102.371 548.53 112.424V112.479V112.533L546.344 172.586C546.145 178.133 549.984 182.921 555.287 183.712L584.563 188.121C585.054 188.197 585.567 188.23 586.069 188.23C591.142 188.23 595.357 184.525 596.309 179.53C597.94 181.09 599.645 182.596 601.434 184.005C611.621 191.946 623.545 197.254 636.922 199.79C644.202 201.176 651.168 201.881 657.622 201.881C668.96 201.881 679.126 199.725 687.964 195.478C688.54 197.666 689.366 199.725 690.464 201.631C694.261 208.208 701.279 212.877 711.32 215.531C714.437 216.355 717.439 216.766 720.305 216.766C723.171 216.766 725.922 216.355 728.505 215.521C733.703 213.83 738.044 210.894 741.401 206.81C744.696 202.845 747.008 198.186 748.294 192.975C750.313 184.774 750.229 177.634 748.054 171.697C749.528 171.697 751.097 171.697 752.813 171.697H844.908C856.183 171.697 861.841 171.697 867.259 170.408C876.15 168.295 884.266 163.68 890.72 157.06C897.194 150.419 901.702 142.077 903.773 132.922C905.028 127.343 905.028 121.525 905.028 109.943C905.028 98.362 905.028 92.5441 903.773 86.9646H903.784ZM612.74 59.0671C613.201 58.7638 613.682 58.4604 614.152 58.1679C614.257 58.1029 614.351 58.0379 614.445 57.9837C614.874 57.7237 615.324 57.4745 615.763 57.2254C615.909 57.1387 616.056 57.052 616.202 56.9762C616.621 56.7487 617.039 56.532 617.468 56.3153C617.646 56.2178 617.834 56.1311 618.012 56.0336C618.42 55.8386 618.828 55.6436 619.246 55.4486C619.455 55.3511 619.664 55.2536 619.874 55.1561C620.271 54.9827 620.679 54.8094 621.087 54.6469C621.317 54.5494 621.558 54.4519 621.788 54.3652C622.185 54.2135 622.583 54.0618 622.991 53.9102C623.242 53.8127 623.503 53.726 623.754 53.6393C624.152 53.4985 624.539 53.3685 624.946 53.2385C625.218 53.1518 625.501 53.0651 625.773 52.9784C626.16 52.8593 626.557 52.7509 626.944 52.6318C627.237 52.5451 627.54 52.4692 627.844 52.3934C628.231 52.2959 628.618 52.1984 629.005 52.1009C629.329 52.0251 629.643 51.9492 629.967 51.8842C630.344 51.7975 630.731 51.7217 631.107 51.6459C631.452 51.5809 631.797 51.5159 632.143 51.4509C632.519 51.3858 632.896 51.31 633.272 51.2558C633.638 51.1908 634.015 51.1475 634.381 51.0933C634.747 51.0392 635.113 50.985 635.479 50.9417C635.877 50.8875 636.274 50.8441 636.671 50.8008C637.027 50.7575 637.383 50.725 637.738 50.6816C638.178 50.6383 638.617 50.6058 639.056 50.5733C639.391 50.5516 639.715 50.5191 640.05 50.4975C640.562 50.465 641.075 50.4433 641.587 50.4216C641.859 50.4108 642.131 50.3891 642.414 50.3891C643.209 50.3675 644.014 50.3566 644.83 50.3566C650.844 50.3566 657.297 51.0067 664.19 52.3176C675.57 54.4844 685.737 59.0346 694.7 65.9792C695.725 66.7593 696.708 67.5826 697.671 68.4277C697.807 68.5469 697.943 68.6552 698.079 68.7744C698.905 69.5111 699.689 70.2695 700.463 71.0495C700.746 71.3312 701.028 71.602 701.3 71.8946C701.928 72.5554 702.545 73.238 703.141 73.9313C703.612 74.473 704.072 75.0256 704.522 75.5889C704.93 76.0981 705.327 76.6073 705.724 77.1274C706.153 77.6907 706.561 78.2649 706.969 78.8391C708.486 81.0059 709.877 83.2811 711.142 85.6862C711.237 85.8595 711.32 86.0546 711.404 86.2279C711.937 87.2571 712.45 88.2972 712.931 89.3806C713.506 90.6698 714.061 91.9916 714.563 93.3458C714.856 94.1259 715.127 94.9059 715.378 95.6968C715.452 95.9243 715.514 96.1518 715.588 96.3902C715.765 96.9644 715.943 97.5494 716.111 98.1344C716.184 98.3836 716.247 98.6328 716.309 98.882C716.466 99.4779 716.613 100.074 716.759 100.68C716.811 100.908 716.864 101.125 716.916 101.352C717.062 102.035 717.209 102.717 717.334 103.411C717.366 103.551 717.387 103.703 717.418 103.844C718.046 107.408 718.401 111.114 718.464 114.96C717.021 115.035 715.588 115.09 714.165 115.122C713.182 115.144 712.209 115.155 711.237 115.165C710.85 115.165 710.452 115.176 710.065 115.176C708.82 115.176 707.576 115.165 706.331 115.133C706.247 115.133 706.174 115.133 706.091 115.133C704.762 115.1 703.444 115.057 702.126 114.992C697.461 114.765 692.88 114.342 688.404 113.725C688.33 113.725 688.257 113.703 688.184 113.692C687.159 113.551 686.144 113.389 685.14 113.226C684.921 113.194 684.711 113.15 684.492 113.118C681.574 112.63 678.718 112.056 675.905 111.395C675.559 111.309 675.204 111.233 674.859 111.146C674.137 110.973 673.426 110.789 672.725 110.604C672.192 110.464 671.669 110.323 671.146 110.182C670.508 110.008 669.87 109.824 669.242 109.64C668.593 109.456 667.956 109.25 667.317 109.055C666.795 108.893 666.272 108.741 665.759 108.568C664.65 108.21 663.563 107.831 662.485 107.441C662.098 107.3 661.722 107.148 661.335 107.007C660.561 106.715 659.787 106.422 659.023 106.119C658.615 105.957 658.207 105.783 657.799 105.621C657.036 105.307 656.272 104.982 655.519 104.646C655.174 104.494 654.818 104.342 654.473 104.18C653.396 103.681 652.319 103.183 651.273 102.652C634.234 94.115 619.685 77.5607 612.74 59.0238V59.0671ZM382.696 161.112C381.723 160.603 380.793 160.051 379.872 159.487C379.59 159.314 379.318 159.13 379.035 158.946C378.387 158.523 377.759 158.09 377.142 157.635C376.87 157.429 376.588 157.234 376.316 157.028C375.51 156.41 374.726 155.782 373.962 155.11C373.753 154.926 373.544 154.72 373.335 154.536C372.781 154.027 372.226 153.518 371.693 152.976C371.379 152.662 371.065 152.326 370.751 152.001C370.333 151.557 369.925 151.102 369.517 150.647C369.214 150.3 368.9 149.953 368.597 149.585C367.99 148.859 367.394 148.112 366.819 147.332L361.809 136.086L358.932 137.733L361.641 148.263L361.924 149.347C361.966 150.062 362.007 150.755 362.039 151.438C362.039 151.459 362.039 151.481 362.039 151.513C362.07 151.99 362.091 152.434 362.112 152.889C362.133 153.323 362.164 153.745 362.185 154.146C362.238 155.164 362.29 156.118 362.342 156.974C362.363 157.331 362.384 157.667 362.394 158.003C362.426 158.566 362.457 159.108 362.478 159.574C362.52 160.311 362.551 160.917 362.583 161.394C362.583 161.47 362.562 161.535 362.551 161.611C362.52 161.827 362.447 162.033 362.311 162.185C362.122 162.391 361.861 162.521 361.568 162.532L354.226 162.716L332.209 163.257C332.209 163.257 332.198 163.257 332.188 163.257C331.633 163.257 331.184 162.813 331.142 162.239L330.294 148.177L327.763 106C327.659 104.061 327.533 102.111 327.366 100.204C327.198 98.297 327 96.4118 326.759 94.5917C326.445 92.1649 326.069 89.8356 325.64 87.6797C324.992 84.4511 324.207 81.6126 323.276 79.3808C320.808 73.3788 317.367 69.2077 312.932 66.8676C309.146 64.7766 304.47 63.7257 298.916 63.7257C298.069 63.7257 297.19 63.7474 296.301 63.8016C294.502 63.8991 292.777 64.1374 291.103 64.5058C290.549 64.625 289.994 64.7658 289.45 64.9283C285.832 65.9575 282.526 67.6693 279.535 70.0636C277.767 71.4937 276.146 73.1405 274.692 75.0147C274.211 75.6323 273.74 76.2823 273.291 76.954C272.841 77.6257 272.412 78.3299 272.004 79.045C271.481 79.9442 270.99 80.8651 270.529 81.8402C270.247 82.4252 269.986 83.0211 269.724 83.6278C269.379 84.4403 269.055 85.2854 268.741 86.1412C268.594 86.5746 268.448 87.0188 268.302 87.4738C268.166 87.9288 268.03 88.3947 267.904 88.8822C267.726 89.5431 267.559 90.2256 267.413 90.9299C267.277 91.5582 267.141 92.2083 267.026 92.8691C267.026 92.9125 267.015 92.9558 267.005 92.9991C266.973 93.1508 266.952 93.3025 266.921 93.465C266.837 93.9525 266.754 94.4509 266.68 94.9493C266.68 94.9926 266.67 95.0468 266.659 95.0901C266.534 95.9243 266.419 96.7694 266.314 97.6361C266.231 98.3403 266.168 99.0553 266.095 99.7812C266.095 99.8895 266.074 99.9979 266.063 100.106C266.001 100.854 265.948 101.612 265.896 102.371C265.896 102.479 265.885 102.587 265.875 102.706C265.833 103.443 265.802 104.18 265.77 104.917C265.739 105.74 265.729 106.563 265.718 107.387C265.708 109.185 265.749 110.973 265.833 112.739L268.228 152.738L269.023 166.074C269.044 166.443 268.877 166.757 268.626 166.974C268.469 167.104 268.291 167.201 268.082 167.223L246.075 169.411L238.743 170.137H238.722C238.701 170.137 238.67 170.137 238.649 170.137C238.147 170.137 237.729 169.758 237.635 169.249C237.635 169.205 237.603 169.162 237.603 169.119L237.331 163.799C247.048 150.744 250.646 132.998 248.052 111.038C246.41 97.116 242.017 85.4154 234.999 76.2715C234.267 75.3181 233.514 74.408 232.74 73.5088L229.696 13.7703C229.665 13.1853 230.093 12.6761 230.669 12.6327L260.018 10.5093C260.018 10.5093 260.07 10.5093 260.091 10.5093C260.3 10.5093 260.478 10.5851 260.645 10.6934C260.917 10.8776 261.116 11.1701 261.137 11.5277L261.995 28.732L262.277 34.4632L257.905 78.0808L261.189 78.1891C268.521 40.1185 294.335 35.6657 307.409 35.6657C308.612 35.6657 309.7 35.6983 310.662 35.7524C310.986 35.7741 311.29 35.7849 311.583 35.8066C327.094 36.8683 338.401 42.9895 346.653 52.8593C347.082 53.3685 347.49 53.8993 347.877 54.4302C348.023 54.636 348.17 54.8419 348.306 55.0477C348.546 55.3836 348.776 55.7194 348.996 56.0661C349.174 56.337 349.341 56.6187 349.519 56.8895C349.686 57.1712 349.854 57.4529 350.021 57.7346C350.209 58.0704 350.408 58.4063 350.586 58.7529C350.701 58.9696 350.805 59.1863 350.92 59.403C351.998 61.5048 352.929 63.7799 353.744 66.2501C354.445 68.3952 355.062 70.7028 355.606 73.1621V73.2813L354.675 82.4902L357.259 82.5769C357.259 82.5769 357.269 82.6635 357.28 82.7069C357.29 82.6635 357.311 82.6202 357.322 82.5769L357.97 82.5985L360.083 74.8631C360.857 73.0863 361.715 71.407 362.645 69.8036C362.76 69.6086 362.876 69.4136 362.991 69.2186C363.252 68.7852 363.514 68.3627 363.786 67.9402C363.859 67.8318 363.932 67.7126 364.005 67.6043C364.204 67.301 364.413 67.0084 364.622 66.7051C364.884 66.3259 365.145 65.9575 365.417 65.6C365.783 65.1125 366.16 64.625 366.547 64.1483C366.714 63.9424 366.881 63.7474 367.049 63.5524C367.582 62.924 368.126 62.3065 368.691 61.7215C378.376 51.6025 392.957 46.5431 412.432 46.5431C422.4 46.5431 431.709 48.7749 440.348 53.2276C448.988 57.6262 455.975 64.3108 461.309 73.2813C466.581 82.1977 469.227 93.1292 469.227 106.076C469.227 127.159 463.892 142.727 454.27 152.792C444.584 162.846 430.673 167.884 411.48 167.884C400.99 167.884 391.388 165.63 382.696 161.112ZM229.874 157.884C221.893 168.49 209.373 174.882 191.341 177.168C188.57 177.515 185.85 177.699 183.183 177.699C176.332 177.699 169.774 176.54 163.54 174.232C162.839 173.972 162.149 173.68 161.469 173.387C161.218 173.279 160.967 173.16 160.716 173.041C160.308 172.856 159.9 172.661 159.503 172.466C159.189 172.315 158.875 172.152 158.572 171.99C158.269 171.827 157.965 171.665 157.662 171.491C157.306 171.285 156.951 171.09 156.595 170.874C156.428 170.765 156.26 170.657 156.093 170.56C154.043 169.281 152.118 167.84 150.288 166.226L145.393 156.995L142.632 158.848L149.043 178.273L149.158 179.465C151.282 206.496 143.667 223.906 129.673 237.633C116.285 250.753 99.5809 256.31 85.2097 257.914C83.1387 258.141 81.0259 258.261 78.8817 258.261C55.2435 258.261 27.8607 244.404 23.4783 219.518C19.8593 198.977 29.461 181.199 46.0706 170.798L57.3563 165.359L55.756 162.38C48.9469 163.344 39.2301 161.752 31.9085 154.319C23.8548 144.731 18.7088 128.957 16.4705 106.953L9.47311 38.5909C9.41035 38.0059 9.81827 37.475 10.3831 37.3992L39.6171 33.499C39.6171 33.499 39.7112 33.499 39.7531 33.499C40.2761 33.499 40.7363 33.9106 40.7886 34.474L47.4721 100.431C48.5181 110.756 50.4217 118.816 53.183 124.613C55.9443 130.474 59.5946 134.461 64.1444 136.552C67.5019 138.177 71.4765 138.989 76.0681 138.989C77.6057 138.989 79.2269 138.903 80.9108 138.719C87.2702 138.025 92.7404 135.642 97.3321 131.568C101.861 127.505 105.187 121.948 107.31 114.927C109.371 107.907 109.925 99.7162 108.973 90.3665L102.625 28.1145C102.562 27.5294 102.959 27.0094 103.524 26.9227L132.758 22.8167C132.758 22.8167 132.852 22.8167 132.905 22.8167C133.438 22.8167 133.888 23.2283 133.94 23.7917L138.772 73.498L135.352 86.2604L138.574 86.9321L142.036 79.3917C150.142 70.6053 162.379 65.145 178.8 63.0649C181.363 62.7399 183.894 62.5773 186.404 62.5773C193.067 62.5773 199.521 63.7257 205.775 66.0225C214.383 69.1211 221.694 74.5705 227.698 82.371C233.65 90.1173 237.342 100.085 238.785 112.251C241.128 132.066 237.844 147.332 229.916 157.938L229.874 157.884ZM587.293 172.997C587.272 173.431 587.261 173.842 587.24 174.232C587.219 174.828 587.198 175.359 587.178 175.836C587.157 176.475 587.136 177.017 587.115 177.439C587.094 178.024 586.623 178.468 586.079 178.468C586.027 178.468 585.975 178.468 585.922 178.458L556.647 174.048C556.113 173.972 555.737 173.485 555.747 172.932L557.933 112.879C558.425 102.511 557.954 92.0891 556.092 85.9246C554.23 79.695 551.218 75.1773 547.034 72.3821C542.924 69.5219 537.516 67.9185 530.791 67.5826C530.216 67.5501 529.651 67.5393 529.086 67.5393C523.375 67.5393 518.187 69.0452 513.501 72.0354C508.429 75.3398 504.318 80.2909 501.18 86.8996C498.105 93.5083 496.128 103.671 495.689 113.064L493.629 166.388C493.608 166.974 493.137 167.429 492.583 167.429C492.562 167.429 492.541 167.429 492.509 167.429L463.024 165.403C462.46 165.359 462.02 164.861 462.052 164.265L462.355 158.1C473.159 145.869 478.64 128.394 478.64 106.087C478.64 91.374 475.513 78.6225 469.342 68.1893C468.557 66.8676 467.742 65.6 466.894 64.3541L469.488 10.7693C469.52 10.1951 469.98 9.74005 470.534 9.74005C470.545 9.74005 470.555 9.74005 470.566 9.74005L499.977 10.7368C500.563 10.7584 501.013 11.2676 500.992 11.8743L499.862 34.8099L491.212 77.7449L494.371 78.2541C503.962 46.0122 525.007 40.476 538.897 40.476C542.945 40.476 546.396 40.9527 548.771 41.3644C564.094 44.0621 574.741 51.3425 581.979 62.0356C582.335 62.5665 582.68 63.1082 583.004 63.6607C583.109 63.8449 583.213 64.0291 583.318 64.2133C583.538 64.6033 583.747 64.9933 583.956 65.3833C584.071 65.6 584.186 65.8059 584.291 66.0225C584.542 66.5426 584.793 67.0734 585.023 67.6043C585.169 67.9402 585.305 68.2868 585.441 68.6335C585.535 68.8719 585.63 69.0994 585.724 69.3377C585.881 69.7494 586.027 70.1611 586.173 70.5728C586.215 70.692 586.247 70.8112 586.288 70.9303C586.623 71.9162 586.926 72.9238 587.198 73.9747C582.105 83.4436 578.339 94.9168 575.965 108.34C573.131 124.353 574.051 139.044 578.716 151.99C580.954 158.22 583.883 163.918 587.449 169.075C587.397 170.516 587.345 171.816 587.293 172.976V172.997ZM688.435 176.713C687.724 179.606 687.284 182.369 687.107 184.99C678.833 189.747 669.012 192.119 657.643 192.119C651.733 192.119 645.395 191.48 638.648 190.191C626.672 187.916 616.181 183.257 607.165 176.237C603.316 173.203 599.948 169.758 596.999 165.955C596.549 165.381 596.11 164.785 595.691 164.189C595.263 163.593 594.844 162.987 594.447 162.38C594.426 162.347 594.415 162.326 594.395 162.293C594.374 162.25 594.342 162.217 594.321 162.174C593.568 161.037 592.857 159.866 592.177 158.664C592.167 158.642 592.146 158.61 592.135 158.588C592.114 158.545 592.083 158.501 592.062 158.458C591.351 157.19 590.681 155.89 590.054 154.547C590.033 154.504 590.012 154.471 590.002 154.428C590.002 154.428 590.002 154.406 589.991 154.395C589.353 153.03 588.757 151.643 588.203 150.213C587.993 149.672 587.763 149.152 587.565 148.61C583.485 137.278 582.711 124.45 585.253 110.128C585.494 108.741 585.766 107.387 586.037 106.054C586.132 105.61 586.226 105.166 586.33 104.722C586.519 103.844 586.707 102.977 586.916 102.121C587.042 101.601 587.167 101.092 587.293 100.572C587.481 99.8137 587.68 99.077 587.878 98.3403C588.025 97.7986 588.171 97.2677 588.318 96.7369C588.516 96.0435 588.715 95.3718 588.924 94.7001C589.092 94.1692 589.248 93.6275 589.416 93.0966C589.625 92.4466 589.845 91.8074 590.064 91.179C590.441 90.0956 590.828 89.0339 591.225 87.9939C591.393 87.5605 591.55 87.1271 591.727 86.7046C591.999 86.0437 592.271 85.3937 592.554 84.7545C592.71 84.3861 592.867 84.0178 593.035 83.6603C593.338 82.9994 593.641 82.3493 593.945 81.6993C594.091 81.396 594.238 81.0926 594.384 80.8001C594.719 80.1284 595.064 79.4567 595.419 78.8066C595.524 78.6116 595.639 78.4166 595.744 78.2108C596.246 77.3007 596.758 76.4232 597.292 75.5564C598.641 73.3463 600.084 71.2662 601.622 69.3594C601.622 69.3486 601.643 69.3377 601.653 69.3269C602.187 68.666 602.731 68.0268 603.285 67.3985C603.327 67.3443 603.379 67.2901 603.421 67.236C603.975 66.6076 604.551 66.0009 605.126 65.4158C609.404 75.6865 615.742 85.307 623.43 93.4758C623.315 93.6708 623.2 93.8767 623.085 94.0717C622.855 94.4834 622.624 94.9059 622.405 95.3393C622.248 95.6535 622.091 95.9676 621.934 96.2927C621.714 96.7477 621.516 97.2136 621.317 97.6903C621.181 98.0044 621.055 98.3186 620.93 98.6328C620.721 99.1637 620.533 99.7162 620.344 100.269C620.25 100.54 620.146 100.81 620.062 101.092C619.8 101.937 619.56 102.782 619.34 103.66C619.34 103.66 616.244 117.311 615.46 121.904C611.339 146.096 624.79 158.361 640.562 162.488L644.223 163.366C646.901 164.07 649.61 164.417 652.308 164.417C665.539 164.417 678.331 156.02 683.32 139.369C683.394 139.141 683.467 138.881 683.54 138.599C683.54 138.567 683.561 138.534 683.571 138.502C683.645 138.242 683.728 137.949 683.812 137.657C683.822 137.603 683.843 137.548 683.854 137.494C683.938 137.191 684.021 136.877 684.105 136.541C684.115 136.487 684.136 136.433 684.147 136.378C684.241 136.043 684.324 135.696 684.419 135.338C684.44 135.273 684.45 135.208 684.471 135.143C684.565 134.775 684.659 134.407 684.764 134.017C684.764 133.995 684.774 133.962 684.785 133.941C684.879 133.562 684.973 133.182 685.078 132.792C685.088 132.727 685.109 132.673 685.119 132.608C685.214 132.229 685.308 131.85 685.402 131.46C685.423 131.373 685.444 131.286 685.465 131.189C685.559 130.821 685.642 130.452 685.736 130.095C685.757 129.997 685.778 129.91 685.81 129.813C685.904 129.445 685.988 129.076 686.082 128.719C686.103 128.643 686.113 128.567 686.134 128.491C686.228 128.112 686.322 127.722 686.416 127.354C686.416 127.332 686.416 127.321 686.427 127.3C686.521 126.92 686.615 126.541 686.699 126.184C686.699 126.151 686.709 126.129 686.72 126.097C686.803 125.761 686.877 125.436 686.96 125.122C686.981 125.057 686.992 124.992 687.013 124.916C687.086 124.591 687.159 124.288 687.232 124.006V123.984C687.284 123.789 687.326 123.616 687.368 123.443C688.895 123.659 690.443 123.833 691.991 123.995C692.305 124.028 692.629 124.06 692.953 124.093C693.33 124.136 693.707 124.168 694.094 124.212C694.794 124.277 695.506 124.331 696.206 124.396C698.267 124.559 700.338 124.699 702.419 124.797C703.465 124.84 704.522 124.884 705.578 124.916C707.032 124.959 708.496 124.992 709.971 124.992C712.669 124.992 715.389 124.927 718.119 124.797C718.004 125.924 717.868 127.072 717.711 128.22C717.68 128.437 717.648 128.654 717.617 128.87C717.449 130.04 717.272 131.232 717.052 132.424C716.811 133.811 716.539 135.165 716.268 136.498C716.215 136.736 716.173 136.974 716.121 137.213C715.839 138.556 715.535 139.889 715.222 141.178C715.211 141.221 715.201 141.264 715.19 141.308C714.51 144.092 713.757 146.757 712.941 149.303C712.523 150.614 712.094 151.893 711.634 153.149C710.588 153.334 709.563 153.572 708.559 153.875C707.994 154.049 707.429 154.244 706.885 154.46C706.352 154.666 705.819 154.883 705.306 155.121C704.888 155.305 704.469 155.511 704.061 155.717C703.967 155.771 703.863 155.815 703.769 155.869C703.382 156.075 703.005 156.28 702.628 156.497C702.524 156.562 702.43 156.616 702.325 156.681C701.645 157.093 700.986 157.526 700.338 158.003C700.223 158.09 700.108 158.166 699.993 158.252C699.763 158.426 699.532 158.621 699.302 158.805C699.062 159 698.811 159.195 698.581 159.401C698.382 159.574 698.194 159.747 697.995 159.921C697.712 160.181 697.441 160.441 697.179 160.711C697.033 160.863 696.876 161.004 696.729 161.156C696.311 161.589 695.903 162.033 695.516 162.499C692.19 166.486 689.826 171.264 688.477 176.724L688.435 176.713ZM739.195 190.559C738.264 194.351 736.653 197.59 734.268 200.461C732.03 203.181 729.237 205.055 725.712 206.203C722.25 207.319 718.192 207.276 713.653 206.073C706.101 204.08 701.018 200.895 698.56 196.626C696.091 192.325 695.757 186.431 697.556 179.108C698.549 175.077 700.191 171.73 702.576 168.869C704.888 166.139 707.701 164.287 711.205 163.203C711.979 162.965 712.784 162.792 713.611 162.662C714.563 162.51 715.556 162.434 716.571 162.434C718.631 162.434 720.817 162.737 723.118 163.344C729.792 165.099 734.53 167.808 737.249 171.394C737.605 171.86 737.929 172.347 738.211 172.846C740.701 177.157 741.035 183.105 739.205 190.548L739.195 190.559ZM894.621 130.701C891.232 145.706 879.811 157.429 865.178 160.906C860.806 161.947 855.514 161.947 844.929 161.947H752.834C748.075 161.947 744.382 161.947 741.37 161.849C737.427 158.328 732.103 155.663 725.43 153.908C724.123 153.561 722.846 153.312 721.57 153.117C723.485 147.31 725.043 141.004 726.256 134.179C729.174 117.711 728.202 102.804 723.359 89.8573C720.681 82.7285 717.146 76.3257 712.805 70.6703C718.035 64.9608 724.855 60.8114 732.584 58.9805C736.956 57.9404 742.249 57.9404 752.834 57.9404H844.929C855.514 57.9404 860.796 57.9404 865.178 58.9805C879.811 62.4582 891.243 74.1697 894.621 89.1856C895.636 93.6709 895.636 99.0987 895.636 109.954C895.636 120.81 895.636 126.238 894.621 130.723V130.701Z" fill="#0F0F0F"/>
<path d="M756.63 99.9319C750.574 101.904 747.31 106.866 746.808 112.077V114.915C747.31 120.126 750.584 125.088 756.63 127.06C765.562 130.278 775.948 123.582 775.885 113.496C775.948 103.41 765.562 96.7142 756.63 99.9319Z" fill="#FF9800"/>
<path d="M813.737 99.16C808.257 99.16 803.519 102.486 801.28 107.296H826.195C823.956 102.497 819.229 99.16 813.737 99.16Z" fill="#FF9800"/>
<path d="M876.436 126.995C873.675 127.179 871.133 127.266 868.383 127.244C866.28 127.233 863.885 127.385 861.929 126.464C858.77 125.153 857.515 122.455 857.609 119.173L857.63 117.006L857.787 99.5848H874.261V90.9176H857.871L857.944 82.3263H847.485C847.516 83.2038 847.537 86.5299 847.568 90.9176H838.688V99.5848H847.621C847.683 109.758 847.788 120.798 847.987 121.979C848.928 131.361 857.536 137.547 866.322 137.049L868.435 137.027C871.259 137.016 874.303 136.865 877.106 136.626L876.457 127.006L876.436 126.995Z" fill="#0F0F0F"/>
<path d="M752.906 90.5344C750.574 91.6936 748.555 93.1671 746.83 94.8788V75.9194H736.37V137.153H746.83V132.039C748.555 133.751 750.574 135.225 752.906 136.384C768.648 144.076 786.565 131.173 786.366 113.459C786.565 95.7455 768.637 82.8531 752.906 90.5344ZM756.651 127.023C750.595 125.051 747.332 120.089 746.83 114.878V112.04C747.332 106.829 750.605 101.867 756.651 99.895C765.583 96.6773 775.969 103.373 775.907 113.459C775.969 123.546 765.583 130.23 756.651 127.023Z" fill="#0F0F0F"/>
<path d="M838.026 112.702C837.974 110.86 837.733 109.072 837.315 107.35C837.315 107.317 837.315 107.285 837.315 107.285C834.647 96.3965 825.098 88.3144 813.771 88.3144C800.372 88.3144 789.473 99.6034 789.473 113.482C789.473 127.36 800.372 138.649 813.771 138.649C823.655 138.649 832.482 132.528 836.237 123.059L826.562 118.931C824.418 124.327 819.398 127.815 813.76 127.815C806.951 127.815 801.282 122.68 800.142 115.963H838.026C838.026 115.963 838.089 113.59 838.036 112.81C838.036 112.778 838.036 112.745 838.036 112.713L838.026 112.702ZM801.292 107.285C803.531 102.485 808.258 99.1484 813.75 99.1484C819.241 99.1484 823.968 102.474 826.207 107.285H801.292Z" fill="#0F0F0F"/>
<path d="M185.097 90.1988C183.821 90.1988 182.493 90.2855 181.123 90.4696C166.877 92.3331 160.11 102.56 161.083 115.355C161.083 115.355 161.972 125.149 162.442 128.389C164.712 144.228 174.282 149.731 184.198 149.731C184.951 149.731 185.704 149.699 186.457 149.634L188.915 149.374C199.594 148.507 208.694 139.147 208.296 124.434C208.213 121.216 207.407 111.585 207.407 111.585C206.518 99.8952 198.59 90.2096 185.097 90.2096V90.1988ZM188.068 139.656H187.963L185.62 139.916C185.139 139.948 184.658 139.97 184.187 139.97C176.97 139.97 173.017 135.831 171.741 126.948C171.396 124.532 170.705 117.23 170.454 114.51C169.837 106.081 173.822 101.249 182.294 100.134C183.256 100.004 184.198 99.9385 185.097 99.9385C196.216 99.9385 197.806 109.418 198.025 112.322V112.354V112.387C198.245 114.987 198.81 122.278 198.883 124.683C199.144 134.38 193.695 139.179 188.172 139.623H188.068V139.656Z" fill="#0F0F0F"/>
<path d="M114.764 126.379C113.99 130.095 111.427 139.055 108.143 144.168C103.321 151.654 96.7109 157.212 86.4816 162.315C57.2894 176.887 49.0683 195.705 53.3776 209.779C55.8983 218.013 65.4477 224.99 78.5325 224.99C79.4006 224.99 80.2792 224.957 81.1682 224.892C91.6381 224.155 101.324 220.158 107.892 213.722C113.843 207.883 119.544 199.107 120.883 182.055C121.908 169.01 117.944 126.379 117.944 126.379H114.753H114.764ZM101.428 206.648C96.5017 211.48 88.8873 214.589 80.5407 215.174C79.8713 215.217 79.1914 215.25 78.5429 215.25C69.7047 215.25 63.6069 210.916 62.3622 206.843C58.8688 195.435 69.9453 181.415 90.5817 171.112C99.2002 166.811 105.706 162.109 110.842 156.356C111.48 166.638 111.888 176.508 111.511 181.275C110.34 196.15 105.507 202.65 101.428 206.648Z" fill="#0F0F0F"/>
<path d="M362.879 58.96L362.854 58.9844L362.879 58.96Z" fill="#F26C21"/>
<path d="M411.727 73.9203C411.727 73.9203 411.633 73.9203 411.581 73.9203C395.546 73.9853 386.708 84.3642 386.101 98.6759C386.101 98.6759 385.809 109.662 385.892 113.313C386.363 132.554 397.785 139.704 409.729 140.235L412.49 140.289C412.825 140.3 413.16 140.311 413.495 140.311C425.063 140.311 435.794 131.275 437.237 115.371C437.562 111.796 437.938 101.005 437.938 101.005C438.534 86.726 429.518 73.9094 411.717 73.9094L411.727 73.9203ZM428.546 100.583V100.615V100.648C428.441 103.573 428.117 111.752 427.876 114.461C426.872 125.587 419.927 130.56 413.505 130.56C413.306 130.56 413.108 130.56 412.909 130.549H412.804H412.7L410.053 130.495C400.41 130.029 395.588 124.32 395.316 113.074C395.253 110.312 395.442 102.089 395.515 99.0334C395.829 92.0347 398.883 83.725 411.622 83.6708H411.727C417.239 83.6708 421.695 85.3284 424.592 88.4703C427.343 91.4496 428.744 95.7507 428.546 100.593V100.583Z" fill="#0F0F0F"/>
</g>
<defs>
<clipPath id="clip0_1350_1515">
<rect width="905" height="268" fill="white"/>
</clipPath>
</defs>
</svg>
