<?xml version="1.0" encoding="UTF-8"?>
<svg id="Layer_2" data-name="Layer 2" xmlns="http://www.w3.org/2000/svg" viewBox="0 0 865.25 247.37">
  <defs>
    <style>
      .cls-1 {
        fill: none;
      }

      .cls-2 {
        fill: #231f20;
      }

      .cls-3 {
        fill: #1e1e1e;
      }

      .cls-4 {
        fill: #d90200;
      }

      .cls-5 {
        fill: #ff9800;
      }

      .cls-6 {
        fill: #ff6b00;
      }

      .cls-7 {
        fill: #f26c21;
      }
    </style>
  </defs>
  <g id="Layer_1-2" data-name="Layer 1">
    <g>
      <g>
        <path class="cls-5" d="M856.74,81.97h0c-3.34-14.31-14.83-25.69-29.28-29-4.35-1-9.48-1-19.69-1h-88.05c-10.22,0-15.34,0-19.69,1-7.53,1.73-14.33,5.61-19.66,11.22l-.9.95.81,1.02c4.05,5.1,7.37,10.92,9.86,17.32,4.53,11.68,5.43,25.17,2.69,40.1-1.13,6.15-2.62,11.96-4.43,17.27l-.58,1.7,1.78.27c1.26.19,2.42.42,3.54.7,6.11,1.56,11.03,3.92,14.63,7.02l.4.35.53.02c2.94.09,6.5.09,11.01.09h88.05c10.22,0,15.34,0,19.69-1,14.44-3.31,25.94-14.69,29.28-29,1.01-4.31,1.01-9.39,1.01-19.51s0-15.2-1.01-19.51ZM763.48,107.29c1.24,7.06,7.33,12.19,14.49,12.19,5.49,0,10.44-3,12.98-7.77l6.5,2.67c-3.65,7.39-11.14,12.09-19.48,12.09-11.98,0-21.73-9.75-21.73-21.73s9.75-21.73,21.73-21.73c9.94,0,18.6,6.73,21.05,16.36l.02.07c.37,1.49.59,3.04.64,4.62v.14c.03.26.03.78.02,1.32h-36.53l.31,1.76ZM705.49,71.6h7v19.5l2.54-2.42c1.59-1.52,3.42-2.78,5.42-3.73,6.46-3.05,13.69-2.53,19.84,1.42,6.36,4.08,10.1,10.95,10.01,18.4.09,7.42-3.66,14.29-10.01,18.37-6.15,3.94-13.38,4.46-19.84,1.42-2.01-.96-3.83-2.22-5.42-3.74l-2.54-2.42v6.72h-7v-53.52ZM811.8,83.91c-.02-2.88-.03-5.04-.05-6.42h6.96l-.07,7.93h15.69v5h-15.73l-.18,19.54c-.12,3.91,1.68,6.81,5.01,8.15,1.91.87,4.07.86,5.97.86h.81c2.11.02,4.15-.03,6.32-.14l.41,5.91c-2.27.15-4.55.24-6.69.25l-2.09.02c-8.05.44-15.19-5.19-15.95-12.56l-.02-.11c-.2-1.27-.3-15.68-.33-20.41v-1.49h-8.54v-5h8.5v-1.51Z"/>
        <path class="cls-5" d="M621.96,96.14c1.02.49,2.06.97,3.11,1.43.27.12.54.23.81.35l.2.08c.73.31,1.47.62,2.21.92.39.16.79.32,1.19.47.74.29,1.49.56,2.25.83l.39.14c.24.09.48.18.73.26,1.05.36,2.1.71,3.17,1.05.36.11.73.22,1.1.33l.41.12c.62.19,1.24.37,1.86.55.61.17,1.22.34,1.84.5.51.14,1.02.27,1.53.4l.14.03c.64.16,1.28.32,1.93.47.21.05.43.1.64.15l.38.08c2.74.62,5.53,1.16,8.3,1.61l.63.1c.97.15,1.95.3,2.94.43l.21.03c4.21.56,8.54.96,12.94,1.17l.32.02c1.27.06,2.54.1,3.84.13h.21c1.2.03,2.4.04,3.61.04h1.13c.94-.02,1.88-.03,2.83-.05,1.38-.04,2.76-.08,4.15-.15l1.45-.07-.02-1.45c-.06-3.61-.4-7.15-1.02-10.51l-.08-.41c-.13-.66-.26-1.31-.41-1.96l-.15-.64c-.14-.57-.28-1.14-.44-1.71l-.2-.71c-.16-.56-.33-1.11-.51-1.67l-.08-.25c-.04-.14-.09-.27-.13-.4-.25-.75-.52-1.5-.81-2.24-.48-1.23-1-2.45-1.6-3.75-.41-.89-.89-1.84-1.5-2.98l-.1-.19c-.05-.11-.11-.21-.16-.32-1.23-2.26-2.6-4.44-4.09-6.49-.4-.55-.81-1.09-1.23-1.63-.39-.49-.78-.98-1.18-1.45-.44-.53-.9-1.05-1.36-1.57-.59-.66-1.19-1.3-1.81-1.93-.2-.2-.4-.4-.61-.6l-.21-.21c-.92-.89-1.65-1.56-2.35-2.16l-.4-.33c-1.05-.89-2-1.65-2.91-2.32-8.71-6.52-18.74-10.86-29.8-12.89-7.55-1.39-14.64-1.99-21.13-1.8l-.8.03c-.5.02-1.01.04-1.5.07-.23.01-.46.03-.69.05l-.49.04c-.36.03-.72.05-1.08.08-.26.02-.51.05-.77.08l-.53.06c-.31.03-.61.07-.92.1-.28.04-.56.07-.84.11l-.37.05c-.32.04-.63.09-.94.14-.36.06-.72.12-1.12.19-.34.06-.67.12-1,.18-.38.07-.75.15-1.12.23-.32.07-.63.13-.95.21-.38.09-.76.18-1.14.28-.29.07-.59.15-.88.23-.39.1-.77.21-1.15.32-.27.08-.54.16-.82.25-.39.12-.78.25-1.17.38-.25.08-.5.17-.75.26-.4.14-.79.28-1.18.43l-.69.27c-.4.16-.8.32-1.19.49l-.62.27c-.41.18-.81.36-1.21.55l-.54.27c-.42.21-.84.41-1.25.63l-.44.24c-.44.24-.87.47-1.29.72l-.3.18c-.47.28-.94.56-1.4.85l-1.04.66.44,1.15c6.85,17.65,20.91,33.01,37.59,41.08Z"/>
        <path class="cls-5" d="M667.1,149.79c.1-.1.2-.2.3-.29l.1-.09c.24-.23.49-.46.74-.69.17-.15.35-.3.52-.45.21-.18.43-.35.65-.52l.15-.12c.16-.12.31-.25.46-.36l.32-.22c.57-.4,1.17-.79,1.79-1.15l.27-.16c.34-.19.68-.37,1.02-.54l.26-.13c.37-.18.74-.36,1.12-.52.47-.2.94-.4,1.44-.58.49-.18,1-.35,1.51-.5.81-.24,1.72-.45,2.77-.63l.84-.15.3-.8c.39-1.04.8-2.19,1.24-3.5l.03-.1c.79-2.37,1.52-4.89,2.18-7.49l.03-.13c.31-1.21.59-2.45.87-3.71l.14-.67c.27-1.25.52-2.51.76-3.8.21-1.12.38-2.23.55-3.34l.09-.61c.14-1.02.27-2.03.38-3.03l.03-1.9-1.57.07c-2.68.12-5.28.18-7.73.18-1.39,0-2.77-.03-4.16-.07-1-.02-2-.06-2.99-.1-1.84-.08-3.77-.2-5.89-.37-.67-.05-1.34-.1-2-.17l-.52-.04c-.19-.01-.37-.03-.55-.05l-.91-.11c-1.47-.15-2.93-.32-4.37-.51l-1.33-.17-.32,1.3-3.84,14.6c-4.23,13.61-15.04,22.06-28.22,22.06-2.47,0-4.94-.31-7.4-.93l-3.47-.8c-8.4-2.13-27.46-9.87-22.89-35.75.73-4.16,3.67-16.64,3.69-16.74.19-.74.4-1.48.66-2.28.05-.14.1-.28.15-.42l.11-.3c.17-.49.34-.97.53-1.44.08-.21.17-.41.26-.61l.1-.22c.18-.42.37-.83.56-1.23.14-.28.28-.56.43-.84.2-.38.41-.75.62-1.12l.92-1.52-.81-.83c-7.3-7.49-13.25-16.29-17.19-25.44l-.87-2.01-1.56,1.53c-.57.56-1.13,1.14-1.69,1.74l-.14.15c-.55.59-1.08,1.2-1.63,1.87-1.48,1.77-2.91,3.75-4.25,5.88-.56.88-1.05,1.7-1.51,2.51l-.32.56c-.34.62-.68,1.25-1.01,1.89-.15.28-.29.56-.43.85-.3.61-.6,1.22-.89,1.85-.13.29-.26.58-.39.87l-.09.2c-.27.59-.53,1.19-.79,1.8-.12.28-.23.56-.34.85l-.14.37c-.39.98-.77,1.97-1.13,2.99l-.12.34c-.17.48-.35.97-.51,1.46-.12.36-.23.72-.35,1.08l-.13.42c-.2.63-.4,1.26-.59,1.91-.15.49-.29,1-.43,1.5-.19.69-.38,1.39-.56,2.09-.12.48-.25.96-.37,1.45-.2.8-.38,1.61-.56,2.43l-.09.4c-.06.28-.13.56-.19.84-.27,1.25-.52,2.51-.76,3.8-2.47,13.43-1.7,25.65,2.28,36.32.12.33.26.64.39.96.08.18.16.37.23.56.54,1.34,1.13,2.67,1.77,4.01l1.34-.67h0l-1.29.77c.61,1.25,1.27,2.5,1.97,3.7l.12.2c.66,1.12,1.36,2.25,2.11,3.35l.12.17c.4.58.81,1.15,1.23,1.72.42.56.85,1.12,1.29,1.67,2.94,3.67,6.3,6.94,9.98,9.75,8.76,6.6,19.1,11.03,30.73,13.16,6.52,1.2,12.72,1.8,18.44,1.8,11.07,0,20.79-2.28,28.9-6.77l.71-.39.06-.81c.17-2.35.58-4.83,1.23-7.38,1.22-4.81,3.38-9.02,6.4-12.51.35-.4.72-.79,1.1-1.17ZM683.71,130.3h0,0Z"/>
        <path class="cls-5" d="M691.67,149.32c-4.47-1.14-8.6-1.17-12.19-.11-3.62,1.08-6.55,2.94-8.95,5.68-2.44,2.82-4.11,6.11-5.11,10.06-1.82,7.15-1.44,12.97,1.13,17.3,2.57,4.3,7.74,7.46,15.35,9.4,2.37.6,4.62.91,6.74.91,2,0,3.88-.27,5.62-.81,3.64-1.14,6.54-3.03,8.86-5.75,2.43-2.83,4.07-6.01,5.02-9.75,1.85-7.27,1.48-13.15-1.11-17.48-2.57-4.33-7.74-7.51-15.35-9.45Z"/>
      </g>
      <path class="cls-5" d="M562.41,155.49c-3.37-4.7-6.13-9.92-8.23-15.54-4.39-11.78-5.26-25.16-2.58-39.76,2.24-12.21,5.82-22.78,10.63-31.42l.2-.36-.11-.39c-.26-.95-.56-1.92-.89-2.88l-.11-.33c-.14-.4-.29-.79-.44-1.18-.09-.23-.18-.45-.27-.67l-.06-.14c-.12-.28-.23-.56-.36-.84-.23-.51-.47-1.01-.72-1.5-.08-.15-.16-.3-.23-.44l-.09-.17c-.2-.38-.41-.75-.65-1.16-.09-.16-.19-.32-.29-.48-.33-.53-.66-1.05-1.01-1.55-7.49-10.68-18.09-17.05-32.4-19.49-3.26-.55-6.49-.83-9.61-.83-14.72,0-34.1,6.06-43.27,34.75l-1.13-.18,8.05-38.6,1.1-21.32c.03-.54-.16-1.06-.53-1.46-.37-.4-.87-.63-1.41-.64l-28.06-.91h-.12c-1.07,0-1.94.83-2,1.9l-2.5,49.8.2.28c.79,1.11,1.56,2.28,2.3,3.48,5.8,9.47,8.75,21.06,8.75,34.45,0,20.3-5.15,36.23-15.3,47.33l-.24.27-.3,6.05c-.05,1.08.78,2.02,1.87,2.1l28.21,1.87h.11c1.08,0,1.95-.84,2-1.92l1.97-49.21c.44-8.97,2.42-18.08,5.15-23.76,2.91-5.9,6.75-10.38,11.41-13.31,4.72-2.92,10.07-4.25,15.95-3.97,6.21.3,11.26,1.74,15.03,4.27,3.77,2.44,6.55,6.46,8.25,11.96,1.6,5.13,2.23,14.07,1.72,24.54l-2.09,55.43c-.04,1.02.7,1.91,1.71,2.05l28,4.07c.1.01.19.02.28.02,1.07,0,1.95-.84,1.99-1.91l.33-8.05-.2-.28Z"/>
      <g>
        <path class="cls-1" d="M176.95,84.86c-1.17,0-2.38.08-3.62.23-12.11,1.53-18.79,9.51-17.86,21.36,0,.07.85,9.01,1.29,11.93,2.38,16.02,13.12,18.42,19.32,18.42.66,0,1.35-.03,2.05-.08l2.35-.24c8.53-.67,17.54-7.68,17.14-21.48-.08-2.89-.83-11.69-.84-11.78-.88-11.15-8.66-18.36-19.83-18.36Z"/>
        <path class="cls-1" d="M110.89,118.28c-1.07,4.32-3.44,11.49-6.27,15.75-4.76,7.14-11.33,12.47-21.31,17.27-18.54,8.93-36.38,24.66-30.87,42,1.99,6.26,9.91,12.99,22.62,12.99.79,0,1.61-.03,2.42-.08,9.69-.65,18.66-4.26,24.62-9.9,4.87-4.61,10.63-11.99,11.96-28.26h0c.86-10.52-2.03-42.76-2.68-49.77h-.49Z"/>
        <path class="cls-1" d="M407.47,74.21c-4.13-2.68-9.1-4.04-14.04-4.04-4.01,0-7.99.9-11.47,2.72-6.72,3.51-10.58,10.03-10.85,18.36,0,.09-.28,10.11-.19,13.4.48,19.16,13.29,22.58,20.88,22.91l2.59.05c11.47.47,20.38-8.26,21.63-21.19.3-3.21.66-13.05.67-13.15v-.05c.5-8.07-2.77-14.82-9.21-19Z"/>
        <polygon class="cls-1" points="346.89 56.41 346.88 56.42 346.88 56.42 346.89 56.41"/>
        <path class="cls-1" d="M622.62,94.79c1,.48,2.03.95,3.06,1.41.33.15.67.29,1,.43.72.31,1.45.61,2.18.9.39.16.78.31,1.17.46.73.28,1.47.55,2.21.82.37.13.73.27,1.1.4,1.03.36,2.08.71,3.13,1.04.49.15.99.3,1.49.45.61.18,1.22.37,1.84.54.6.17,1.21.34,1.82.5.5.13,1,.26,1.51.39.68.17,1.36.34,2.04.5.33.08.67.15,1,.23,2.68.61,5.42,1.14,8.21,1.59.21.03.41.07.62.1.96.15,1.93.29,2.91.43.07,0,.14.02.21.03,4.28.57,8.66.97,13.12,1.17,0,0,0,0,0,0,0,0,0,0,0,0,1.26.06,2.52.1,3.79.13.08,0,.15,0,.23,0,1.19.03,2.38.04,3.57.04.37,0,.75,0,1.12-.01.93,0,1.86-.01,2.8-.04,1.37-.03,2.74-.08,4.11-.15-.06-3.55-.39-6.97-1-10.26-.02-.13-.05-.27-.08-.4-.12-.64-.26-1.27-.4-1.9-.05-.21-.1-.42-.15-.62-.13-.56-.28-1.11-.43-1.66-.06-.23-.13-.46-.19-.69-.16-.54-.32-1.08-.5-1.61-.07-.21-.13-.43-.2-.64-.25-.73-.51-1.46-.78-2.17-.49-1.25-1.01-2.47-1.56-3.66-.46-.99-.95-1.96-1.46-2.91-.09-.16-.16-.34-.25-.5-1.21-2.22-2.54-4.33-3.99-6.32-.39-.54-.79-1.06-1.19-1.58-.37-.48-.76-.95-1.15-1.42-.43-.52-.87-1.03-1.32-1.53-.57-.64-1.16-1.27-1.76-1.88-.26-.26-.53-.52-.8-.78-.74-.72-1.5-1.42-2.28-2.1-.13-.11-.26-.21-.39-.32-.92-.78-1.86-1.54-2.84-2.26-8.57-6.41-18.29-10.62-29.17-12.61-6.59-1.21-12.76-1.81-18.51-1.81-.78,0-1.55.01-2.31.03-.27,0-.53.02-.79.03-.49.02-.99.04-1.47.07-.32.02-.63.05-.95.07-.42.03-.84.06-1.26.1-.34.03-.68.07-1.02.11-.38.04-.77.08-1.14.13-.35.04-.7.09-1.05.14-.35.05-.71.1-1.06.15-.36.06-.72.12-1.08.18-.33.06-.66.12-.99.18-.37.07-.73.15-1.09.22-.31.07-.62.13-.92.2-.37.09-.74.18-1.11.27-.29.07-.57.15-.86.22-.38.1-.75.21-1.12.32-.27.08-.53.16-.79.24-.38.12-.76.24-1.14.37-.24.08-.49.17-.73.25-.38.14-.77.27-1.15.42-.22.09-.45.17-.67.26-.39.15-.77.31-1.16.47-.2.09-.4.18-.6.27-.39.17-.79.35-1.18.54-.18.08-.35.17-.52.26-.41.2-.81.4-1.21.61-.14.08-.28.15-.42.23-.42.23-.84.46-1.26.7-.1.06-.19.11-.28.17-.46.27-.91.54-1.35.83,0,0,0,0,0,0,6.65,17.11,20.55,32.39,36.84,40.27Z"/>
        <path class="cls-1" d="M602.74,92.54c-.87,1.74-1.51,3.54-1.95,5.27-.82,3.5-3.02,13.02-3.59,16.27-1.37,7.79-.3,14.07,3.18,18.69,3.76,4.98,9.71,7.35,14.07,8.47l3.4.78.09.02.09.02c1.82.46,3.68.69,5.53.69,9.92,0,17.79-6.28,21.06-16.79.79-2.54,2.5-9.27,3.55-13.49-10.67-2.09-20.63-5.3-29.48-9.58-5.63-2.72-11-6.24-15.96-10.36Z"/>
        <path class="cls-1" d="M666.46,148.33c.26-.25.52-.49.78-.73.18-.16.37-.32.56-.48.23-.19.46-.37.69-.55.22-.17.44-.34.66-.51.11-.08.22-.15.33-.23.61-.43,1.25-.84,1.9-1.22.1-.06.19-.12.29-.17.36-.2.72-.39,1.09-.58.09-.05.19-.09.28-.14.39-.19.78-.38,1.19-.55.5-.21,1-.42,1.51-.61.52-.19,1.06-.37,1.6-.54.96-.28,1.94-.5,2.94-.67.44-1.15.85-2.34,1.25-3.55,0,0,0,0,0,0,0,0,0,0,0,0,0,0,0,0,0,0,.78-2.35,1.5-4.81,2.15-7.38.01-.04.02-.08.03-.12.3-1.2.59-2.42.86-3.66.05-.22.09-.44.14-.66.26-1.23.52-2.48.75-3.76.2-1.11.38-2.2.54-3.28.03-.2.06-.4.09-.6.15-1.06.28-2.12.39-3.16,0,0,0,0,0,0-2.61.12-5.21.18-7.79.18-1.41,0-2.8-.03-4.2-.07-1.01-.03-2.01-.06-3.02-.11-2-.09-3.98-.21-5.94-.37-.68-.05-1.35-.11-2.02-.17-.36-.03-.72-.07-1.09-.11-.31-.03-.61-.06-.92-.09-1.48-.15-2.96-.32-4.42-.51h0c-.04.16-.08.32-.12.5v.02c-.07.26-.14.55-.21.84-.02.06-.03.12-.05.19-.07.29-.15.59-.23.9,0,.03-.01.05-.02.08-.08.33-.17.68-.26,1.03,0,.02,0,.03-.01.05-.09.34-.18.69-.27,1.05-.02.07-.03.14-.05.21-.08.33-.17.67-.26,1.01-.02.09-.04.17-.07.26-.09.34-.17.68-.26,1.01-.02.08-.04.16-.06.25-.09.35-.18.71-.27,1.06-.01.06-.03.11-.04.17-.09.36-.19.71-.28,1.06,0,.02-.01.05-.02.07-.09.35-.19.7-.28,1.04-.02.06-.03.12-.05.18-.09.33-.18.65-.26.96-.01.05-.03.1-.04.15-.08.31-.17.6-.24.88-.01.05-.03.1-.04.15-.08.28-.15.54-.23.78,0,.03-.02.06-.03.09-.08.26-.15.5-.21.71-4.77,15.36-17,23.12-29.65,23.12-2.58,0-5.18-.32-7.73-.97l-3.5-.81c-15.08-3.82-27.94-15.13-24-37.46.75-4.25,3.71-16.84,3.71-16.84.2-.81.44-1.6.69-2.37.08-.26.18-.51.27-.76.18-.51.36-1.02.56-1.51.12-.3.25-.58.37-.87.19-.44.38-.87.59-1.29.15-.3.3-.59.45-.88.21-.4.43-.79.65-1.17.11-.19.22-.37.33-.55-7.34-7.54-13.41-16.42-17.5-25.9,0,0,0,0,0,0-.56.54-1.1,1.11-1.63,1.68-.04.05-.09.1-.13.15-.53.58-1.05,1.17-1.56,1.78,0,.01-.02.02-.03.03-1.47,1.76-2.84,3.68-4.14,5.72-.5.8-1,1.61-1.48,2.45-.1.18-.21.36-.31.55-.34.6-.66,1.22-.99,1.84-.14.28-.28.55-.42.83-.3.59-.59,1.19-.87,1.81-.15.33-.3.67-.46,1.01-.27.6-.53,1.19-.79,1.8-.16.39-.32.8-.48,1.19-.38.96-.75,1.94-1.11,2.94-.21.59-.42,1.17-.62,1.77-.16.48-.31.98-.47,1.48-.2.62-.39,1.24-.58,1.88-.14.49-.28.98-.42,1.48-.19.68-.38,1.37-.56,2.06-.12.47-.24.95-.36,1.43-.19.79-.38,1.59-.56,2.4-.09.41-.19.81-.28,1.23-.26,1.23-.52,2.48-.75,3.76-2.43,13.22-1.69,25.06,2.21,35.52.19.51.41.99.61,1.48.53,1.32,1.1,2.61,1.71,3.86,0,.01,0,.02.01.03,0,0,0,0,0,0,.02.04.04.07.05.11.6,1.23,1.24,2.44,1.92,3.61.02.04.05.08.07.12,0,0,0,0,0,0,.01.02.03.05.04.07.65,1.11,1.33,2.19,2.05,3.24.02.04.05.07.07.11,0,0,0,0,0,0,.02.03.03.05.05.08.39.57.79,1.12,1.19,1.67.41.55.83,1.09,1.25,1.63,2.82,3.51,6.04,6.69,9.72,9.49,8.62,6.49,18.65,10.78,30.1,12.88,6.46,1.19,12.51,1.78,18.16,1.78,10.88,0,20.26-2.2,28.17-6.58.17-2.42.59-4.97,1.27-7.64,1.28-5.03,3.54-9.45,6.73-13.13.37-.43.76-.84,1.16-1.24.14-.14.28-.28.43-.41Z"/>
        <path class="cls-1" d="M827.13,54.44c-4.18-.96-9.24-.96-19.36-.96h-88.05c-10.12,0-15.17,0-19.36.96-7.39,1.69-13.91,5.53-18.91,10.79,4.15,5.21,7.52,11.12,10.09,17.71,4.63,11.95,5.56,25.71,2.77,40.91-1.16,6.29-2.65,12.12-4.48,17.48,1.21.18,2.44.42,3.69.73,6.38,1.62,11.47,4.08,15.24,7.33h0c2.89.09,6.41.09,10.96.09h88.05c10.12,0,15.17,0,19.36-.96,13.99-3.21,24.92-14.02,28.15-27.88.97-4.14.97-9.15.97-19.17s0-15.03-.97-19.17c-3.24-13.85-14.16-24.67-28.15-27.88Z"/>
        <path class="cls-1" d="M704.81,158.21c-2.6-3.31-7.13-5.8-13.51-7.43-2.2-.56-4.29-.84-6.26-.84-.98,0-1.92.07-2.83.21-.79.12-1.56.28-2.3.5-3.34,1-6.04,2.71-8.25,5.23-2.27,2.63-3.85,5.73-4.8,9.45-1.72,6.75-1.4,12.19.96,16.17,2.36,3.94,7.22,6.88,14.43,8.72,4.35,1.11,8.23,1.15,11.53.12,3.37-1.06,6.04-2.79,8.18-5.3,2.28-2.65,3.81-5.63,4.71-9.14,1.75-6.87,1.43-12.37-.95-16.34-.27-.46-.58-.9-.92-1.34Z"/>
        <polygon class="cls-1" points="355.61 147.44 355.61 147.44 355.61 147.44 355.61 147.44"/>
        <path class="cls-1" d="M550.62,100.01c2.28-12.39,5.87-22.98,10.74-31.72-.26-.97-.55-1.9-.87-2.81-.04-.11-.07-.22-.11-.33-.14-.39-.28-.77-.43-1.14-.09-.22-.18-.43-.27-.65-.13-.32-.26-.64-.4-.95-.22-.5-.46-.98-.7-1.46-.1-.2-.21-.4-.32-.59-.2-.37-.4-.73-.61-1.08-.1-.17-.2-.34-.3-.51-.31-.51-.64-1.01-.98-1.5-6.92-9.87-17.1-16.59-31.75-19.08-2.27-.39-5.56-.82-9.44-.82-13.28,0-33.4,5.11-42.57,34.87l-3.02-.47,8.27-39.63,1.08-21.17c.03-.56-.41-1.03-.97-1.05l-28.12-.92s-.02,0-.03,0c-.53,0-.97.42-1,.95l-2.48,49.46c.81,1.14,1.59,2.32,2.34,3.54,5.9,9.63,8.89,21.39,8.89,34.98,0,20.59-5.24,36.72-15.57,48.01l-.29,5.69c-.03.55.39,1.01.93,1.05l28.19,1.87s.05,0,.07,0c.53,0,.98-.42,1-.96l1.97-49.22c.43-8.67,2.31-18.05,5.25-24.15,3-6.1,6.93-10.67,11.78-13.72,4.47-2.77,9.44-4.15,14.9-4.15.54,0,1.08.01,1.63.04,6.42.32,11.6,1.79,15.53,4.43,3.99,2.58,6.88,6.75,8.66,12.5,1.78,5.69,2.23,15.31,1.76,24.88l-2.09,55.43c-.02.51.35.95.86,1.03l27.99,4.07s.1.01.15.01c.53,0,.97-.41.99-.95.02-.39.04-.9.06-1.48.02-.44.04-.94.06-1.48.01-.36.03-.74.05-1.14.04-1.07.09-2.28.15-3.6-3.41-4.76-6.21-10.03-8.35-15.77-4.46-11.96-5.34-25.51-2.63-40.29Z"/>
        <path class="cls-6" d="M442.71,66.6c-5.28-8.57-12.3-15.05-20.85-19.25-8.5-4.23-17.78-6.38-27.58-6.38-19.09,0-33.64,4.91-43.24,14.6-.5.5-1.01,1.05-1.66,1.78-.17.19-.34.39-.5.58-.39.46-.77.93-1.14,1.41-.27.35-.54.71-.8,1.08l-.1.14c-.17.24-.35.48-.52.73l-.22.32c-.27.4-.54.82-.79,1.23l-.35.57c-.94,1.57-1.8,3.21-2.55,4.87l-.81,2.77.38-3.63-.07-.33c-.55-2.4-1.15-4.55-1.84-6.57-.81-2.39-1.76-4.62-2.82-6.62l-.34-.63c-.19-.33-.38-.66-.57-.99-.17-.28-.34-.56-.51-.83-.17-.27-.35-.55-.52-.81-.23-.34-.47-.67-.71-1.01l-.14-.19c-.1-.14-.2-.27-.3-.41-.4-.53-.82-1.05-1.25-1.55-8.72-10.07-20.14-15.45-34.91-16.43l-.9-.05c-1.11-.06-2.16-.09-3.21-.09-13.32,0-36.04,4.68-44.64,34.63l3.5-33.69-1.1-21.32c-.05-.96-.55-1.82-1.38-2.36-.51-.32-1.05-.49-1.61-.49l-28.27,1.96c-1.62.11-2.87,1.53-2.79,3.15l2.95,55.84.47.52c.78.88,1.47,1.68,2.09,2.46,6.48,8.14,10.54,18.6,12.06,31.08,2.42,19.73-.9,35.63-9.85,47.24l-.45.59.3,5.65c.01.21.05.38.09.5.31,1.36,1.51,2.34,2.91,2.34l28.35-2.7c.57-.05,1.1-.28,1.58-.66.76-.62,1.19-1.55,1.13-2.51l-3.06-49.2c-.08-1.58-.12-3.2-.11-4.82,0-.74.02-1.49.04-2.23.02-.67.06-1.33.09-2l.02-.3c.04-.68.09-1.36.15-2.04l.02-.29c.05-.53.1-1.06.16-1.58l.05-.11v-.35c.09-.71.19-1.4.29-2.09l.03-.22c.07-.45.15-.89.22-1.32l.08-.41-1.96-.37h0l1.99.25c.11-.59.23-1.16.36-1.72.14-.62.29-1.22.45-1.8.12-.42.24-.83.36-1.23.12-.4.25-.78.38-1.14.28-.75.58-1.5.9-2.22.23-.54.48-1.06.73-1.57.39-.78.82-1.58,1.34-2.44.43-.72.8-1.3,1.16-1.82.4-.58.83-1.14,1.25-1.67,1.29-1.6,2.74-3.03,4.29-4.24,2.64-2.04,5.6-3.51,8.79-4.39.48-.13.97-.25,1.47-.36,1.48-.32,3.05-.53,4.65-.61.81-.04,1.61-.07,2.39-.07,4.96,0,9.15.9,12.49,2.68,3.79,1.93,6.8,5.48,8.96,10.56.8,1.86,1.52,4.3,2.14,7.28.4,1.89.75,3.99,1.05,6.23.22,1.63.41,3.35.57,5.1.16,1.71.28,3.49.38,5.29l3.22,51.91c.1,1.58,1.41,2.81,3,2.81l28.13-.67c.8-.02,1.58-.37,2.13-.95.4-.43.65-.98.74-1.52.02-.11.08-.36.06-.69l-.64-11.1-1.67-6.45,2.62,5.68.25.35c.52.67,1.07,1.35,1.69,2.06.23.27.46.52.7.78l.21.23c.4.44.81.88,1.23,1.31.31.32.62.63.94.94.53.52,1.08,1.01,1.64,1.5l.22.2c.13.12.26.24.4.36.72.61,1.49,1.21,2.36,1.85.19.14.39.28.59.42l.24.17c.62.43,1.25.86,1.9,1.26l.18.11c.22.14.43.27.66.41,1.02.61,1.94,1.12,2.83,1.57,8.56,4.29,18.12,6.47,28.42,6.47,18.74,0,32.58-4.75,42.33-14.52,9.87-9.97,14.88-24.95,14.88-44.52,0-12.27-2.64-22.81-7.86-31.32ZM373.11,91.31c.25-7.57,3.72-13.49,9.78-16.65,3.12-1.63,6.77-2.49,10.55-2.49,4.65,0,9.25,1.32,12.95,3.72,5.81,3.77,8.76,9.88,8.31,17.2v.13c-.04,1.02-.39,10.03-.66,12.99-1.14,11.84-9.19,19.82-19.6,19.38l-2.55-.05c-8.42-.37-18.54-4.3-18.97-20.96-.08-3.15.18-12.87.19-13.28ZM255.27,85.7h0,0Z"/>
        <path class="cls-4" d="M230.2,103.32c-1.42-11.55-5.12-21.17-11.02-28.58-5.96-7.46-13.32-12.76-21.86-15.73-8.49-3.01-17.51-3.96-26.7-2.83-16.06,1.97-28.29,7.24-36.35,15.67l-.22.23-1.37,2.88,1.94-7-4.65-46.26c-.16-1.54-1.44-2.7-2.98-2.7-.13,0-.26,0-.4.03l-27.95,3.79c-1.62.22-2.75,1.66-2.58,3.29l6.07,57.46c.88,8.33.37,15.69-1.51,21.87-1.91,6.1-4.92,10.96-8.93,14.44-4.06,3.47-8.97,5.54-14.61,6.13-5.99.63-11.02.03-15-1.84-3.88-1.73-7.07-5.12-9.49-10.08-2.52-5.11-4.29-12.39-5.26-21.64l-6.39-60.88c-.16-1.53-1.44-2.69-2.98-2.69-.13,0-.26,0-.38.03l-27.95,3.6c-1.6.21-2.77,1.68-2.6,3.29l6.69,63.1c2.17,20.62,7.3,35.7,15.24,44.83l.11.11c6.69,6.57,15.45,8.54,22.19,8.21l-8.09,3.77-.19.1c-17.55,10.61-25.97,28.19-22.53,47.04,2.05,11.24,9.14,20.87,20.5,27.84,9.91,6.08,22.46,9.56,34.43,9.56,2.13,0,4.24-.11,6.27-.33,12.01-1.3,29.34-5.69,43.67-19.26,15.05-14.24,21.16-31.82,19.24-55.35l-.14-1.33-4.64-13.57,2.29,4.17.28.24c1.83,1.55,3.78,2.96,5.81,4.19l.51.31c.32.19.64.36.96.54l.11.06c.3.16.6.33.91.49.31.16.61.31.93.47.4.19.8.38,1.21.56l.2.09c.18.08.37.16.55.24.68.29,1.37.56,2.08.82,8.55,3.05,17.79,4,27.5,2.81,17.64-2.16,30.13-8.23,38.18-18.56,8.15-10.52,11.14-25.21,8.88-43.63ZM177.97,134.72c-.64.05-1.28.08-1.89.08-6.78,0-15.29-2.9-17.34-16.71-.33-2.22-.96-8.47-1.27-11.79-.85-10.81,5.02-17.82,16.11-19.22,1.15-.15,2.28-.22,3.36-.22,10.2,0,17.04,6.33,17.84,16.53.12,1.41.76,9.12.83,11.66.25,8.76-4.43,18.58-15.3,19.43l-2.35.24ZM112.06,167.89h0c-1.27,15.6-6.73,22.61-11.34,26.97-5.63,5.33-14.15,8.74-23.38,9.36-.76.05-1.53.08-2.28.08-11.7,0-18.94-6.01-20.72-11.6-5.12-16.13,12.05-31.03,29.83-39.6,10.32-4.97,17.14-10.51,22.1-17.97,1.45-2.17,2.77-5.01,3.88-7.9,1.04,12.35,2.54,32.81,1.9,40.65Z"/>
        <path class="cls-3" d="M864.04,80.27c-1.97-8.45-6.29-16.15-12.48-22.28-6.17-6.11-13.93-10.38-22.43-12.32-5.17-1.19-10.59-1.19-21.37-1.19h-88.05c-10.78,0-16.19,0-21.37,1.19-8.5,1.95-16.26,6.21-22.43,12.32-.2.2-.38.41-.58.61-1.84-1.74-3.78-3.39-5.84-4.91-9.61-7.19-20.69-11.99-32.9-14.23-7.09-1.3-13.87-1.96-20.13-1.96-14.61,0-27.15,3.57-37.28,10.6-4.3,2.96-8.16,6.61-11.59,10.88-1.07-2.41-2.34-4.71-3.87-6.89-8.66-12.35-21.31-20.01-37.61-22.78-3.7-.63-7.39-.95-10.95-.95-7.76,0-18.85,1.56-29.15,8.66l.64-3.05.14-.68.04-.7,1.08-21.17c.14-2.66-.82-5.32-2.63-7.28-1.81-1.96-4.37-3.14-7.04-3.22L450.14,0h-.15s-.18,0-.18,0h0c-5.33,0-9.72,4.17-9.99,9.5l-2.02,40.28c-3.86-3.49-8.16-6.41-12.87-8.73-9.43-4.7-19.76-7.09-30.66-7.09-21.03,0-37.25,5.61-48.21,16.68-.58.58-1.14,1.2-1.69,1.82-1.66-3.48-3.67-6.67-6.17-9.56-9.87-11.4-23.24-17.73-39.74-18.83-1.57-.1-3.07-.15-4.58-.15-10.8,0-20.81,2.71-28.95,7.83-1.97,1.24-3.82,2.61-5.57,4.1l.32-3.12.07-.69-.04-.7-1.09-21.17c-.27-5.32-4.66-9.49-9.99-9.49-.24,0-.47,0-.71.03l-28.04,1.95c-5.41.38-9.58,5.09-9.29,10.5l2.43,46.15c-4.12-2.93-8.61-5.25-13.43-6.92-6.88-2.43-14.12-3.68-21.48-3.68-2.75,0-5.56.17-8.36.52-11.44,1.4-21.17,4.38-29.1,8.9l-3.73-37.12c-.52-5.13-4.79-9-9.95-9h0c-.45,0-.9.03-1.35.09l-27.94,3.79c-5.39.73-9.17,5.54-8.6,10.96l6.07,57.46c.78,7.37.36,13.79-1.24,19.07-1.53,4.88-3.76,8.55-6.82,11.21-2.99,2.56-6.51,4.02-10.76,4.47-1.29.14-2.53.2-3.68.2-3.04,0-5.59-.47-7.58-1.4l-.08-.04-.08-.03c-2.37-1.06-4.35-3.26-6.05-6.75-2.17-4.4-3.71-10.89-4.6-19.32l-6.39-60.87c-.54-5.11-4.81-8.96-9.94-8.96-.43,0-.86.03-1.28.08l-27.95,3.6C3.38,26.26-.51,31.19.06,36.55l6.69,63.1c2.48,23.56,8.49,40.01,18.36,50.27,2,2.08,4.15,3.94,6.43,5.56-14.53,12.2-21.42,29.98-17.99,48.74,5.11,28.02,35.67,43.14,61.82,43.14,2.38,0,4.74-.12,7.02-.37,13.08-1.41,31.98-6.23,47.73-21.13,15.87-15.03,22.81-33.26,21.66-57.14.48.19.96.37,1.45.55,6.96,2.48,14.3,3.74,21.85,3.74,2.91,0,5.9-.19,8.9-.55,14.55-1.78,26.03-6.08,34.76-13.03,1.4,3.87,5.09,6.6,9.4,6.6.32,0,.65-.02.97-.05l28.04-2.69c5.4-.52,9.36-5.16,9.03-10.57l-3.06-49.18c-.41-7.82.46-16.03,2.23-20.95,1.79-4.8,4.2-8.34,7.39-10.83,3.12-2.4,6.72-3.68,10.98-3.9.69-.04,1.37-.06,2.02-.06,3.79,0,6.88.62,9.17,1.84l.07.04.07.04c2.31,1.18,4.17,3.49,5.69,7.05,1.72,4.01,3.09,12.25,3.58,21.53v.04s0,.04,0,.04l3.22,51.91c.33,5.26,4.71,9.38,9.98,9.38h.25s28.06-.67,28.06-.67c2.69-.06,5.29-1.23,7.12-3.21.87-.94,1.54-2.05,1.99-3.24,2.16,1.55,4.41,2.96,6.81,4.18,9.58,4.81,20.2,7.23,31.6,7.23,16.3,0,29.34-3.38,39.58-10.25.9,4.28,4.57,7.64,9.12,7.94l28.19,1.87c.22.01.44.02.66.02,5.39,0,9.78-4.22,9.99-9.6l1.97-49.17c.39-7.82,2.1-15.9,4.35-20.61,2.26-4.59,5.03-7.86,8.45-10.02,3.04-1.88,6.36-2.79,10.14-2.79.39,0,.79.01,1.19.03,4.73.23,8.42,1.21,10.95,2.91l.07.05.07.05c2.18,1.41,3.8,3.89,4.94,7.6,1.31,4.17,1.83,12.5,1.37,21.78v.05s0,.05,0,.05l-2.09,55.43c-.19,5.12,3.48,9.54,8.55,10.27l27.99,4.07c.47.07.96.1,1.44.1,4.85,0,8.88-3.42,9.79-8.03,1.56,1.44,3.19,2.83,4.9,4.13,9.74,7.33,21.14,12.23,33.93,14.57,6.96,1.28,13.62,1.93,19.79,1.93,10.84,0,20.56-1.99,29.01-5.91.55,2.02,1.34,3.92,2.39,5.68,3.63,6.07,10.34,10.38,19.94,12.83,2.98.76,5.85,1.14,8.59,1.14s5.37-.38,7.84-1.15h0c4.97-1.56,9.12-4.27,12.33-8.04,3.15-3.66,5.36-7.96,6.59-12.77,1.93-7.57,1.85-14.16-.23-19.64,1.41,0,2.91,0,4.55,0h88.05c10.78,0,16.19,0,21.37-1.19,8.5-1.95,16.26-6.21,22.43-12.32,6.19-6.13,10.5-13.83,12.48-22.28,1.2-5.15,1.2-10.52,1.2-21.21s0-16.06-1.2-21.21ZM585.78,54.52c.44-.28.9-.56,1.35-.83.1-.06.19-.12.28-.17.41-.24.84-.47,1.26-.7.14-.08.28-.16.42-.23.4-.21.8-.41,1.21-.61.17-.09.35-.17.52-.26.39-.18.78-.36,1.18-.54.2-.09.4-.18.6-.27.38-.16.77-.32,1.16-.47.22-.09.45-.18.67-.26.38-.14.76-.28,1.15-.42.24-.09.49-.17.73-.25.38-.13.75-.25,1.14-.37.26-.08.53-.16.79-.24.37-.11.75-.21,1.12-.32.28-.08.57-.15.86-.22.37-.09.74-.18,1.11-.27.31-.07.61-.14.92-.2.36-.08.73-.15,1.09-.22.33-.06.66-.12.99-.18.36-.06.72-.13,1.08-.18.35-.06.71-.1,1.06-.15.35-.05.7-.1,1.05-.14.38-.05.76-.09,1.14-.13.34-.04.68-.07,1.02-.11.42-.04.84-.07,1.26-.1.32-.02.63-.05.95-.07.49-.03.98-.05,1.47-.07.26-.01.52-.03.79-.03.76-.02,1.53-.03,2.31-.03,5.75,0,11.92.6,18.51,1.81,10.88,2,20.6,6.2,29.17,12.61.98.72,1.92,1.48,2.84,2.26.13.11.26.21.39.32.79.68,1.54,1.38,2.28,2.1.27.26.54.51.8.78.6.61,1.19,1.24,1.76,1.88.45.5.89,1.01,1.32,1.53.39.47.77.94,1.15,1.42.41.52.8,1.05,1.19,1.58,1.45,2,2.78,4.1,3.99,6.32.09.16.17.34.25.5.51.95,1,1.91,1.46,2.91.55,1.19,1.08,2.41,1.56,3.66.28.72.54,1.44.78,2.17.07.21.13.42.2.64.17.53.34,1.07.5,1.61.07.23.13.46.19.69.15.55.29,1.1.43,1.66.05.21.1.41.15.62.14.63.28,1.26.4,1.9.03.13.05.27.08.4.6,3.29.94,6.71,1,10.26-1.38.07-2.75.12-4.11.15-.94.02-1.87.03-2.8.04-.37,0-.75.01-1.12.01-1.19,0-2.38-.01-3.57-.04-.08,0-.15,0-.23,0-1.27-.03-2.53-.07-3.79-.13,0,0,0,0,0,0,0,0,0,0,0,0-4.46-.21-8.84-.6-13.12-1.17-.07,0-.14-.02-.21-.03-.98-.13-1.95-.28-2.91-.43-.21-.03-.41-.07-.62-.1-2.79-.45-5.52-.98-8.21-1.59-.33-.08-.67-.15-1-.23-.69-.16-1.37-.33-2.04-.5-.51-.13-1.01-.26-1.51-.39-.61-.16-1.22-.33-1.82-.5-.62-.17-1.23-.36-1.84-.54-.5-.15-1-.29-1.49-.45-1.06-.33-2.1-.68-3.13-1.04-.37-.13-.73-.27-1.1-.4-.74-.27-1.48-.54-2.21-.82-.39-.15-.78-.31-1.17-.46-.73-.29-1.46-.59-2.18-.9-.33-.14-.67-.28-1-.43-1.03-.46-2.06-.92-3.06-1.41-16.29-7.88-30.2-23.16-36.84-40.27,0,0,0,0,0,0ZM648.18,112.47c-1.05,4.22-2.76,10.95-3.55,13.49-3.27,10.51-11.14,16.79-21.06,16.79-1.85,0-3.71-.23-5.53-.69l-.09-.02-.09-.02-3.4-.78c-4.36-1.11-10.31-3.49-14.07-8.47-3.49-4.61-4.56-10.9-3.18-18.69.57-3.25,2.77-12.77,3.59-16.27.44-1.73,1.08-3.52,1.95-5.27,4.96,4.11,10.33,7.63,15.96,10.36,8.84,4.28,18.81,7.48,29.48,9.58ZM365.84,148.71c-.93-.47-1.82-.98-2.7-1.5-.27-.16-.53-.33-.8-.5-.62-.39-1.22-.79-1.81-1.21-.26-.19-.53-.37-.79-.56-.77-.57-1.52-1.15-2.25-1.77-.2-.17-.4-.36-.6-.53-.53-.47-1.06-.94-1.57-1.44-.3-.29-.6-.6-.9-.9-.4-.41-.79-.83-1.18-1.25-.29-.32-.59-.64-.88-.98-.58-.67-1.15-1.36-1.7-2.08,0,0,0,0,0,0l-4.79-10.38-2.75,1.52,2.59,9.72.27,1c.04.66.08,1.3.11,1.93,0,.02,0,.04,0,.07.03.44.05.85.07,1.27.02.4.05.79.07,1.16.05.94.1,1.82.15,2.61.02.33.04.64.05.95.03.52.06,1.02.08,1.45.04.68.07,1.24.1,1.68,0,.07-.02.13-.03.2-.03.2-.1.39-.23.53-.18.19-.43.31-.71.32l-7.02.17-21.05.5s-.01,0-.02,0h0c-.53,0-.96-.41-1-.94l-.81-12.98-2.42-38.93c-.1-1.79-.22-3.59-.38-5.35s-.35-3.5-.58-5.18c-.3-2.24-.66-4.39-1.07-6.38-.62-2.98-1.37-5.6-2.26-7.66-2.36-5.54-5.65-9.39-9.89-11.55-3.62-1.93-8.09-2.9-13.4-2.9-.81,0-1.65.02-2.5.07-1.72.09-3.37.31-4.97.65-.53.11-1.06.24-1.58.39-3.46.95-6.62,2.53-9.48,4.74-1.69,1.32-3.24,2.84-4.63,4.57-.46.57-.91,1.17-1.34,1.79-.43.62-.84,1.27-1.23,1.93-.5.83-.97,1.68-1.41,2.58-.27.54-.52,1.09-.77,1.65-.33.75-.64,1.53-.94,2.32-.14.4-.28.81-.42,1.23-.13.42-.26.85-.38,1.3-.17.61-.33,1.24-.47,1.89-.13.58-.26,1.18-.37,1.79,0,.04-.01.08-.02.12-.03.14-.05.28-.08.43-.08.45-.16.91-.23,1.37,0,0,0,0,0,0,0,.04-.01.09-.02.13-.12.77-.23,1.55-.33,2.35,0,0,0,0,0,0,0,0,0,0,0,0,0,0,0,0,0,0-.08.65-.14,1.31-.21,1.98,0,.1-.02.2-.03.3-.06.69-.11,1.39-.16,2.09,0,.1-.01.2-.02.31-.04.68-.07,1.36-.1,2.04-.03.76-.04,1.52-.05,2.28-.01,1.66.03,3.31.11,4.94l2.29,36.92.76,12.31c.02.34-.14.63-.38.83-.15.12-.32.21-.52.23l-21.04,2.02-7.01.67s-.02,0-.02,0c-.02,0-.05,0-.07,0-.48,0-.88-.35-.97-.82,0-.04-.03-.08-.03-.12l-.26-4.91c9.29-12.05,12.73-28.43,10.25-48.7-1.57-12.85-5.77-23.65-12.48-32.09-.7-.88-1.42-1.72-2.16-2.55l-2.91-55.14c-.03-.54.38-1.01.93-1.05l28.06-1.96s.05,0,.07,0c.2,0,.37.07.53.17.26.17.45.44.47.77l.82,15.88.27,5.29-4.18,40.26,3.14.1c7.01-35.14,31.69-39.25,44.19-39.25,1.15,0,2.19.03,3.11.08.31.02.6.03.88.05,14.83.98,25.64,6.63,33.53,15.74.41.47.8.96,1.17,1.45.14.19.28.38.41.57.23.31.45.62.66.94.17.25.33.51.5.76.16.26.32.52.48.78.18.31.37.62.54.94.11.2.21.4.32.6,1.03,1.94,1.92,4.04,2.7,6.32.67,1.98,1.26,4.11,1.78,6.38v.11s-.89,8.5-.89,8.5l2.47.08s.01.08.02.12c0,0,0,0,0,0,.01-.04.03-.08.04-.12h0l.62.02,2.02-7.14c.74-1.64,1.56-3.19,2.45-4.67.11-.18.22-.36.33-.54.25-.4.5-.79.76-1.18.07-.1.14-.21.21-.31.19-.28.39-.55.59-.83.25-.35.5-.69.76-1.02.35-.45.71-.9,1.08-1.34.16-.19.32-.37.48-.55.51-.58,1.03-1.15,1.57-1.69,9.26-9.34,23.2-14.01,41.82-14.01,9.53,0,18.43,2.06,26.69,6.17,8.26,4.06,14.94,10.23,20.04,18.51,5.04,8.23,7.57,18.32,7.57,30.27,0,19.46-5.1,33.83-14.3,43.12-9.26,9.28-22.56,13.93-40.91,13.93-10.03,0-19.21-2.08-27.52-6.25ZM346.89,56.41s0,0,0,0h0s0,0,0,0ZM219.73,145.73c-7.63,9.79-19.6,15.69-36.84,17.8-2.65.32-5.25.49-7.8.49-6.55,0-12.82-1.07-18.78-3.2-.67-.24-1.33-.51-1.98-.78-.24-.1-.48-.21-.72-.32-.39-.17-.78-.35-1.16-.53-.3-.14-.6-.29-.89-.44-.29-.15-.58-.3-.87-.46-.34-.19-.68-.37-1.02-.57-.16-.1-.32-.2-.48-.29-1.96-1.18-3.8-2.51-5.55-4l-4.68-8.52-2.64,1.71,6.13,17.93.11,1.1c2.03,24.95-5.25,41.02-18.63,53.69-12.8,12.11-28.77,17.24-42.51,18.72-1.98.21-4,.32-6.05.32-22.6,0-48.78-12.79-52.97-35.76-3.46-18.96,5.72-35.37,21.6-44.97l10.79-5.02-1.53-2.75c-6.51.89-15.8-.58-22.8-7.44-7.7-8.85-12.62-23.41-14.76-43.72l-6.69-63.1c-.06-.54.33-1.03.87-1.1l27.95-3.6s.09,0,.13,0c.5,0,.94.38.99.9l6.39,60.88c1,9.53,2.82,16.97,5.46,22.32,2.64,5.41,6.13,9.09,10.48,11.02,3.21,1.5,7.01,2.25,11.4,2.25,1.47,0,3.02-.08,4.63-.25,6.08-.64,11.31-2.84,15.7-6.6,4.33-3.75,7.51-8.88,9.54-15.36,1.97-6.48,2.5-14.04,1.59-22.67l-6.07-57.46c-.06-.54.32-1.02.86-1.1l27.95-3.79s.09,0,.14,0c.51,0,.94.38.99.9l4.62,45.88-3.27,11.78,3.08.62,3.31-6.96c7.75-8.11,19.45-13.15,35.15-15.07,2.45-.3,4.87-.45,7.27-.45,6.37,0,12.54,1.06,18.52,3.18,8.23,2.86,15.22,7.89,20.96,15.09,5.69,7.15,9.22,16.35,10.6,27.58,2.24,18.29-.9,32.38-8.48,42.17ZM355.61,147.44h0s0,0,0,0h0ZM561.45,159.68c-.02.4-.03.78-.05,1.14-.02.55-.04,1.04-.06,1.48-.02.59-.04,1.09-.06,1.48-.02.54-.47.95-.99.95-.05,0-.1,0-.15-.01l-27.99-4.07c-.51-.07-.87-.52-.86-1.03l2.09-55.43c.47-9.57.02-19.19-1.76-24.88-1.78-5.75-4.66-9.92-8.66-12.5-3.93-2.64-9.1-4.12-15.53-4.43-.55-.03-1.09-.04-1.63-.04-5.46,0-10.42,1.39-14.9,4.15-4.85,3.05-8.78,7.62-11.78,13.72-2.94,6.1-4.83,15.48-5.25,24.15l-1.97,49.22c-.02.54-.47.96-1,.96-.02,0-.04,0-.07,0l-28.19-1.87c-.54-.04-.96-.5-.93-1.05l.29-5.69c10.33-11.29,15.57-27.42,15.57-48.01,0-13.58-2.99-25.35-8.89-34.98-.75-1.22-1.53-2.39-2.34-3.54l2.48-49.46c.03-.53.47-.95,1-.95.01,0,.02,0,.03,0l28.12.92c.56.02.99.49.97,1.05l-1.08,21.17-8.27,39.63,3.02.47c9.17-29.76,29.29-34.87,42.57-34.87,3.87,0,7.17.44,9.44.82,14.65,2.49,24.83,9.21,31.75,19.08.34.49.67.99.98,1.5.1.17.2.34.3.51.21.36.41.72.61,1.08.11.2.22.39.32.59.24.48.48.97.7,1.46.14.31.27.63.4.95.09.22.18.43.27.65.15.38.29.76.43,1.14.04.11.07.22.11.33.32.91.61,1.84.87,2.81-4.87,8.74-8.47,19.33-10.74,31.72-2.71,14.78-1.83,28.34,2.63,40.29,2.14,5.75,4.94,11.01,8.35,15.77-.05,1.33-.1,2.53-.15,3.6ZM658.15,163.11c-.68,2.67-1.1,5.22-1.27,7.64-7.91,4.39-17.3,6.58-28.17,6.58-5.65,0-11.71-.59-18.16-1.78-11.45-2.1-21.48-6.4-30.1-12.88-3.68-2.8-6.9-5.98-9.72-9.49-.43-.53-.85-1.08-1.25-1.63-.41-.55-.81-1.11-1.19-1.67-.02-.03-.03-.05-.05-.08,0,0,0,0,0,0-.02-.04-.05-.07-.07-.11-.72-1.05-1.4-2.13-2.05-3.24-.01-.02-.03-.05-.04-.07,0,0,0,0,0,0-.02-.04-.05-.08-.07-.12-.68-1.17-1.32-2.37-1.92-3.61-.02-.04-.04-.07-.05-.11,0,0,0,0,0,0,0,0,0-.02-.01-.03-.61-1.26-1.18-2.54-1.71-3.86-.2-.5-.42-.98-.61-1.48-3.9-10.46-4.64-22.3-2.21-35.52.23-1.28.49-2.53.75-3.76.09-.41.18-.82.28-1.23.18-.81.36-1.61.56-2.4.12-.48.24-.95.36-1.43.18-.7.37-1.38.56-2.06.14-.5.28-.99.42-1.48.19-.64.38-1.26.58-1.88.16-.49.31-.99.47-1.48.2-.6.41-1.19.62-1.77.36-1,.73-1.98,1.11-2.94.16-.4.31-.8.48-1.19.26-.61.52-1.21.79-1.8.15-.34.3-.68.46-1.01.29-.61.58-1.21.87-1.81.14-.28.28-.56.42-.83.32-.62.65-1.24.99-1.84.1-.18.21-.36.31-.55.48-.84.97-1.65,1.48-2.45,1.29-2.04,2.67-3.96,4.14-5.72,0-.01.02-.02.03-.03.51-.61,1.03-1.2,1.56-1.78.04-.05.09-.1.13-.15.53-.58,1.08-1.14,1.63-1.68,0,0,0,0,0,0,4.09,9.48,10.15,18.36,17.5,25.9-.11.18-.22.37-.33.55-.22.38-.44.77-.65,1.17-.15.29-.3.58-.45.88-.21.42-.4.85-.59,1.29-.13.29-.25.58-.37.87-.2.49-.38,1-.56,1.51-.09.25-.19.5-.27.76-.25.78-.48,1.56-.69,2.37,0,0-2.96,12.6-3.71,16.84-3.94,22.33,8.92,33.65,24,37.46l3.5.81c2.56.65,5.15.97,7.73.97,12.65,0,24.88-7.75,29.65-23.12.07-.21.14-.45.21-.71,0-.03.02-.06.03-.09.07-.24.15-.51.23-.78.01-.05.03-.1.04-.15.08-.28.16-.57.24-.88.01-.05.03-.1.04-.15.09-.31.17-.63.26-.96.02-.06.03-.12.05-.18.09-.34.18-.68.28-1.04,0-.02.01-.05.02-.07.09-.35.18-.7.28-1.06.01-.06.03-.11.04-.17.09-.35.18-.7.27-1.06.02-.08.04-.16.06-.25.09-.34.17-.68.26-1.01.02-.09.04-.17.07-.26.09-.34.17-.68.26-1.01.02-.07.03-.14.05-.21.09-.35.18-.71.27-1.05,0-.02,0-.03.01-.05.09-.35.18-.7.26-1.03,0-.03.01-.05.02-.08.08-.31.15-.61.23-.9.02-.06.03-.12.05-.19.07-.3.14-.58.21-.84v-.02c.05-.18.09-.34.13-.5h0c1.46.2,2.94.36,4.42.51.3.03.61.06.92.09.36.04.72.07,1.09.11.67.06,1.35.11,2.02.17,1.97.15,3.95.28,5.94.37,1,.04,2.01.08,3.02.11,1.39.04,2.79.07,4.2.07,2.58,0,5.18-.06,7.79-.18,0,0,0,0,0,0-.11,1.04-.24,2.1-.39,3.16-.03.2-.06.4-.09.6-.16,1.08-.33,2.18-.54,3.28-.23,1.28-.49,2.53-.75,3.76-.05.22-.09.44-.14.66-.27,1.24-.56,2.47-.86,3.66-.01.04-.02.08-.03.12-.65,2.57-1.37,5.03-2.15,7.38,0,0,0,0,0,0,0,0,0,0,0,0,0,0,0,0,0,0-.4,1.21-.81,2.39-1.25,3.55-1,.17-1.98.39-2.94.67-.54.16-1.08.34-1.6.54-.51.19-1.02.39-1.51.61-.4.17-.8.36-1.19.55-.09.05-.19.09-.28.14-.37.19-.73.38-1.09.58-.1.06-.19.11-.29.17-.65.38-1.28.78-1.9,1.22-.11.08-.22.15-.33.23-.22.16-.44.34-.66.51-.23.18-.47.36-.69.55-.19.16-.37.32-.56.48-.27.24-.53.48-.78.73-.14.14-.29.27-.43.41-.4.4-.79.81-1.16,1.24-3.18,3.68-5.44,8.09-6.73,13.13ZM706.68,175.89c-.89,3.5-2.43,6.49-4.71,9.14-2.14,2.51-4.81,4.24-8.18,5.3-3.31,1.03-7.19.99-11.53-.12-7.22-1.84-12.08-4.78-14.43-8.72-2.36-3.97-2.68-9.41-.96-16.17.95-3.72,2.52-6.81,4.8-9.45,2.21-2.52,4.9-4.23,8.25-5.23.74-.22,1.51-.38,2.3-.5.91-.14,1.86-.21,2.83-.21,1.97,0,4.06.28,6.26.84,6.38,1.62,10.91,4.12,13.51,7.43.34.43.65.88.92,1.34,2.38,3.98,2.7,9.47.95,16.34ZM855.28,120.64c-3.24,13.85-14.16,24.67-28.15,27.88-4.18.96-9.24.96-19.36.96h-88.05c-4.55,0-8.08,0-10.96-.09h0c-3.77-3.25-8.86-5.71-15.24-7.33-1.25-.32-2.47-.55-3.69-.73,1.83-5.36,3.32-11.18,4.48-17.48,2.79-15.2,1.86-28.96-2.77-40.91-2.56-6.58-5.94-12.49-10.09-17.71,5-5.27,11.52-9.1,18.91-10.79,4.18-.96,9.24-.96,19.36-.96h88.05c10.12,0,15.17,0,19.36.96,13.99,3.21,24.92,14.02,28.15,27.88.97,4.14.97,9.15.97,19.17s0,15.03-.97,19.17Z"/>
      </g>
      <path class="cls-5" d="M723.38,92.23c-5.79,1.82-8.91,6.4-9.39,11.21v2.62c.48,4.81,3.61,9.39,9.39,11.21,8.54,2.97,18.47-3.21,18.41-12.52.06-9.31-9.87-15.49-18.41-12.52Z"/>
      <path class="cls-5" d="M777.97,91.53c-5.24,0-9.77,3.07-11.91,7.51h23.82c-2.14-4.43-6.66-7.51-11.91-7.51Z"/>
      <g>
        <path class="cls-2" d="M837.91,117.23c-2.64.17-5.07.25-7.7.23-2.01-.01-4.3.13-6.17-.72-3.02-1.21-4.22-3.7-4.13-6.73l.02-2,.15-16.08h15.75v-8h-15.67l.07-7.93h-10c.03.81.05,3.88.08,7.93h-8.49v8h8.54c.06,9.39.16,19.58.35,20.67.9,8.66,9.13,14.37,17.53,13.91l2.02-.02c2.7-.01,5.61-.15,8.29-.37l-.62-8.88Z"/>
        <path class="cls-2" d="M719.8,83.59c-2.23,1.07-4.16,2.43-5.81,4.01v-17.5h-10v56.52h10v-4.72c1.65,1.58,3.58,2.94,5.81,4.01,15.05,7.1,32.18-4.81,31.99-21.16.19-16.35-16.95-28.25-31.99-21.16ZM723.38,117.27c-5.79-1.82-8.91-6.4-9.39-11.21v-2.62c.48-4.81,3.61-9.39,9.39-11.21,8.54-2.97,18.47,3.21,18.41,12.52.06,9.31-9.87,15.48-18.41,12.52Z"/>
        <path class="cls-2" d="M801.18,104.03c-.05-1.7-.28-3.35-.68-4.94,0-.03,0-.06,0-.06h0c-2.55-10.05-11.68-17.51-22.51-17.51-12.81,0-23.23,10.42-23.23,23.23s10.42,23.23,23.23,23.23c9.45,0,17.89-5.65,21.48-14.39l-9.25-3.81c-2.05,4.98-6.85,8.2-12.24,8.2-6.51,0-11.93-4.74-13.02-10.94h36.22s.06-2.19.01-2.91c0-.03,0-.06,0-.09ZM766.06,99.03c2.14-4.43,6.66-7.51,11.91-7.51s9.77,3.07,11.91,7.51h-23.82Z"/>
      </g>
      <path class="cls-2" d="M176.95,83.26c-1.22,0-2.49.08-3.8.25-13.62,1.72-20.09,11.16-19.16,22.97,0,0,.85,9.04,1.3,12.03,2.17,14.62,11.32,19.7,20.8,19.7.72,0,1.44-.03,2.16-.09l2.35-.24c10.21-.8,18.91-9.44,18.53-23.02-.08-2.97-.85-11.86-.85-11.86-.85-10.79-8.43-19.73-21.33-19.73ZM179.79,128.91h-.1s-2.24.24-2.24.24c-.46.03-.92.05-1.37.05-6.9,0-10.68-3.82-11.9-12.02-.33-2.23-.99-8.97-1.23-11.48-.59-7.78,3.22-12.24,11.32-13.27.92-.12,1.82-.18,2.68-.18,10.63,0,12.15,8.75,12.36,11.43v.03s0,.03,0,.03c.21,2.4.75,9.13.82,11.35.25,8.95-4.96,13.38-10.24,13.79h-.1Z"/>
      <path class="cls-2" d="M109.69,116.68c-.74,3.43-3.19,11.7-6.33,16.42-4.61,6.91-10.93,12.04-20.71,16.75-27.91,13.45-35.77,30.82-31.65,43.81,2.41,7.6,11.54,14.04,24.05,14.04.83,0,1.67-.03,2.52-.09,10.01-.68,19.27-4.37,25.55-10.31,5.69-5.39,11.14-13.49,12.42-29.23.98-12.04-2.81-51.39-2.81-51.39h-3.05ZM96.94,190.77c-4.71,4.46-11.99,7.33-19.97,7.87-.64.04-1.29.07-1.91.07-8.45,0-14.28-4-15.47-7.76-3.34-10.53,7.25-23.47,26.98-32.98,8.24-3.97,14.46-8.31,19.37-13.62.61,9.49,1,18.6.64,23-1.12,13.73-5.74,19.73-9.64,23.42Z"/>
      <path class="cls-1" d="M685.8,93.49c.03.13.05.27.08.4-.02-.13-.05-.27-.08-.4Z"/>
      <polygon class="cls-7" points="346.89 54.41 346.88 54.42 346.88 54.42 346.89 54.41"/>
      <polygon class="cls-1" points="346.89 54.41 346.88 54.42 346.88 54.42 346.89 54.41"/>
      <polygon class="cls-1" points="346.89 54.41 346.88 54.42 346.88 54.42 346.89 54.41"/>
      <polygon class="cls-1" points="346.89 54.41 346.88 54.42 346.88 54.42 346.89 54.41"/>
      <path class="cls-3" d="M393.61,68.23s-.09,0-.14,0c-15.33.06-23.78,9.64-24.36,22.85,0,0-.28,10.14-.2,13.51.45,17.76,11.37,24.36,22.79,24.85l2.64.05c.32.01.64.02.96.02,11.06,0,21.32-8.34,22.7-23.02.31-3.3.67-13.26.67-13.26.57-13.18-8.05-25.01-25.07-25.01ZM409.69,92.84v.03s0,.03,0,.03c-.1,2.7-.41,10.25-.64,12.75-.96,10.27-7.6,14.86-13.74,14.86-.19,0-.38,0-.57-.01h-.1s-.1,0-.1,0l-2.53-.05c-9.22-.43-13.83-5.7-14.09-16.08-.06-2.55.12-10.14.19-12.96.3-6.46,3.22-14.13,15.4-14.18h.1c5.27,0,9.53,1.53,12.3,4.43,2.63,2.75,3.97,6.72,3.78,11.19Z"/>
    </g>
  </g>
</svg>